<?xml version="1.0" encoding="utf-8"?>
<!-- Generator: Adobe Illustrator 19.1.0, SVG Export Plug-In . SVG Version: 6.00 Build 0)  -->
<svg version="1.1" id="Layer_1" xmlns="http://www.w3.org/2000/svg" xmlns:xlink="http://www.w3.org/1999/xlink" x="0px" y="0px"
	 viewBox="0 0 841.9 491.3" style="enable-background:new 0 0 841.9 491.3;" xml:space="preserve">
<style type="text/css">
	.st0{fill:#13697D;}
	.st1{fill:#7D959E;}
	.st2{fill:#A4C6D3;}
	.st3{fill:#DADFE1;}
	.st4{clip-path:url(#SVGID_2_);}
	.st5{fill:#212126;}
	.st6{font-family:'AkzidenzGroteskBE-Bold';}
	.st7{font-size:33.6105px;}
	.st8{fill:#FFFFFF;}
	.st9{clip-path:url(#SVGID_4_);fill-rule:evenodd;clip-rule:evenodd;fill:#02303A;}
	.st10{clip-path:url(#SVGID_4_);}
	.st11{fill:#FFFFFF;stroke:#13697D;stroke-width:2;stroke-miterlimit:10;}
	.st12{fill:none;stroke:#13697D;stroke-width:2;stroke-miterlimit:10;}
	.st13{fill-rule:evenodd;clip-rule:evenodd;fill:#FFFFFF;}
	.st14{fill-rule:evenodd;clip-rule:evenodd;fill:#02303A;}
	.st15{fill:#000F13;}
	.st16{fill-rule:evenodd;clip-rule:evenodd;fill:#00303C;}
</style>
<g>
	<g>
		<g>
			<g>
				<g>
				</g>
			</g>
		</g>
	</g>
</g>
<g>
	<defs>
		<rect id="SVGID_1_" x="0" width="843.1" height="491.3"/>
	</defs>
	<clipPath id="SVGID_2_">
		<use xlink:href="#SVGID_1_"  style="overflow:visible;"/>
	</clipPath>
	<g class="st4">
		<rect x="-11" y="-7.5" class="st0" width="875.1" height="513.7"/>
		<text transform="matrix(1 0 0 1 50.2598 60.4809)"><tspan x="0" y="0" class="st5 st6 st7">End </tspan><tspan x="71.4" y="0" class="st8 st6 st7">Bug Regressions</tspan></text>
		<g>
			<g>
				<g>
					<path class="st1" d="M237.3,383.4c-23.3,0-42.2-18.9-42.2-42.2V154.9c0-23.3,18.9-42.2,42.2-42.2h368.8
						c23.3,0,42.2,18.9,42.2,42.2v186.4c0,23.3-18.9,42.2-42.2,42.2H237.3z"/>
					<path class="st8" d="M606.2,363.4H237.3c-12.2,0-22.2-10-22.2-22.2V154.9c0-12.2,10-22.2,22.2-22.2h368.8
						c12.2,0,22.2,10,22.2,22.2v186.4C628.3,353.4,618.4,363.4,606.2,363.4z"/>
				</g>
				<path class="st1" d="M175.3,388.7c2,12.1,8.8,21.4,25.4,21.4h440.6c16.6,0,25-9.4,27-21.4H175.3z"/>
				<g>
					<defs>
						<path id="SVGID_3_" d="M606.2,363.4H237.3c-12.2,0-22.2-10-22.2-22.2V154.9c0-12.2,10-22.2,22.2-22.2h368.8
							c12.2,0,22.2,10,22.2,22.2v186.4C628.3,353.4,618.4,363.4,606.2,363.4z"/>
					</defs>
					<clipPath id="SVGID_4_">
						<use xlink:href="#SVGID_3_"  style="overflow:visible;"/>
					</clipPath>
					<path class="st9" d="M262.2,123.7c17.5-27.1,62.1-38.3,85.2-4.7c0.5,0.7,0.5,1.7,0.1,2.5l-10.5,19.3c-0.9,1.7-3.4,1.6-4.3-0.2
						c-5.2-11-14.5-13.9-23.4-13c-37.5,4-30.8,62.6-6.1,81.3c11.2,4.5,20.5,5.7,29.9,5.1c21.6-1.4,23.4-5,45.4-14.9
						c48.5-21.9,124.7,11.4,155,29.7c10.3,6.2,9.6,18.1,3.1,27.5c-7.8,11.2-23.9,34.3-37.9,46.6c-14.5,12.8-24.6,6.8-33.1,0.4
						c-8.4-6.3-19.1-16.9-23.1-25.3c-2.1-4.4-4.3-3.2-3.7-1.1c3.8,13.6,14.7,29.4,26,37.5c11.6,8.3,27.8,9.1,37.5,0.6
						c9.7-8.5,18.5-17.7,35.4-41.2c61.4,48.8,49.7,113.6,33.2,185.6c-0.3,1.5-1.6,6.8-9.5,5.3c-17.9-3.3-26.6-4.6-35.1-6.5
						c-1.1-0.2-1.9-1.3-1.7-2.4c3.2-28.2-29.1-72.7-59.6-10.7c-0.5,1-1.5,1.7-2.7,1.4l-28.9-5.4c-1.1-0.2-1.8-1.1-1.9-2.2
						c-4.1-59.7-61-76.9-104.6-20.2c-0.4,0.6-1.3,1.3-2.1,1.1c-14.6-2.7-27.5-5.1-41.6-7.8c-4.2-0.8-3.2-3.6-2.8-5.8
						c6.3-30.5,14.4-58.2-0.5-84C252.7,274.8,217.8,192.5,262.2,123.7z"/>
					<g class="st10">
						<g>
							<g>
								<path class="st11" d="M325.6,322.5c0,0,19.7-3.6,48.9,21.4c0,0,8.6-23.2-22.4-36.1C352.1,307.8,324.2,295.2,325.6,322.5z"/>
							</g>
							<g>
								<line class="st12" x1="337.4" y1="305.9" x2="335.3" y2="323.3"/>
								<line class="st12" x1="348.7" y1="307" x2="346.2" y2="325.1"/>
								<line class="st12" x1="359.1" y1="310.4" x2="356.2" y2="330.1"/>
							</g>
						</g>
						<path class="st0" d="M410.2,231.9c-0.6-1-37.3,6.9-58.6,11.5c-0.4-4.9,0.4-6,0.2-11.6c-1.9,4.3-5.1,12.9-7.4,19.5
							C349.4,250.9,398.2,236.2,410.2,231.9z"/>
					</g>
					<g class="st10">
						<path class="st13" d="M347.6,261.2c26.6-7.4,46.2-12.9,46.2-12.9s6.4,23.9-16.1,30.2C360.7,283.3,348.6,268.6,347.6,261.2z"/>
						<path class="st14" d="M359.3,259.7c-1.1,6.4,3.2,12.5,9.5,13.7c6.3,1.1,12.3-3.2,13.4-9.6s-3.2-12.5-9.5-13.7
							C366.3,248.9,360.3,253.2,359.3,259.7z"/>
					</g>
				</g>
				<g>
					<path class="st15" d="M614.3,198.7c-4.8,18.6-11,22.2-30.1,17.7c0.3,2.2,0.5,4.2,0.8,6.3c0.3,2.2-0.3,4-2.8,4.3
						c-2.4,0.3-3.5-1.2-3.8-3.4c-0.5-3.2-0.9-6.4-1.2-9.6c-0.3-2.8-0.9-5.3-3.8-7.2c-2.3,1.4-4.8,3.1-7.6,4.3
						c-1.2,0.6-3.2,0.7-4.3,0.1c-2.1-1.1-1.8-4,0.4-5.5c2.2-1.5,4.7-2.6,6.9-4.2c0.6-0.4,0.7-1.7,1-2.6c0-0.1-0.1-0.3-0.2-0.5
						c-0.4-4.4-3-6.3-7.2-6.5c-1.4-0.1-2.7-0.6-4-0.9c-3-0.7-4.4-2.3-3.8-4.4c0.6-2.2,2.3-2.8,5.5-2.1c2.5,0.6,5,1.1,7.8,1.8
						c1-6.7,3.6-12.3,9.5-15.9c6-3.6,12.1-3.2,18.7-0.7c0.8-2.7,1.5-5.4,2.3-8c0.9-2.9,2.3-4,4.4-3.4c2,0.5,2.8,2.5,2,5.2
						c-0.7,2.6-1.4,5.2-2.2,7.7c-0.6,1.6-0.2,2.6,1.1,3.8c4.1,3.7,4,3.8,8.9,0.9c1-0.6,1.9-1.1,2.9-1.7c1.9-1.1,3.7-1.2,5.1,0.8
						c1.2,1.7,0.4,3.7-1.8,5.1c-1.6,1-3.2,1.9-4.8,2.8c-3.3,1.9-3.5,4.4-0.3,6.9c3.2,2.5,6.6,4.8,9.7,7.4c0.9,0.8,1.7,2.5,1.6,3.7
						c-0.2,2.4-2.9,3.3-5.2,1.8C618,201.6,616.2,200.2,614.3,198.7z"/>
					<path class="st8" d="M603.3,209.6c10.2-9.4,2.2-28.3-6.3-31.9c-1.9,2.9-3.9,5.8-5.8,8.7c-0.3,0.5-0.5,1.5-0.3,2
						C594.9,195.4,599,202.4,603.3,209.6z"/>
					<path class="st8" d="M573.4,191.1c1,3,1.5,5.8,2.7,8.2c3.4,7.1,8.7,12.1,16.8,13.4c1.9,0.3,3.9-0.1,6.3-0.3
						c-4.4-7.6-8.4-14.3-12.4-21c-0.4-0.6-1.4-1.2-2.2-1.2C581.1,190.4,577.7,190.7,573.4,191.1z"/>
				</g>
				<g>
					<path class="st15" d="M784.3,390.2c-3.7,14.5-8.6,17.3-23.4,13.8c0.2,1.7,0.4,3.3,0.6,4.9c0.2,1.7-0.3,3.1-2.2,3.4
						c-1.9,0.3-2.7-0.9-3-2.6c-0.4-2.5-0.7-5-1-7.5c-0.2-2.1-0.7-4.1-3-5.6c-1.8,1.1-3.8,2.4-5.9,3.4c-1,0.4-2.5,0.6-3.4,0.1
						c-1.6-0.8-1.4-3.1,0.3-4.3c1.7-1.1,3.6-2.1,5.3-3.3c0.5-0.4,0.6-1.3,0.8-2c0-0.1-0.1-0.3-0.1-0.4c-0.3-3.4-2.3-4.9-5.6-5.1
						c-1.1-0.1-2.1-0.5-3.2-0.7c-2.3-0.6-3.4-1.8-3-3.4c0.4-1.7,1.8-2.2,4.2-1.6c2,0.4,3.9,0.9,6.1,1.4c0.8-5.2,2.8-9.6,7.4-12.4
						c4.6-2.8,9.5-2.5,14.6-0.6c0.6-2.1,1.2-4.2,1.8-6.2c0.7-2.2,1.8-3.1,3.5-2.7c1.6,0.4,2.2,1.9,1.6,4.1c-0.6,2-1.1,4-1.7,6
						c-0.4,1.3-0.2,2.1,0.9,3c3.2,2.9,3.1,2.9,6.9,0.7c0.7-0.4,1.5-0.9,2.2-1.3c1.5-0.9,2.9-0.9,4,0.6c0.9,1.3,0.3,2.8-1.4,3.9
						c-1.2,0.8-2.5,1.5-3.7,2.2c-2.6,1.5-2.7,3.4-0.2,5.4c2.5,1.9,5.1,3.7,7.5,5.8c0.7,0.6,1.3,1.9,1.3,2.9c-0.1,1.9-2.3,2.6-4,1.4
						C787.2,392.5,785.8,391.3,784.3,390.2z"/>
					<path class="st8" d="M775.7,398.7c7.9-7.3,1.7-22.1-4.9-24.8c-1.5,2.2-3.1,4.5-4.5,6.8c-0.3,0.4-0.4,1.2-0.2,1.5
						C769.2,387.6,772.4,393.1,775.7,398.7z"/>
					<path class="st8" d="M752.5,384.3c0.8,2.4,1.2,4.5,2.1,6.4c2.7,5.5,6.8,9.4,13,10.4c1.5,0.2,3-0.1,4.9-0.2
						c-3.5-5.9-6.5-11.2-9.7-16.4c-0.3-0.5-1.1-0.9-1.7-0.9C758.5,383.7,755.8,384,752.5,384.3z"/>
				</g>
				<g>
					<path class="st15" d="M658.8,275.6c8.6,12.2,7.7,17.7-4.6,26.8c1.4,0.9,2.8,1.8,4.1,2.7c1.4,0.9,2.2,2.2,1.2,3.8
						c-1,1.6-2.5,1.5-3.9,0.6c-2.1-1.3-4.3-2.7-6.3-4.1c-1.8-1.2-3.6-2.1-6.2-1.3c-0.4,2.1-0.6,4.4-1.2,6.7c-0.3,1-1.2,2.2-2.1,2.6
						c-1.7,0.7-3.3-0.9-3-3c0.2-2.1,0.8-4.1,1-6.2c0.1-0.6-0.6-1.3-1-1.9c-0.1-0.1-0.3-0.1-0.4-0.2c-2.8-2-5.2-1.4-7.5,1
						c-0.7,0.8-1.7,1.3-2.6,1.9c-1.9,1.4-3.6,1.4-4.5,0.1c-1-1.4-0.5-2.8,1.5-4.3c1.6-1.2,3.2-2.4,5-3.7c-3.5-4-5.5-8.4-4.6-13.7
						c0.9-5.3,4.2-8.8,9-11.5c-1.2-1.9-2.4-3.6-3.6-5.4c-1.3-1.9-1.2-3.4,0.2-4.4c1.3-0.9,2.9-0.4,4.1,1.4c1.2,1.7,2.4,3.4,3.5,5.2
						c0.7,1.2,1.5,1.4,2.8,1.3c4.2-0.6,4.2-0.5,5-4.8c0.1-0.9,0.3-1.7,0.4-2.6c0.3-1.7,1.2-2.8,3-2.6c1.6,0.1,2.4,1.6,2.1,3.6
						c-0.2,1.4-0.5,2.8-0.7,4.3c-0.5,2.9,0.9,4.3,4,3.6c3.1-0.6,6.1-1.5,9.3-2c1-0.2,2.3,0.2,3,0.9c1.3,1.3,0.5,3.4-1.5,4
						C662.3,274.9,660.6,275.2,658.8,275.6z"/>
					<path class="st8" d="M659.6,287.6c-0.5-10.8-15.7-15.6-22.1-12.3c0.7,2.6,1.4,5.2,2.2,7.8c0.1,0.5,0.6,1.1,1,1.2
						C647,285.5,653.2,286.5,659.6,287.6z"/>
					<path class="st8" d="M633.6,296.1c2.3,0.9,4.2,2,6.2,2.5c5.9,1.5,11.6,0.9,16.4-3.2c1.1-1,1.9-2.4,3-3.9
						c-6.7-1.2-12.7-2.2-18.7-3.2c-0.6-0.1-1.4,0.2-1.8,0.7C637.1,291.1,635.6,293.4,633.6,296.1z"/>
				</g>
				<g>
					<path class="st15" d="M726,329c0.4,12.6-2.8,16-15.7,16.7c0.6,1.3,1.1,2.6,1.7,3.8c0.6,1.3,0.5,2.6-0.9,3.2
						c-1.5,0.7-2.4-0.1-3-1.4c-0.9-1.9-1.8-3.9-2.5-5.8c-0.7-1.7-1.6-3.1-3.7-3.8c-1.2,1.3-2.5,2.8-4,4.1c-0.7,0.6-1.9,1-2.7,0.9
						c-1.5-0.3-1.9-2.2-0.8-3.5c1.1-1.3,2.5-2.5,3.5-3.9c0.3-0.4,0.1-1.2,0.2-1.8c0-0.1-0.2-0.2-0.2-0.3c-1-2.7-3-3.4-5.7-2.8
						c-0.9,0.2-1.8,0.1-2.7,0.2c-2,0.1-3.2-0.6-3.2-2.1c0-1.5,0.9-2.2,3-2.3c1.7-0.1,3.4-0.2,5.2-0.3c-0.6-4.4,0-8.4,3.1-11.7
						c3.1-3.3,7.1-4.2,11.7-3.9c0-1.9,0-3.7,0-5.5c0-2,0.7-3,2.2-3c1.4,0,2.2,1,2.2,2.9c0,1.8,0.1,3.5,0,5.3c0,1.1,0.4,1.7,1.4,2.2
						c3.2,1.6,3.2,1.6,5.8-1.1c0.5-0.5,1-1.1,1.5-1.6c1-1.1,2.1-1.4,3.4-0.4c1,0.8,1,2.2-0.2,3.5c-0.8,0.9-1.7,1.8-2.5,2.7
						c-1.7,1.8-1.4,3.4,1.1,4.4c2.5,1,5,1.8,7.5,2.9c0.7,0.3,1.5,1.3,1.7,2c0.3,1.5-1.3,2.6-2.9,2.1
						C728.8,330.1,727.5,329.6,726,329z"/>
					<path class="st8" d="M721,337.9c4.7-7.8-3.8-18.2-9.8-18.9c-0.7,2.2-1.4,4.3-2.1,6.5c-0.1,0.4-0.1,1.1,0.2,1.3
						C713.2,330.5,717,334.1,721,337.9z"/>
					<path class="st8" d="M698.8,331.7c1.2,1.7,2,3.3,3.2,4.7c3.5,3.8,7.7,6,13,5.4c1.2-0.2,2.4-0.8,3.9-1.3
						c-4.2-3.9-7.9-7.5-11.7-11c-0.3-0.3-1.1-0.5-1.6-0.3C703.6,329.9,701.4,330.7,698.8,331.7z"/>
				</g>
				<g>
					<path class="st15" d="M508,119.6c13.4,6.6,15.2,11.9,8.8,25.7c1.7,0.1,3.3,0.3,4.9,0.4c1.7,0.1,3,0.9,2.8,2.8
						c-0.1,1.9-1.5,2.5-3.2,2.4c-2.5-0.2-5-0.3-7.5-0.6c-2.1-0.2-4.2-0.1-6.1,1.8c0.7,2,1.6,4.2,2.1,6.5c0.2,1,0,2.5-0.6,3.3
						c-1.2,1.4-3.3,0.8-4.1-1.2c-0.8-1.9-1.3-4-2.1-5.9c-0.2-0.6-1.2-0.8-1.8-1.2c-0.1-0.1-0.3,0.1-0.4,0c-3.4-0.4-5.3,1.3-6.1,4.4
						c-0.3,1-0.9,2-1.3,2.9c-1,2.2-2.4,3-4,2.2c-1.6-0.8-1.8-2.2-0.8-4.5c0.8-1.8,1.7-3.7,2.6-5.7c-5-1.8-8.8-4.7-10.6-9.8
						c-1.8-5.1-0.5-9.8,2.4-14.4c-2-1-3.9-2-5.7-3c-2-1.1-2.7-2.4-1.9-3.9c0.7-1.4,2.3-1.7,4.3-0.7c1.9,0.9,3.7,1.9,5.5,2.9
						c1.2,0.7,2,0.6,3.1-0.2c3.5-2.5,3.5-2.5,2.1-6.6c-0.3-0.8-0.5-1.6-0.8-2.5c-0.6-1.6-0.3-3,1.4-3.8c1.5-0.6,2.9,0.2,3.6,2.2
						c0.5,1.3,0.9,2.7,1.4,4.1c1,2.8,2.8,3.3,5.2,1.3c2.4-2,4.7-4.3,7.2-6.2c0.8-0.6,2.2-0.9,3.1-0.6c1.8,0.5,2,2.8,0.6,4.2
						C510.8,117.2,509.4,118.4,508,119.6z"/>
					<path class="st8" d="M514.5,129.7c-5.6-9.2-21.3-6.2-25.3-0.2c1.9,1.9,3.8,3.9,5.7,5.8c0.3,0.3,1.1,0.7,1.5,0.5
						C502.4,133.9,508.4,131.8,514.5,129.7z"/>
					<path class="st8" d="M495.7,149.6c2.5-0.3,4.6-0.3,6.7-0.8c5.9-1.5,10.6-4.7,12.9-10.7c0.5-1.4,0.5-3,0.8-4.9
						c-6.5,2.2-12.2,4.1-18,6.2c-0.5,0.2-1.1,0.9-1.2,1.5C496.4,143.6,496.1,146.3,495.7,149.6z"/>
				</g>
				<g>
					<path class="st15" d="M132.7,387.8c-13.4-6.6-15.2-11.9-8.8-25.7c-1.7-0.1-3.3-0.3-4.9-0.4c-1.7-0.1-3-0.9-2.8-2.8
						c0.1-1.9,1.5-2.5,3.2-2.4c2.5,0.2,5,0.3,7.5,0.6c2.1,0.2,4.2,0.1,6.1-1.8c-0.7-2-1.6-4.2-2.1-6.5c-0.2-1,0-2.5,0.6-3.3
						c1.2-1.4,3.3-0.8,4.1,1.2c0.8,1.9,1.3,4,2.1,5.9c0.2,0.6,1.2,0.8,1.8,1.2c0.1,0.1,0.3-0.1,0.4,0c3.4,0.4,5.3-1.3,6.1-4.4
						c0.3-1,0.9-2,1.3-2.9c1-2.2,2.4-3,4-2.2c1.6,0.8,1.8,2.2,0.8,4.5c-0.8,1.8-1.7,3.7-2.6,5.7c5,1.8,8.8,4.7,10.6,9.8
						c1.8,5.1,0.5,9.8-2.4,14.4c2,1,3.9,2,5.7,3c2,1.1,2.7,2.4,1.9,3.9c-0.7,1.4-2.3,1.7-4.3,0.7c-1.9-0.9-3.7-1.9-5.5-2.9
						c-1.2-0.7-2-0.6-3.1,0.2c-3.5,2.5-3.5,2.5-2.1,6.6c0.3,0.8,0.5,1.6,0.8,2.5c0.6,1.6,0.3,3-1.4,3.8c-1.5,0.6-2.9-0.2-3.6-2.2
						c-0.5-1.3-0.9-2.7-1.4-4.1c-1-2.8-2.8-3.3-5.2-1.3c-2.4,2-4.7,4.3-7.2,6.2c-0.8,0.6-2.2,0.9-3.1,0.6c-1.8-0.5-2-2.8-0.6-4.2
						C129.9,390.2,131.3,389.1,132.7,387.8z"/>
					<path class="st8" d="M126.2,377.7c5.6,9.2,21.3,6.2,25.3,0.2c-1.9-1.9-3.8-3.9-5.7-5.8c-0.3-0.3-1.1-0.7-1.5-0.5
						C138.3,373.6,132.4,375.6,126.2,377.7z"/>
					<path class="st8" d="M145,357.9c-2.5,0.3-4.6,0.3-6.7,0.8c-5.9,1.5-10.6,4.7-12.9,10.7c-0.5,1.4-0.5,3-0.8,4.9
						c6.5-2.2,12.2-4.1,18-6.2c0.5-0.2,1.1-0.9,1.2-1.5C144.3,363.9,144.6,361.2,145,357.9z"/>
				</g>
				<g>
					<path class="st15" d="M220.7,328.2c-15.8,0.9-20.3-3.1-21.5-19.2c-1.6,0.8-3.2,1.5-4.8,2.2c-1.7,0.8-3.2,0.7-4.1-1.1
						c-0.9-1.8,0-3.1,1.7-3.9c2.4-1.2,4.8-2.3,7.3-3.4c2.1-0.9,3.9-2.1,4.7-4.8c-1.7-1.5-3.6-3-5.3-4.9c-0.8-0.8-1.4-2.3-1.2-3.4
						c0.3-1.9,2.7-2.4,4.4-1.1c1.7,1.4,3.3,3,5,4.3c0.5,0.4,1.5,0.1,2.3,0.2c0.1,0,0.2-0.2,0.4-0.3c3.4-1.4,4.2-3.9,3.3-7.3
						c-0.3-1.1-0.2-2.3-0.3-3.4c-0.2-2.5,0.7-4,2.5-4.1c1.8-0.1,2.8,1.1,3,3.8c0.2,2.1,0.4,4.2,0.6,6.6c5.5-0.9,10.6-0.3,14.9,3.5
						c4.3,3.8,5.6,8.8,5.3,14.6c2.4-0.1,4.6-0.1,6.9-0.2c2.5,0,3.7,0.8,3.8,2.6c0.1,1.7-1.3,2.8-3.6,2.9c-2.2,0.1-4.4,0.2-6.6,0.2
						c-1.4,0-2.1,0.5-2.7,1.8c-1.9,4.1-1.9,4.1,1.5,7.2c0.7,0.6,1.4,1.2,2,1.8c1.4,1.2,1.9,2.6,0.7,4.2c-1,1.3-2.8,1.3-4.4-0.1
						c-1.2-1-2.3-2-3.4-3c-2.4-2.1-4.3-1.6-5.5,1.5c-1.2,3.1-2.1,6.4-3.4,9.5c-0.4,0.9-1.5,2-2.5,2.2c-1.9,0.5-3.3-1.5-2.7-3.6
						C219.4,331.9,220.1,330.1,220.7,328.2z"/>
					<path class="st8" d="M209.4,322.3c10,5.6,22.9-5.4,23.5-13c-2.7-0.8-5.5-1.6-8.3-2.4c-0.5-0.1-1.3,0-1.6,0.3
						C218.5,312.1,214,317.1,209.4,322.3z"/>
					<path class="st8" d="M216.4,294.1c-2.1,1.5-4.1,2.7-5.8,4.2c-4.7,4.5-7.3,9.9-6.3,16.6c0.2,1.6,1.1,3,1.8,4.9
						c4.8-5.4,9.2-10.2,13.4-15.1c0.4-0.5,0.6-1.4,0.4-2C219,300,217.8,297.4,216.4,294.1z"/>
				</g>
				<path class="st16" d="M302.2,208.1c-23.8-19.5-29.9-76.5,7.1-80.5c8.9-1,18.2,2,23.4,13c0.8,1.8,3.3,1.9,4.3,0.2l10.5-19.3
					c0.4-0.8,0.4-1.8-0.1-2.5c-23-33.6-67.7-22.4-85.2,4.7c-19,29.5-23.5,61.4-20.2,92C262.2,217.7,283,215,302.2,208.1z"/>
			</g>
		</g>
	</g>
</g>
</svg>
