<?xml version="1.0" encoding="utf-8"?>
<!-- Generator: Adobe Illustrator 19.1.0, SVG Export Plug-In . SVG Version: 6.00 Build 0)  -->
<svg version="1.1" id="Layer_1" xmlns="http://www.w3.org/2000/svg" xmlns:xlink="http://www.w3.org/1999/xlink" x="0px" y="0px"
	 viewBox="0 0 843.1 491.3" style="enable-background:new 0 0 843.1 491.3;" xml:space="preserve">
<style type="text/css">
	.st0{clip-path:url(#SVGID_2_);}
	.st1{fill:#13697D;}
	.st2{fill:#000F13;}
	.st3{fill-rule:evenodd;clip-rule:evenodd;fill:#00303C;}
	.st4{fill-rule:evenodd;clip-rule:evenodd;fill:#FFFFFF;}
	.st5{fill:#FFFFFF;stroke:#3F5D72;stroke-width:2.5243;stroke-miterlimit:10;}
	.st6{fill:#FFFFFF;stroke:#3F5D72;stroke-width:2.6341;stroke-miterlimit:10;}
	.st7{fill:#50748A;}
	.st8{fill:#10171C;}
	.st9{fill:#A82324;}
	.st10{fill:#E02F30;}
	.st11{fill:#A6BBC3;}
	.st12{fill:#8C9EAA;}
	.st13{fill:#DADFE1;}
	.st14{fill:#B1A99F;}
	.st15{fill:#212126;}
	.st16{font-family:'AkzidenzGroteskBE-Bold';}
	.st17{font-size:33.6105px;}
	.st18{fill:#FFFFFF;}
</style>
<g>
	<defs>
		<rect id="SVGID_1_" x="0" width="843.1" height="491.3"/>
	</defs>
	<clipPath id="SVGID_2_">
		<use xlink:href="#SVGID_1_"  style="overflow:visible;"/>
	</clipPath>
	<g class="st0">
		<rect x="-11" y="-7.5" class="st1" width="883.6" height="513.8"/>
		<g>
			<g>
				<g>
					<g>
						<path class="st2" d="M569.1,306.7c9.9-2.4,52-5.2,61.9-7.7c-15.3-3.9-62.6-5.7-77.7-7.8c-2.4-0.3-5.6,0.5-6.1-3.1
							c6.1-1.5,12.1-3,18.2-4.5c-0.1-0.3-0.2-0.6-0.3-1c-2.7-0.4-5.5-0.8-8.2-1.2c-5,1.9-10.2,2.5-15.6,2.6
							c-0.8,0.9-1.6,1.9-2.5,2.7c0.9-0.8,1.7-1.8,2.5-2.7c-3.6-0.5-6.9-2.4-10.7-1.8c-0.9,0.1-1.8,0.1-2.7,0.2
							c-1.5,2.1-3.3,4-5.6,5.4c2.4-1.5,4.1-3.3,5.6-5.5c-3,0-6,0-9.1-0.1l-0.7-0.3c-3.4,0.5-6.6,2.5-10.3,1.6l-0.6,0.3
							c-2.3-0.1-4.5-0.2-6.8-0.3c2.5,3.5-0.7,5.2-2.8,7.1c-2,1.8-3.7,1-5.5-0.4c-4-3.1-8.3-1.6-12.6-0.7c-0.6-2.7,0.5-5.9-2.8-7.7
							c-5.5,1.8-9.1,5.1-10.8,9.2l-8.7-6.1l-5.7,7.9l-19.9-7.9l-10.8,8.7l-7.8-5c0,0,0-0.1,0-0.1c-0.1-0.3-0.2-0.6-0.3-0.9l-0.6,0.1
							c0,0-0.6-0.1-0.6-0.1l0,0l0,0l0,0l0,0c-3.5-2.1-18,5.3-18,5.3s-7.6-4.9-9.1-5.3c-1.9,0-3.7,0.1-5.6,0.1
							c-2.1-0.5-4.2-1-6.3-1.5c-6.6,0.1-13.1,0.2-19.7,0.3c-0.7-0.6-1.4-1.2-2.1-1.8c-2.4,0.2-5-0.2-7.2,1.1c0.1,3,1.4,6,0.2,9h-2
							c-3-0.5-6-0.9-9-1.4c-0.1,0.5-0.3,0.9-0.4,1.4c-2.5-0.1-5,0-7.4,0h-0.4v0c-9.3,0.2-18.6,1.2-27.9,2.8
							c-8.5,1.5-17.2,4.3-26,1.4c-8-2.7-26.1-0.5-33.6,4.4c8.5,1,16.9,0.1,25.2,0.9c20.7,1.9,55.2,1.2,66.1,3.1
							c1.4,0.2,14.6,0.4,15.5,2.2c-7.7,2.3-8.5,11.9-16.1,14.4c-4.3,1.4-7.8,1.2-11.8-1.2c-9.9-5.9-20.3-5-30.3,2.6
							c2.2-0.1,4.3,0.3,5.8-0.4c7.6-3.5,14-0.2,20.6,2.5c3.8,1.5,6,6.4,10.4,5.9c9.2-1.1,18.8-0.8,27.7-3.8
							c4.8,0.3,9.3-0.8,13.9-1.9c2.6-0.6,5.4-1.6,7.4,0.5c4.1,4.3,7.5,2.5,11.3-0.3c2.6-2,5.6-3.5,8.4-5.3c4.1-3,7.4-7,12.9-0.7
							c2.6,3,4.1-2.4,6.4-3.6c-5.9-1.9-5.9-1.9,0,0c3-0.7,12.1,5.4,15.2,4.7c4-1,2.1-5.9,6.1-6.9l9.1,1l5.4,10.9l15.3-7.7
							c7,3.2,14,6.4,21,9.7c0.5,1,1,1.9,1.6,2.9c1.8,0.1,3.5,0.2,5.3,0.3c4.3-1.4,2-8.8,8.7-8.1c-0.8-1.9-2.4-3.2-4-4.3l0,0h16.8
							L498,309.5l-2.9-5.1c3.9-1,6.3,1.6,8.3,5.5c1.3,0.4,2.6,0.8,4,1.2l0.6,0.3c3.4,0,6.8,0,10.3,0c0.3,0.4,0.5,0.8,0.7,1.2
							c3.7,0,7.4,0,11.2,0c5.6,1.8,11.3,2.7,17.2,1.3c0.6-0.1,1.1-0.2,1.7-0.3c0.2-2.2,0.4-4.4,0.6-6.5c-5.5-1.1-5.5-4.7-5.8-8.3
							c0.2,3.5,0.3,7.1,5.8,8.3c6.9-4.9,10.3-4.2,13.8,2.7c0.9,0.5,1.8,0.9,2.8,1.4c3.5-0.4,7.3,0.8,11-2.2c-3-0.4-5.3-0.7-7.7-1
							C569.2,307.6,569.2,307.2,569.1,306.7z"/>
					</g>
					<g>
						<g>
							<g>
								<path class="st3" d="M292.7,134.3c10.9-23.5,43.5-39.5,66.6-16.3c0.5,0.5,0.7,1.3,0.5,2l-5.5,16.8c-0.5,1.5-2.5,1.8-3.4,0.5
									c-5.8-8-13.5-8.9-20.4-6.8c-29.1,8.7-15.1,54.1,7.2,65.2c7,3.5,16.9,2.7,24.4,1.3c22.6-4.3,23.3-9,39.3-20.1
									c35.1-24.5,94.7-9.5,121.4,0.5c9.1,3.4,10.3,12.9,6.5,21.3c-4.5,10-13.9,30.6-23.1,42.4c-9.6,12.3-18.4,9-26.1,5.2
									c-6.6-3.3-16.8-11.8-23-17.2c-0.7-0.6-1.8,0.3-1.2,1.1c5.4,7.2,15.2,19.2,25.1,25c9.9,5.7,23.4,3.1,29.8-5.1
									c6.4-8.2,12.1-16.7,22-37.8c56.9,30.1,56,84.7,53.5,145.6c0,1-6.5,1.9-7.5,1.9c-14.6,0.1-20.7,0.3-27.7,0
									c-0.9,0-1.8-0.8-1.8-1.8c-1.7-22.8-35.6-59.3-48.7,0.5c-0.2,0.9-1,1.5-1.9,1.5l-23.6,0c-0.9,0-1.6-0.6-1.8-1.4
									c-12.1-46.6-49.2-53-85.7-0.5c-0.3,0.5-0.9,0.8-1.5,0.8c-11.9,0.8-23.3,0.3-34.9,0.3c-3.4,0-2.6-2.8-2.3-4.2
									c4.7-22.2,2.2-52.6-12.6-70.4C312.9,256.6,268.9,185.4,292.7,134.3z"/>
								<g>
									<path class="st4" d="M375.1,227.9c20.5-8.4,35.7-14.5,35.7-14.5s7.3,18.5-10.1,25.6C387.6,244.3,376.6,233.7,375.1,227.9z"
										/>
									<path class="st3" d="M384.3,225.6c-0.3,5.2,3.7,9.7,8.9,10c5.2,0.3,9.6-3.7,9.8-8.9c0.3-5.2-3.7-9.7-8.9-10
										S384.6,220.3,384.3,225.6z"/>
								</g>
							</g>
						</g>
						<g>
							<path class="st5" d="M350.5,277.4c0,0,13.9-4.4,37.2,11c0,0,4.1-17.5-19.4-24C368.3,264.4,347,257.8,350.5,277.4z"/>
							<line class="st5" x1="357.6" y1="264.3" x2="357.6" y2="277"/>
							<line class="st5" x1="365.8" y1="264" x2="365.6" y2="277.3"/>
							<line class="st6" x1="373.6" y1="265.6" x2="373.3" y2="280.1"/>
						</g>
						<path class="st7" d="M414.8,203.2c-0.5-0.6-26.3,8.2-41.3,13.4c-0.7-3.5-0.2-4.4-0.9-8.4c-1,3.3-2.5,9.7-3.6,14.7
							C372.6,222.2,406.5,207.3,414.8,203.2z"/>
					</g>
					<g>
						<polygon class="st7" points="411.7,288 411.7,288 411.7,288 						"/>
						<path class="st1" d="M612.4,301.4c-7.3,1.8-36.1,3.6-43.3,5.4c0.1,0.4,0.1,0.8,0.2,1.2c2.4,0.3,4.8,0.6,7.7,1
							c-3.7,3-7.5,1.8-11,2.2c-0.9-0.5-1.8-0.9-2.8-1.4c-3.5-6.9-14.2,1.7-14.4,3.9c-0.6,0.1-1.1,0.2-1.7,0.3
							c-5.9,1.4-11.6,0.5-17.2-1.3c-3.7,0-11.5-0.8-11.8-1.2c-3.4,0,1.3,0.4,0,0c-2-3.9-34.4-10.4-38.3-9.4l18.1,7.4l12.8,11.6H494
							l0,0c1.7,1.1,3.2,2.4,4,4.3c-6.7-0.8-4.4,6.6-8.7,8.1c-1.8-0.1-3.5-0.2-5.3-0.3c-0.5-1-1-1.9-1.6-2.9c-7-3.2-14-6.5-21-9.7
							l-15.3,7.7l-5.4-10.9l-9.1-1c-4,1-2.1,6-6.1,6.9c-3,0.7-11.3-7.2-13.8-11.7c-2.3,1.2-5.1,13.6-7.7,10.6
							c-5.5-6.2-8.8-2.3-12.9,0.7c-2.8,1.7-5.8,3.3-8.4,5.3c-3.8,2.9-7.3,4.6-11.3,0.3c-2-2.1-4.8-1.1-7.4-0.5
							c-4.5,1.1-9.1,2.2-13.9,1.9c-8.9,3-18.4,2.7-27.7,3.8c-4.4,0.5-6.6-4.3-10.4-5.9c-6.5-2.7-13-6-20.6-2.5
							c-1.5,0.7-3.5,0.3-5.8,0.4c2.4-1.8,4.9-3.3,7.3-4.3c-2.9-0.3-5.8-0.5-8.6-0.8c-0.6-0.1-1.1-0.2-1.5-0.5
							c-11.3-1.3-22.5-4.6-33.6-7.2c-28.2-6.7-57.5-6.8-86-11.7c-13.4-2.3-26.8-5.2-40.1-7.9V488h653V299.8
							C714.6,300.9,674.3,302.4,612.4,301.4z"/>
					</g>
					<g>
						<path class="st2" d="M547.8,398.2c0,0,0.1,0,0.1,0C547.9,398.1,547.9,398.1,547.8,398.2L547.8,398.2z"/>
						<path class="st2" d="M744.8,410.9c-9-2.6-16.1-3.3-23.2-4.5c-10.7-1.7-21.9-0.7-32-5.4c6.7-1.9,13.3-3.8,21.9-6.2
							c-15.6-2.9-29,1.7-42.2-1.3c-2.8,2.6-5.5,0.3-8.3,0c-3.5,2.5-7.1,2.9-11.7,2c-5.8-1.1-11.9-1.9-18-1.1l0,0
							c-1.8-1-3.7-1.8-5.3-3c-5.3-3.9-9-4.2-14.1,1.3c-5.1,5.5-12.5,9.6-21.5,6.9c-2.7,0.3-4.9,0.6-6.6,3.3
							c-2.9,4.8-6.6,9.1-10,13.6c-6.2,8.2-6.2,8.2-14.5,1.9c-4.3-1.3-5-3.4-2.1-6.8c2.5-3,4.5-6.3,6.7-9.5
							c-5.2-1.6-10.1-4.3-15.9-3.8c0.5,0.9,0.9,1.8,1.4,2.7c-21.4-1.3-42.7-2.5-64.6-3.8c3.4,3.5,6.5,6.7,9.5,9.8
							c-14.6,0-29.1-0.4-43.7,1.4c-9.8,1.2-19.1,4.3-29.2,4.1c-5.6-0.1-9.5-4.1-15.7-3c-12,2.1-23.8,5.9-36.3,6.1
							c12.2,1.1,24.5,0.5,36.6,1.2c27.9,1.7,55.8,4,83.6,6c2.9,1.7,5.7,3.6,6,7.1c-8.7,0.9-16.4,4.7-24.8,6.6c-3.2,0.7-6,0.8-9-0.7
							c-12.9-6.7-26.7-5.1-38.7,4.9c4.8-1.2,8.7-1.9,12.3-3c8-2.6,15.4-1.3,22.3,2.7c3,1.8,5.1,5.8,9,5.2c9.2-1.3,18.8-0.5,27.6-4
							c5.3,0.6,10.3-0.9,15.4-1.7c2-0.3,4.3-1.6,5.9,0.1c5,5.5,9,2.1,13.2-0.8c3.3-2.3,6.8-4.4,10-6.9c3.1-2.4,6-2.5,8.9,0
							c0.8,4.1,2.4,2.8,5.1,1.1c9.7-6.3,20.9-6.1,31.7-4c5.6,1.1,10.3,7.1,16.7,1.3c0.6-0.5,3.3,0.9,5,1.5c7.4,3.1,14.7,6.2,22,9.4
							c6.4,5.7,9.5-0.3,12.3-3.5c3.6-4.2-2.4-4.8-4.5-6.4c-2.3-1.8-4.4-4.3-7.9-4.3c-0.6-2.7,2.8-1.2,3.3-2.7v0
							c7,0,13.6-2.7,20.9-1.8c10.8,1.3,21.7,1.9,32.5,2.8c0.5-0.1,1.1-0.1,1.6-0.2c1.5,0,3-0.1,4.5-0.1c9.4-1.1,18.8-2.1,29-3.2
							c-3.2-3-6.7-1.1-9.1-3C721.8,416.4,732.4,413.8,744.8,410.9z"/>
					</g>
					<path class="st8" d="M646.3,421.5c0.5-0.1,1.1-0.1,1.6-0.2C647.4,421.3,646.8,421.4,646.3,421.5z"/>
					<path class="st8" d="M509.3,394c-0.2-0.1-0.3-0.1-0.5-0.2c0.1,0.1,0.3,0.2,0.4,0.3L509.3,394z"/>
					<g>
						<path class="st9" d="M708.2,336.6c2.7-0.3,4.9-0.6,6.6-3.3c2.9-4.8,6.6-9.1,10-13.6c6.2-8.2,6.2-8.2,14.5-1.9
							c-5,2.3-6.6,7.3-10.1,10.7c-5.3,5.1-7.5,12.3-14.9,16.3c-12.7,6.9-26.2,12-39.1,18.6c-3.8,2-7.1,2-11.1,0.2
							c-7.9-3.7-16.2-6.9-24.1-10.7c-4.2-2-7-1.4-10.4,1.5c-8.6,7.1-17.5,13.8-26.4,20.5c-19.1,14.2-31.7,33.1-44.9,51.6
							c0,0-0.5,0.1-0.5,0.1c-0.8,0.2-1.5,0.5-2.3,0.7c-1.3-12.5,2-24.6,2.2-36.8c1.2-0.2,1.8-0.5,2.1-0.3
							c10.4,6.2,10.6,6.3,17.6-2.9c12.2-16,30.4-26.1,45.5-39.4c2.1-1.8,4.2-3.6,6.3-5.3c2.8-2.6,5.5-0.3,8.3,0
							c9.1,4.2,18.3,8.2,27.4,12.5c3,1.4,5.4,0.7,8.1-0.6c10.8-5,21.6-9.8,32.5-14.6C707.2,339.3,709.1,339,708.2,336.6z"/>
						<path class="st10" d="M558.3,426.6c13.2-18.5,25.8-37.4,44.9-51.6c9-6.7,17.9-13.4,26.4-20.5c3.5-2.9,6.2-3.5,10.4-1.5
							c7.9,3.8,16.2,6.9,24.1,10.7c3.9,1.8,7.2,1.8,11.1-0.2c12.8-6.5,26.4-11.7,39.1-18.6c7.4-4,9.6-11.2,14.9-16.3
							c3.6-3.4,5.2-8.4,10.1-10.7c4.3,1.3,5,3.4,2.1,6.8c-2.5,3-4.5,6.3-6.7,9.5c-7.4,14.1-21.3,20.8-36.1,26.6
							c-8.2,3.2-16.1,6.9-24,10.8c-3.7,1.8-6.6,1.7-10.3,0c-7.9-3.7-16.1-7-24.1-10.6c-2.5-1.1-4.7-2.2-7.1-0.1
							c-14.8,12.9-32.3,23.1-44.4,38.7c-4.7,6-4.7,9.2,2.3,12.4c1.1,0.5,2.1,1.4,3.8,2.7C582.2,418.9,570.6,423.6,558.3,426.6z"/>
					</g>
					<path class="st2" d="M314.4,388.4c4.7-1.7,7.2-2.7,9.7-3.6c-0.1-0.3-0.2-0.6-0.2-0.9c-4.5,0-9.1,0-13.6,0
						c-9.9-0.3-19.9,1.8-29.8,0.3c7-3.9,12.3-7.6,12.3-7.6s-32.6,5.9-34.9,7.7c-3.5,2.7,2.7,8.3-3.4,2c-0.5-0.5-2.8,0.6-4.3,0.9
						c-6,3.5-4.1-0.4-10.1,3c-1.7,0.6,1.7-0.6,0,0c-3.8-3.2-14.3,1.4-16.4-2.2c-16.9-1.3-19.1-3-25.8-2.6c2.4,1.3,4.2,4.7,5.8,5.5
						c-2.4,2.1-5.5,1-8.2,1.4c-19,2.4-38.4,1.4-57.3,5.2c21.7,0.7,43.3,2.3,64.9,3.8c0.7,1.4,1.3,2.7,2,4.1
						c-8.4,1.5-16.5,5.8-25.5,0.9c-2.4-1.3-5.8-0.1-8.1,2.9c4.2,0.6,8.3-0.8,11.3,1.5c7.3,5.5,14.6,3,22.1,0.6
						c8.9-1,18.9,2.3,26.1-5.5c0.5-0.5,2.4,0.1,3.7,0.2c4.9,1.7,8.4-2.9,13.3-2.2c10.4,1.7,2.6,0.4,19.6,4.2l11.3,2.2
						c6.7,0.4,18.6-2.2,18.6-2.2s-11.1-1.7-13.3-3.1c-1.4-0.9-2.1-2.1-1.9-3.7c10.9-2.3,21.9,1.2,32.8-0.2c10,0.5,17.1-7.2,26.8-9
						C333.4,390.9,324.9,389.8,314.4,388.4z"/>
					<g>
						<path class="st11" d="M261.1,388c0-4.1,0-8.2,0-12.9c-7.4,5.2-9.9,0.5-12.6-4.9c-6.3-12.7-18.6-21.4-26.5-33.1
							c-2.2-3.2-6.3-1.8-8.6-0.7c-13.6,6.5-23.8,2-35.5-5.8c-8.5-5.6-13.7-11.9-17.1-20.3c-2.1-5.2-4.8-5.4-8.9-2.1
							c2.1,3.6,4.5,7,6.2,10.8c2.9,6.5,8,10.9,13.7,15.3c11.9,9.4,23.9,15.8,39.7,8.2c3.4-1.6,6.2-0.2,8.9,2.4
							c16.6,15.8,27.7,34.7,37.3,54.5C261.5,396.3,259.1,391.6,261.1,388z"/>
						<path class="st12" d="M257.8,399.5c-9.6-19.8-20.7-38.8-37.3-54.5c-2.7-2.6-5.5-4-8.9-2.4c-15.9,7.6-27.9,1.1-39.7-8.2
							c-5.7-4.5-10.8-8.8-13.7-15.3c-1.6-3.7-4.1-7.2-6.2-10.8c-5.2,0.9-2.4,3.5-1.7,5.9c5.1,19.2,23.4,26.7,38.5,37
							c4,2.8,8.9,0,12.7-1.6c9.8-3.9,16.5-1.9,22.1,6.5c4.5,6.7,11,12.1,15.3,19.1c3.7,6.1,4.1,10-4.2,12c6,3.5,12,6.9,18,10.4
							C254.4,398.2,256.1,398.8,257.8,399.5z"/>
					</g>
					<path class="st2" d="M726.5,178.8c-5.4-1.2-11.4-0.7-16.1-4.4c2.7-0.6,5.5-1.2,8.2-1.9c-0.1-0.3-0.1-0.6-0.2-0.9
						c-13.5-0.6-26.9-1.3-40.4-1.9c-3.6-4.3-7.5-4.9-11.8-0.8c-0.2,1.9-0.6,3.8-0.6,5.7c0.1,6-2.3,6.3-6.9,3.3
						c-3.6-2.4-7.6-4.2-11.5-6.3c-2.9,0.3-5.6-0.2-8.4-1.2c-1.7-0.6-4.1-2.5-5.3,0.8c-10.1-2.4-20.4-2.5-31.2-4.1
						c1,2.4,1.7,4.1,2.4,5.8c-19.3-2.5-38.5,0.6-57.8-0.8c0,0.6,0,1.2,0,1.8c18.7,2.6,37.5,5.1,56.2,7.7c0.5,0.5,1,1,1.5,1.4
						c-6.1,4-12.1,7.9-19.8,2.9c-3.5-2.3-7.5-2-12.5,1.1c5.1,0.3,8.7,0.3,11.4,2.6c6.5,5.5,13.7,3.8,20.9,2.1c8.4-0.4,17.4,3,24.7-4
						c0.5-0.5,2.3,0.2,3.4,0.3c14.7-2.1,28.7,0,41.7,7.2c2.4,2.6,5.1,2.2,6.3-0.6c1.9-4.1-1.8-4.9-4.7-5.8l0,0
						c-0.1-0.5-0.1-1-0.2-1.5c0.6-0.5,1.1-1,1.7-1.4c10.5-0.8,20.7,2.5,31.1,2.5c9.9,1.6,17.6-5.3,28.4-6.2
						C732.7,179.7,729.6,179.5,726.5,178.8z"/>
					<g>
						<path class="st13" d="M614.9,170.1c0-4.1,0-8.2,0-12.9c7.4,5.2,9.9,0.5,12.6-4.9c6.3-12.7,18.6-21.4,26.5-33.1
							c2.2-3.2,6.3-1.8,8.6-0.7c13.6,6.5,23.8,2,35.5-5.8c8.5-5.6,13.7-11.9,17.1-20.3c2.1-5.2,4.8-5.4,8.9-2.1
							c-2.1,3.6-4.5,7-6.2,10.8c-2.9,6.5-8,10.9-13.7,15.3c-11.9,9.4-23.9,15.8-39.7,8.2c-3.4-1.6-6.2-0.2-8.9,2.4
							c-16.6,15.8-27.7,34.7-37.3,54.5C614.4,178.4,616.9,173.7,614.9,170.1z"/>
						<path class="st12" d="M618.2,181.6c9.6-19.8,20.7-38.8,37.3-54.5c2.7-2.6,5.5-4,8.9-2.4c15.9,7.6,27.9,1.1,39.7-8.2
							c5.7-4.5,10.8-8.8,13.7-15.3c1.6-3.7,4.1-7.2,6.2-10.8c5.2,0.9,2.4,3.5,1.7,5.9c-5.1,19.2-23.4,26.7-38.5,37
							c-4,2.8-8.9,0-12.7-1.6c-9.8-3.9-16.5-1.9-22.1,6.5c-4.5,6.7-11,12.1-15.3,19.1c-3.7,6.1-4.1,10,4.2,12c-6,3.5-12,6.9-18,10.4
							C621.6,180.3,619.9,181,618.2,181.6z"/>
					</g>
					<g id="GtbJgy.tif">
						<path class="st7" d="M284.4,140.1l-26,4.4l-6.4,18.8l3.6,21.7l15,16l4.2,3.5l11.4-3l125-33.4l-1.5-34.4c0,0-2.7-11.8-8.2-12.5
							s-19.3-0.3-19.3-0.3l-27.8,2L284.4,140.1z"/>
						<path class="st7" d="M283.1,202.4c42.3-11.1,84.7-22.3,127-33.7c1.7-0.5,3.8-3,4.1-4.8c1.5-10.2-0.6-19.9-4.5-30.1
							c-5.8,1.5-11.1,2.9-16.5,4.4c0-0.3-0.1-0.5-0.1-0.8c5-2.1,10-4.2,15-6.2c0.1-0.7,0.2-1.5,0.4-2.2c-1.8-0.6-3.7-2-5.4-1.8
							c-4,0.6-7.9,1.9-11.8,3c0-0.2-0.1-0.5-0.1-0.7c4.5-2.1,8.9-4.2,13.8-6.6c-1.8-2.7-3.1-4.9-4.6-7c-5.5-7.7-5.4-7.6-14.1-3.7
							c-4.9,2.2-9.9,4.1-15.3,6.3c-0.3-3.4,0-5.9-0.8-8.1c-0.8-2.2-2.6-5.6-4-5.6c-2.6,0-6.4,1.2-7.7,3.2c-3.4,5.3-5.7,11.2-9,18.2
							c2.5,0.7,4.3,1.2,6.2,1.7c-8.6,0.5-16.5,1.9-24.4,3.4c-5.4,1-10.7,2.2-16.1,3.3c-15.4,2.9-30.9,5.7-47,8.7
							c10.8,7.8,15.5,18.5,17.8,30.3c0.8,4.1,2.3,5.5,6.5,4.8c7-1.1,14.2-1.6,21.3-2.4c-7.4,2.5-14.9,4-22.4,5.2
							c-4.2,0.6-4.8,2.7-3.7,6.6c6.3-0.6,12.3-1.1,19.6-1.8C297.4,190.5,283.8,186.6,283.1,202.4z M251.6,178.5
							c4.9,7.7,8.7,15.7,14.4,22.1c6.2,7.1,13.3,4.8,16.4-4.2c4.9-13.8-1.7-38.9-12.8-48.7c-7-6.2-14.5-4.7-16.4,4.4
							c-1.6,7.9-1.2,16.3-1.5,24.9C251.6,177.5,251.6,178,251.6,178.5z"/>
						<path class="st14" d="M283.1,202.4c0.3-5.4,4.6-10.4,4.6-10.4s18.1-4.9,24.4-7.9c-7.3,0.7-18.4,3-24.7,3.6
							c-1.2-3.9-0.5-6,3.7-6.6c7.6-1.2,15-2.7,22.4-5.2c-7.1,0.8-14.2,1.2-21.3,2.4c-4.3,0.7-5.7-0.7-6.5-4.8
							c-2.4-11.8-7.2-23-18-30.8c7.2-3,82.5-18.6,82.5-18.6s8.8-18.4,10.1-20.5c1.3-2,2.5-1.8,5.1-1.8c1.4,0,5.7,2.2,6.5,4.4
							c0.8,2.2-1.5,8.9-1.2,12.3c5.3-2.2,10.4-4.1,15.3-6.3c8.7-3.9,8.7-4,14.1,3.7c1.5,2.1,2.8,4.3,4.6,7
							c-4.9,2.4-9.4,4.5-13.8,6.6c0,0.2,0.1,0.5,0.1,0.7c3.9-1,11.7-3.5,15.7-4c1.7-0.2-0.3,2.2,1.6,2.8c-0.1,0.7-0.2,1.5-0.4,2.2
							c-5,2.1-10,4.2-15,6.2c0,0.3,0.1,0.5,0.1,0.8c5.4-1.4,10.8-2.8,16.5-4.4c3.9,10.2,6,19.9,4.5,30.1c-0.3,1.8-2.3,4.4-4.1,4.8
							C367.7,180.1,325.3,191.2,283.1,202.4z"/>
						<path class="st14" d="M253.1,178.5c-2.3-8.8-1.7-18,0.1-26.3c0.7-3.4,2.1-5.7,4.1-7c3.3-2.2,7.9-1.4,12.4,2.6
							c11.1,9.8,17.7,34.9,12.8,48.7c-3.2,8.9-10.2,11.2-16.4,4.2C260.3,194.2,255.5,187.3,253.1,178.5z M278,171.7
							c-1.6-6.5-4.7-11.9-8.4-16.6c-4.9-6.2-11.5-4.7-13,2.9c-2.6,13.4,0.6,25.8,9.7,36c4.8,5.4,10.8,3.8,12.1-3.3
							C279.6,184.5,279.6,177.9,278,171.7z"/>
						<path class="st7" d="M278,171.7c1.6,6.2,1.6,12.8,0.4,19.1c-1.3,7.1-7.3,8.7-12.1,3.3c-9.1-10.3-12.3-22.6-9.7-36
							c1.5-7.6,8.1-9.1,13-2.9C273.3,159.8,276.4,165.2,278,171.7z M276.3,171.6c-3-5.2-5.5-10.6-9-15.1c-3.1-4-7-3-8,2
							c-2.4,12.5,0.6,23.9,8.8,33.6c3.5,4.1,7.4,2.9,8.1-2.6C276.9,183.7,276.3,177.8,276.3,171.6z"/>
						<path class="st14" d="M275.3,171.9c1.6,5.9,1.7,11.8,0.9,17.5c-0.7,5.5-4.7,6.7-8.1,2.6c-8.2-9.7-11.2-21.1-8.8-33.6
							c1-5,4.9-6,8-2C270.8,161,273.7,166.1,275.3,171.9z"/>
						<path class="st7" d="M271.3,173.4c1.1,4,2.1,9.1-1.2,9.8c-3.3,0.7-5.5-4.9-6.3-7.9c-0.8-3-1.7-8.9,1.5-10
							C268.5,164.2,270.2,169.2,271.3,173.4z"/>
					</g>
					<g>
						<g>
							<path class="st3" d="M359.3,118c-22.5-22.5-53.8-8.2-65.6,14.2c1.1-0.2,2.2-0.3,3.4-0.4c0.6-0.7,1.5-1.2,2.7-1.2
								c7.6-0.1,15.4-1.6,23-2.6c6.3-0.8,10.9,0.1,17,1.7c4.7,1.2,8.3,3.5,11.2,7.5c0.9,1.3,2.9,1,3.4-0.5l5.5-16.8
								C360,119.3,359.8,118.5,359.3,118z"/>
						</g>
					</g>
				</g>
			</g>
		</g>
		<text transform="matrix(1 0 0 1 50.2605 60.481)"><tspan x="0" y="0" class="st15 st16 st17">End </tspan><tspan x="71.4" y="0" class="st18 st16 st17">Broken Release Processes</tspan></text>
	</g>
</g>
</svg>
