<?xml version="1.0" encoding="utf-8"?>
<!-- Generator: Adobe Illustrator 19.1.0, SVG Export Plug-In . SVG Version: 6.00 Build 0)  -->
<svg version="1.1" id="Layer_1" xmlns="http://www.w3.org/2000/svg" xmlns:xlink="http://www.w3.org/1999/xlink" x="0px" y="0px"
	 viewBox="0 0 875.2 513.7" style="enable-background:new 0 0 875.2 513.7;" xml:space="preserve">
<style type="text/css">
	.st0{fill:#166A7E;}
	.st1{fill-rule:evenodd;clip-rule:evenodd;fill:#05303A;}
	.st2{fill:#50748A;}
	.st3{fill-rule:evenodd;clip-rule:evenodd;fill:#FFFFFF;}
	.st4{fill:#7D959E;}
	.st5{fill:#D9F1FD;}
	.st6{fill:#6BA2B9;}
	.st7{fill:#A4C6D3;}
	.st8{fill:url(#SVGID_1_);}
	.st9{fill:#FFFFFF;}
	.st10{fill:#05303A;}
	.st11{font-family:'AkzidenzGroteskBE-Bold';}
	.st12{font-size:33.6105px;}
	.st13{fill:#212226;}
	.st14{fill:#00303C;}
	.st15{fill:url(#SVGID_2_);}
	.st16{fill:#98D5E9;}
	.st17{fill:url(#SVGID_3_);}
	.st18{fill:#DADFE1;}
	.st19{fill:url(#SVGID_4_);}
	.st20{fill:url(#SVGID_5_);}
	.st21{fill:url(#SVGID_6_);}
	.st22{fill:none;}
</style>
<polyline class="st0" points="875.2,0 0,0 0,513.7 875.2,513.7 "/>
<g>
	<g>
		<path class="st1" d="M577.4,105.2C565.4,84.7,533,75,514.9,99c-0.4,0.5-0.5,1.2-0.2,1.8l7.1,14.5c0.6,1.3,2.5,1.3,3.2,0
			c4.2-7.9,11.1-9.8,17.6-8.8c27.5,4.2,20.6,47.1,1.8,60c-8.4,2.9-15.2,3.5-22.2,2.8c-15.9-1.7-17.1-4.4-32.9-12.4
			c-35-17.7-92.1,4.3-115,16.8c-7.8,4.3-7.7,13-3.2,20.1c5.4,8.5,16.5,26,26.4,35.5c10.3,9.9,17.8,5.8,24.3,1.4
			c6.4-4.4,14.6-11.8,17.8-17.9c1.7-3.2,3.3-2.2,2.8-0.7c-3.2,9.9-11.8,21.2-20.3,26.8c-8.8,5.7-20.8,5.8-27.6-0.8
			c-6.8-6.6-13.1-13.6-24.7-31.4c-46.8,33.9-40.2,81.9-30.5,135.5c0.2,1.1,1,5,6.8,4.2c13.3-1.8,19.7-2.5,26-3.6
			c0.8-0.1,1.4-0.9,1.4-1.7c-1.5-20.9,23.8-52.5,44.2-6c0.3,0.8,1.1,1.3,1.9,1.2l21.4-3c0.8-0.1,1.4-0.7,1.5-1.5
			c5-43.8,47.4-54.6,77.6-11.4c0.3,0.4,0.9,1,1.5,0.9c10.8-1.5,20.4-2.9,30.8-4.4c3.1-0.4,2.5-2.6,2.2-4.2
			c-3.6-22.7-8.7-43.3,3.1-61.8C579.5,216.7,607.8,157.3,577.4,105.2z"/>
	</g>
	<path class="st2" d="M550.3,237.9l-2.3-1.6c7.5-10.7,15-16.4,22.3-16.9c6.7-0.5,10.7,3.6,10.9,3.8l-2.1,1.9l1-1l-1,1
		c-0.1-0.1-3.3-3.3-8.7-2.9C564.1,222.7,557.1,228.1,550.3,237.9z"/>
	<g>
		<path class="st3" d="M493.8,215.1c-19.1-4.3-14.8-24.6-14.8-24.6s16.7,3.7,39.3,8.8C517.8,205.5,508.3,218.4,493.8,215.1z"/>
		<path class="st1" d="M508.5,198.5c1.2,5.3-2.1,10.7-7.4,11.9c-5.3,1.2-10.5-2.2-11.6-7.5s2.1-10.7,7.4-11.9
			S507.3,193.2,508.5,198.5z"/>
	</g>
</g>
<polyline class="st4" points="875.2,341 0,341 0,513.7 875.2,513.7 "/>
<polygon class="st2" points="460.6,320 459.6,318.9 457.3,329 464.6,329 465.2,327.8 "/>
<g id="_x36_orGFQ_9_">
	<g>
		<path class="st5" d="M380.3,135.5c-0.4,0.2-1.1,0.4-1.6,0.6c-0.3,0.1-0.3,0.5-0.1,0.7c0.3,0.2,0.6,0.4,1,0.6
			c0.2,0.1,0.3,0.4,0.1,0.6c-0.1,0.1-0.2,0.2-0.3,0.3c-0.1,0.1-0.3,0.1-0.5,0.1c-0.9-0.5-1.5-0.8-2.1-1.2c-0.2-0.1-0.4-0.1-0.6-0.1
			c-0.6,0.2-2,0.7-2.8,1c-0.3,0.1-0.3,0.5-0.1,0.7c0.9,0.7,2.4,1.8,2.4,1.9c0.1,0.1,0.3,0.1,0.4,0c0.3-0.1,1.3-0.5,2.6-0.9
			c0.2-0.1,0.4,0,0.5,0.2c0.1,0.2,0.2,0.4,0.3,0.5c0.1,0.2,0,0.5-0.2,0.5c-0.4,0.1-0.9,0.4-1.3,0.5c-0.3,0.1-0.4,0.4-0.2,0.6l1.4,1
			c0.2,0.1,0.2,0.4,0.1,0.6l-0.5,0.6c-0.1,0.2-0.4,0.2-0.5,0.1l-1.4-1.1c-0.2-0.2-0.6,0-0.6,0.3l-0.2,1.6c0,0.2-0.3,0.4-0.5,0.3
			c-0.2-0.1-0.6-0.2-0.8-0.2c-0.3-0.1-0.3-0.3-0.2-0.4c0.1-1,0.4-2.2,0.4-2.8c0-0.1,0-0.3-0.1-0.3l-2.2-1.8
			c-0.2-0.2-0.6-0.1-0.6,0.2c-0.1,0.8-0.3,2.2-0.4,2.8c0,0.1,0,0.3,0.2,0.5c0.5,0.4,1.6,1.4,2.1,1.8c0.1,0.1,0.2,0.3,0.1,0.5
			l-0.3,0.5c-0.1,0.2-0.4,0.2-0.6,0.1l-1.3-1.2c0,0-0.4-0.1-0.5,0.2c0,0.1-0.2,1.5-0.2,1.9c0,0.3-0.3,0.3-0.3,0.3
			c-0.1,0-0.8-0.1-1-0.1c-0.3-0.1-0.3-0.4-0.3-0.4l0.3-1.8c0.1-0.3-0.3-0.5-0.5-0.4c-0.4,0.2-0.9,0.4-1.3,0.6
			c-0.2,0.1-0.5,0.1-0.6-0.1c-0.1-0.2-0.1-0.4-0.2-0.6c-0.1-0.2,0.1-0.5,0.2-0.5c0.6-0.3,2-0.9,2.5-1.2c0.1-0.1,0.2-0.2,0.2-0.3
			l0.4-2.8c0-0.3-0.3-0.5-0.5-0.4c-0.8,0.3-2.2,0.9-2.7,1.1c-0.1,0-0.2,0.2-0.2,0.3l-0.5,2.6c0,0.1-0.1,0.3-0.3,0.3
			c-0.1,0-0.3,0.1-0.5,0.1c-0.3,0.1-0.5-0.2-0.5-0.4l0.3-1.4c0.1-0.3-0.2-0.5-0.5-0.4l-1.6,0.7c-0.2,0.1-0.4,0-0.5-0.2
			c-0.1-0.2-0.3-0.6-0.4-0.9c-0.1-0.4,0.3-0.5,0.3-0.5l1.5-0.6c0.3-0.1,0.3-0.5,0.1-0.7l-1.2-0.8c-0.2-0.1-0.2-0.4-0.1-0.6
			c0.1-0.2,0.3-0.4,0.4-0.5c0.1-0.2,0.4-0.2,0.5-0.1c0.7,0.5,2.3,1.7,2.4,1.8c0,0,2-0.7,3-1.1c0.3-0.1,0.3-0.5,0.1-0.7
			c-0.7-0.6-1.9-1.5-2.3-1.8c-0.1-0.1-0.2-0.1-0.3-0.1c-0.9,0.2-2.2,0.7-2.8,0.9c-0.2,0.1-0.4,0-0.5-0.2c-0.1-0.3-0.2-0.6-0.3-0.8
			c0-0.1,0-0.2,0.1-0.3c0.3-0.1,1-0.3,1.5-0.4c0.3-0.1,0.4-0.5,0.1-0.7l-1.4-1.1c-0.2-0.1-0.2-0.4-0.1-0.5c0.1-0.2,0.3-0.4,0.4-0.5
			c0.1-0.2,0.4-0.2,0.5-0.1c0.4,0.3,1.1,0.7,1.6,1.1c0.2,0.2,0.6,0,0.6-0.3c0.1-0.5,0.1-1.1,0.2-1.6c0-0.3,0.3-0.4,0.5-0.3
			c0.2,0.1,0.4,0.2,0.5,0.2c0.2,0.1,0.3,0.2,0.2,0.4c-0.1,0.7-0.2,2.3-0.2,2.8c0,0.1,0,0.2,0.1,0.3c0.4,0.3,1.5,1.2,2.2,1.8
			c0.2,0.2,0.6,0.1,0.6-0.2c0.1-0.8,0.3-2,0.4-2.6c0-0.2,0-0.4-0.2-0.6c-0.5-0.5-1.6-1.5-2.1-2c-0.1-0.1-0.2-0.3-0.1-0.5
			c0.1-0.2,0.2-0.4,0.3-0.6c0.1-0.1,0.3-0.2,0.5,0c0.3,0.3,0.8,0.7,1.2,1c0.2,0.2,0.6,0.1,0.6-0.2c0,0,0.2-1.9,0.2-1.9
			c0-0.1,0.1-0.3,0.3-0.3c0.3,0,0.6,0.1,0.9,0.1c0.3,0.1,0.2,0.4,0.2,0.4l-0.3,1.8c-0.1,0.3,0.3,0.6,0.6,0.4l1.4-0.7
			c0.2-0.1,0.5,0,0.5,0.2l0.2,0.6c0.1,0.2,0,0.4-0.2,0.5c-0.6,0.3-2,0.9-2.5,1.2c-0.2,0.1-0.3,0.3-0.3,0.5c-0.1,0.6-0.3,1.9-0.4,2.7
			c0,0.3,0.3,0.5,0.5,0.4c0.8-0.3,2-0.8,2.5-1.1c0.3-0.1,0.3-0.3,0.4-0.5c0.2-0.7,0.4-1.8,0.5-2.4c0-0.2,0.1-0.3,0.2-0.3
			c0.1-0.1,0.5-0.2,0.7-0.3c0.3-0.1,0.5,0.2,0.5,0.5l-0.3,1.4c-0.1,0.3,0.2,0.5,0.5,0.4l1.6-0.7c0.2-0.1,0.4,0,0.5,0.2l0.4,0.7
			C380.6,135.3,380.5,135.3,380.3,135.5z"/>
	</g>
</g>
<g id="_x36_orGFQ_8_">
	<g>
		<path class="st6" d="M764.1,175.1c-1.8,0.7-4.7,1.8-6.9,2.7c-1.3,0.5-1.5,2.3-0.2,3.1c1.4,0.8,2.8,1.6,4.3,2.5
			c1,0.6,1.1,1.9,0.3,2.7c-0.5,0.5-1,1-1.5,1.4c-0.5,0.5-1.4,0.6-2.1,0.3c-3.8-2.1-6.8-3.6-9.3-5.2c-0.8-0.5-1.6-0.6-2.4-0.3
			c-2.6,0.9-8.6,3.2-12.2,4.5c-1.3,0.5-1.5,2.1-0.4,3c3.8,2.9,10.5,8.1,10.7,8.3c0.4,0.4,1.5,0.4,2,0.2c1.5-0.5,5.8-2.4,11.3-4.1
			c0.8-0.2,1.6,0.1,2,0.9c0.4,0.7,0.8,1.6,1.2,2.3c0.5,0.9,0,2.1-1,2.4c-1.7,0.5-4,1.6-5.9,2.3c-1.3,0.4-1.8,1.9-0.7,2.7l6,4.6
			c0.8,0.6,0.9,1.7,0.3,2.5l-2.4,2.8c-0.6,0.7-1.7,0.8-2.4,0.2l-6-4.8c-1.1-0.8-2.6-0.2-2.8,1.2l-0.7,6.9c-0.1,1.1-1.2,1.8-2.2,1.4
			c-1.1-0.4-2.7-0.9-3.4-1.1c-1.2-0.3-1.2-1.1-1.1-2c0.6-4.6,1.6-9.8,1.8-12.3c0-0.6-0.2-1.1-0.6-1.5l-9.6-7.9
			c-1-0.8-2.6-0.2-2.8,1.1c-0.5,3.7-1.4,9.6-1.8,12.2c-0.1,0.6,0,1.5,0.9,2.1c2.3,1.8,7,6.2,9.2,8.1c0.6,0.6,0.8,1.5,0.3,2.2
			l-1.4,2.2c-0.6,0.9-1.8,1.1-2.6,0.4l-5.8-5.2c0,0-1.7-0.6-2,1.1c-0.1,0.5-0.8,6.6-1.1,8.6c-0.1,1.2-1.2,1.4-1.2,1.4
			c-0.3,0-3.4-0.3-4.3-0.5c-1.5-0.3-1.2-1.7-1.2-1.7l1.4-8c0.2-1.4-1.2-2.4-2.4-1.8c-1.8,0.8-4,1.9-5.6,2.6
			c-1.1,0.5-2.2,0.4-2.5-0.3c-0.2-0.8-0.6-1.9-0.8-2.8c-0.2-1,0.3-2.1,0.8-2.4c2.6-1.2,8.7-4.1,11.2-5.2c0.5-0.2,0.9-0.7,1-1.3
			l1.8-12.4c0.2-1.3-1.1-2.3-2.3-1.8c-3.6,1.5-9.6,4-11.8,4.9c-0.5,0.2-0.9,0.7-1,1.2l-2.3,11.4c-0.1,0.6-0.6,1.1-1.2,1.3
			c-0.7,0.2-1.5,0.4-2.4,0.6c-1.2,0.3-2.3-0.7-2.1-2l1.1-6.3c0.2-1.3-1.1-2.4-2.3-1.9l-7,2.9c-0.8,0.4-1.8,0-2.2-0.8
			c-0.4-0.8-1.4-2.5-1.8-3.8c-0.6-1.8,1.3-2.1,1.3-2.1l6.8-2.6c1.3-0.5,1.5-2.2,0.4-3l-5.3-3.6c-0.8-0.6-1-1.8-0.3-2.5
			c0.6-0.7,1.3-1.6,1.9-2.2c0.6-0.7,1.6-0.8,2.3-0.3c3,2.2,10.1,7.4,10.8,7.8c0.2,0.1,8.7-3.2,13.3-5c1.2-0.5,1.5-2.1,0.4-2.9
			c-3.1-2.4-8.4-6.6-10.3-8.1c-0.4-0.3-1-0.5-1.5-0.3c-4,1.1-9.6,2.9-12.2,3.8c-0.8,0.3-1.7-0.1-2.1-0.9c-0.6-1.2-1-2.6-1.3-3.5
			c-0.2-0.4,0-1,0.5-1.2c1.5-0.6,4.4-1.2,6.7-1.9c1.3-0.4,1.6-2.1,0.5-3l-6-4.7c-0.7-0.6-0.9-1.7-0.3-2.4c0.6-0.8,1.2-1.6,1.7-2.3
			c0.5-0.8,1.6-1,2.4-0.4c1.8,1.2,4.8,3.3,7,4.8c1.1,0.7,2.5,0.1,2.7-1.2c0.2-2.1,0.5-5,0.8-7c0.1-1.1,1.3-1.8,2.4-1.4
			c0.8,0.3,1.7,0.7,2.4,1c0.7,0.3,1.1,1,1.1,1.7c-0.2,2.9-0.8,10-1,12.5c0,0.6,0.2,1.1,0.6,1.5c1.8,1.5,6.7,5.5,9.6,7.9
			c1,0.8,2.6,0.2,2.8-1.1c0.5-3.5,1.3-9,1.7-11.6c0.1-0.8-0.1-1.9-0.7-2.5c-2.1-2-7-6.6-9.2-8.6c-0.6-0.6-0.7-1.4-0.3-2.1
			c0.5-0.8,1.1-1.7,1.5-2.5c0.3-0.6,1.4-0.8,2.3,0c1.4,1.2,3.6,3.1,5.2,4.5c1,0.9,2.7,0.3,2.8-1.1c0,0,1-8.2,1-8.2
			c0.1-0.4,0.5-1.3,1.4-1.3c1.3,0.1,2.5,0.3,4.2,0.6c1.5,0.3,1.1,1.9,1.1,1.9l-1.3,7.8c-0.2,1.4,1.2,2.4,2.4,1.8l6.1-2.9
			c1-0.5,2.1,0.1,2.4,1.1l0.7,2.5c0.2,0.8-0.2,1.7-0.9,2c-2.7,1.3-8.6,4.2-11.2,5.5c-0.8,0.4-1.3,1.3-1.4,2.1
			c-0.4,2.7-1.2,8.3-1.7,11.8c-0.2,1.3,1.1,2.3,2.4,1.8c3.4-1.4,8.7-3.7,11.1-4.7c1.2-0.5,1.4-1.3,1.6-2.1c0.7-3.1,1.7-8,2-10.4
			c0.1-0.8,0.7-1.3,1-1.5c0.6-0.4,2.1-0.8,3.1-1.1c1.2-0.4,2.4,1,2.2,2.3l-1.2,6.4c-0.2,1.3,1.1,2.4,2.3,1.9l7-2.9
			c0.8-0.3,1.8,0,2.2,0.8l1.6,3.3C765.6,174.3,764.9,174.5,764.1,175.1z"/>
	</g>
</g>
<g id="_x36_orGFQ_7_">
	<g>
		<path class="st5" d="M505.2,126.4c-0.5,0.2-1.2,0.5-1.8,0.7c-0.4,0.1-0.4,0.6-0.1,0.8c0.4,0.2,0.7,0.4,1.1,0.7
			c0.3,0.2,0.3,0.5,0.1,0.7c-0.1,0.1-0.3,0.3-0.4,0.4c-0.1,0.1-0.4,0.2-0.5,0.1c-1-0.6-1.8-1-2.5-1.4c-0.2-0.1-0.4-0.1-0.6-0.1
			c-0.7,0.2-2.3,0.8-3.2,1.2c-0.3,0.1-0.4,0.6-0.1,0.8c1,0.8,2.8,2.1,2.8,2.2c0.1,0.1,0.4,0.1,0.5,0.1c0.4-0.1,1.5-0.6,3-1.1
			c0.2-0.1,0.4,0,0.5,0.2c0.1,0.2,0.2,0.4,0.3,0.6c0.1,0.2,0,0.6-0.3,0.6c-0.4,0.1-1.1,0.4-1.6,0.6c-0.3,0.1-0.5,0.5-0.2,0.7
			l1.6,1.2c0.2,0.2,0.2,0.5,0.1,0.7l-0.6,0.8c-0.2,0.2-0.4,0.2-0.6,0.1l-1.6-1.3c-0.3-0.2-0.7-0.1-0.7,0.3l-0.2,1.8
			c0,0.3-0.3,0.5-0.6,0.4c-0.3-0.1-0.7-0.2-0.9-0.3c-0.3-0.1-0.3-0.3-0.3-0.5c0.2-1.2,0.4-2.6,0.5-3.2c0-0.1,0-0.3-0.2-0.4l-2.5-2.1
			c-0.3-0.2-0.7-0.1-0.7,0.3c-0.1,1-0.4,2.6-0.5,3.2c0,0.2,0,0.4,0.2,0.6c0.6,0.5,1.9,1.6,2.4,2.1c0.2,0.1,0.2,0.4,0.1,0.6l-0.4,0.6
			c-0.1,0.2-0.5,0.3-0.7,0.1l-1.5-1.4c0,0-0.4-0.2-0.5,0.3c0,0.1-0.2,1.7-0.3,2.3c0,0.3-0.3,0.4-0.3,0.4c-0.1,0-0.9-0.1-1.1-0.1
			c-0.4-0.1-0.3-0.5-0.3-0.5l0.4-2.1c0.1-0.4-0.3-0.6-0.6-0.5c-0.5,0.2-1.1,0.5-1.5,0.7c-0.3,0.1-0.6,0.1-0.7-0.1
			c-0.1-0.2-0.1-0.5-0.2-0.8c-0.1-0.3,0.1-0.6,0.2-0.6c0.7-0.3,2.3-1.1,3-1.4c0.1-0.1,0.2-0.2,0.3-0.3l0.5-3.3
			c0.1-0.3-0.3-0.6-0.6-0.5c-0.9,0.4-2.5,1.1-3.1,1.3c-0.1,0.1-0.2,0.2-0.3,0.3l-0.6,3c0,0.2-0.2,0.3-0.3,0.3
			c-0.2,0-0.4,0.1-0.6,0.2c-0.3,0.1-0.6-0.2-0.6-0.5l0.3-1.7c0.1-0.4-0.3-0.6-0.6-0.5l-1.9,0.8c-0.2,0.1-0.5,0-0.6-0.2
			c-0.1-0.2-0.4-0.7-0.5-1c-0.2-0.5,0.3-0.6,0.3-0.6l1.8-0.7c0.3-0.1,0.4-0.6,0.1-0.8l-1.4-1c-0.2-0.2-0.3-0.5-0.1-0.7
			c0.2-0.2,0.4-0.4,0.5-0.6c0.2-0.2,0.4-0.2,0.6-0.1c0.8,0.6,2.7,2,2.8,2.1c0,0,2.3-0.8,3.5-1.3c0.3-0.1,0.4-0.6,0.1-0.8
			c-0.8-0.6-2.2-1.7-2.7-2.1c-0.1-0.1-0.3-0.1-0.4-0.1c-1.1,0.3-2.5,0.8-3.2,1c-0.2,0.1-0.4,0-0.5-0.2c-0.2-0.3-0.3-0.7-0.3-0.9
			c0-0.1,0-0.3,0.1-0.3c0.4-0.2,1.2-0.3,1.8-0.5c0.3-0.1,0.4-0.6,0.1-0.8l-1.6-1.2c-0.2-0.2-0.2-0.4-0.1-0.6
			c0.2-0.2,0.3-0.4,0.4-0.6c0.1-0.2,0.4-0.3,0.6-0.1c0.5,0.3,1.3,0.9,1.8,1.3c0.3,0.2,0.7,0,0.7-0.3c0.1-0.6,0.1-1.3,0.2-1.9
			c0-0.3,0.3-0.5,0.6-0.4c0.2,0.1,0.5,0.2,0.6,0.3c0.2,0.1,0.3,0.3,0.3,0.5c-0.1,0.8-0.2,2.6-0.3,3.3c0,0.1,0,0.3,0.2,0.4
			c0.5,0.4,1.8,1.4,2.5,2.1c0.3,0.2,0.7,0.1,0.7-0.3c0.1-0.9,0.3-2.4,0.4-3.1c0-0.2,0-0.5-0.2-0.7c-0.5-0.5-1.9-1.7-2.4-2.3
			c-0.2-0.1-0.2-0.4-0.1-0.6c0.1-0.2,0.3-0.5,0.4-0.7c0.1-0.1,0.4-0.2,0.6,0c0.4,0.3,0.9,0.8,1.4,1.2c0.3,0.2,0.7,0.1,0.7-0.3
			c0,0,0.3-2.2,0.3-2.2c0-0.1,0.1-0.4,0.4-0.3c0.3,0,0.7,0.1,1.1,0.2c0.4,0.1,0.3,0.5,0.3,0.5l-0.3,2.1c-0.1,0.4,0.3,0.6,0.6,0.5
			l1.6-0.8c0.3-0.1,0.6,0,0.6,0.3l0.2,0.7c0.1,0.2,0,0.4-0.2,0.5c-0.7,0.3-2.3,1.1-3,1.4c-0.2,0.1-0.4,0.4-0.4,0.6
			c-0.1,0.7-0.3,2.2-0.4,3.1c0,0.3,0.3,0.6,0.6,0.5c0.9-0.4,2.3-1,2.9-1.2c0.3-0.1,0.4-0.3,0.4-0.6c0.2-0.8,0.4-2.1,0.5-2.8
			c0-0.2,0.2-0.3,0.3-0.4c0.2-0.1,0.6-0.2,0.8-0.3c0.3-0.1,0.6,0.3,0.6,0.6l-0.3,1.7c-0.1,0.4,0.3,0.6,0.6,0.5l1.8-0.8
			c0.2-0.1,0.5,0,0.6,0.2l0.4,0.9C505.6,126.2,505.4,126.2,505.2,126.4z"/>
	</g>
</g>
<g id="_x36_orGFQ_6_">
	<g>
		<path class="st7" d="M341.5,178.5c-0.4,0.2-1.1,0.4-1.6,0.6c-0.3,0.1-0.3,0.6-0.1,0.7c0.3,0.2,0.7,0.4,1,0.6
			c0.2,0.1,0.3,0.5,0.1,0.6c-0.1,0.1-0.2,0.2-0.3,0.3c-0.1,0.1-0.3,0.2-0.5,0.1c-0.9-0.5-1.6-0.9-2.2-1.2c-0.2-0.1-0.4-0.1-0.6-0.1
			c-0.6,0.2-2,0.8-2.9,1.1c-0.3,0.1-0.4,0.5-0.1,0.7c0.9,0.7,2.5,1.9,2.5,2c0.1,0.1,0.3,0.1,0.5,0c0.4-0.1,1.4-0.6,2.7-1
			c0.2-0.1,0.4,0,0.5,0.2c0.1,0.2,0.2,0.4,0.3,0.6c0.1,0.2,0,0.5-0.2,0.6c-0.4,0.1-0.9,0.4-1.4,0.5c-0.3,0.1-0.4,0.4-0.2,0.6
			l1.4,1.1c0.2,0.1,0.2,0.4,0.1,0.6l-0.6,0.7c-0.1,0.2-0.4,0.2-0.6,0.1l-1.4-1.1c-0.3-0.2-0.6,0-0.7,0.3l-0.2,1.6
			c0,0.3-0.3,0.4-0.5,0.3c-0.3-0.1-0.6-0.2-0.8-0.2c-0.3-0.1-0.3-0.3-0.3-0.5c0.1-1.1,0.4-2.3,0.4-2.9c0-0.1,0-0.3-0.1-0.3l-2.3-1.9
			c-0.2-0.2-0.6-0.1-0.7,0.3c-0.1,0.9-0.3,2.3-0.4,2.9c0,0.1,0,0.4,0.2,0.5c0.6,0.4,1.7,1.5,2.2,1.9c0.2,0.1,0.2,0.4,0.1,0.5
			l-0.3,0.5c-0.1,0.2-0.4,0.3-0.6,0.1l-1.4-1.2c0,0-0.4-0.2-0.5,0.3c0,0.1-0.2,1.6-0.3,2c0,0.3-0.3,0.3-0.3,0.3
			c-0.1,0-0.8-0.1-1-0.1c-0.3-0.1-0.3-0.4-0.3-0.4l0.3-1.9c0.1-0.3-0.3-0.6-0.6-0.4c-0.4,0.2-1,0.4-1.3,0.6
			c-0.3,0.1-0.5,0.1-0.6-0.1c-0.1-0.2-0.1-0.5-0.2-0.7c-0.1-0.2,0.1-0.5,0.2-0.6c0.6-0.3,2.1-1,2.7-1.2c0.1-0.1,0.2-0.2,0.2-0.3
			l0.4-2.9c0-0.3-0.3-0.6-0.6-0.4c-0.8,0.4-2.3,0.9-2.8,1.2c-0.1,0.1-0.2,0.2-0.2,0.3l-0.5,2.7c0,0.2-0.1,0.3-0.3,0.3
			c-0.2,0-0.4,0.1-0.6,0.1c-0.3,0.1-0.6-0.2-0.5-0.5l0.3-1.5c0.1-0.3-0.3-0.6-0.6-0.4l-1.7,0.7c-0.2,0.1-0.4,0-0.5-0.2
			c-0.1-0.2-0.3-0.6-0.4-0.9c-0.2-0.4,0.3-0.5,0.3-0.5l1.6-0.6c0.3-0.1,0.4-0.5,0.1-0.7l-1.3-0.9c-0.2-0.1-0.2-0.4-0.1-0.6
			c0.1-0.2,0.3-0.4,0.5-0.5c0.1-0.2,0.4-0.2,0.5-0.1c0.7,0.5,2.4,1.8,2.5,1.8c0,0,2.1-0.8,3.2-1.2c0.3-0.1,0.4-0.5,0.1-0.7
			c-0.7-0.6-2-1.6-2.4-1.9c-0.1-0.1-0.2-0.1-0.4-0.1c-1,0.3-2.3,0.7-2.9,0.9c-0.2,0.1-0.4,0-0.5-0.2c-0.1-0.3-0.2-0.6-0.3-0.8
			c0-0.1,0-0.2,0.1-0.3c0.4-0.1,1-0.3,1.6-0.5c0.3-0.1,0.4-0.5,0.1-0.7l-1.4-1.1c-0.2-0.1-0.2-0.4-0.1-0.6c0.1-0.2,0.3-0.4,0.4-0.5
			c0.1-0.2,0.4-0.2,0.6-0.1c0.4,0.3,1.1,0.8,1.6,1.1c0.3,0.2,0.6,0,0.6-0.3c0.1-0.5,0.1-1.2,0.2-1.7c0-0.3,0.3-0.4,0.6-0.3
			c0.2,0.1,0.4,0.2,0.6,0.2c0.2,0.1,0.3,0.2,0.3,0.4c-0.1,0.7-0.2,2.4-0.2,3c0,0.1,0,0.3,0.1,0.3c0.4,0.3,1.6,1.3,2.3,1.9
			c0.2,0.2,0.6,0.1,0.7-0.3c0.1-0.8,0.3-2.1,0.4-2.8c0-0.2,0-0.5-0.2-0.6c-0.5-0.5-1.7-1.6-2.2-2c-0.1-0.1-0.2-0.3-0.1-0.5
			c0.1-0.2,0.2-0.4,0.4-0.6c0.1-0.1,0.3-0.2,0.5,0c0.3,0.3,0.8,0.7,1.2,1.1c0.2,0.2,0.6,0.1,0.7-0.3c0,0,0.2-1.9,0.2-1.9
			c0-0.1,0.1-0.3,0.3-0.3c0.3,0,0.6,0.1,1,0.1c0.3,0.1,0.2,0.4,0.2,0.4l-0.3,1.9c-0.1,0.3,0.3,0.6,0.6,0.4l1.4-0.7
			c0.2-0.1,0.5,0,0.6,0.3l0.2,0.6c0.1,0.2,0,0.4-0.2,0.5c-0.6,0.3-2,1-2.7,1.3c-0.2,0.1-0.3,0.3-0.3,0.5c-0.1,0.6-0.3,2-0.4,2.8
			c0,0.3,0.3,0.6,0.6,0.4c0.8-0.3,2.1-0.9,2.6-1.1c0.3-0.1,0.3-0.3,0.4-0.5c0.2-0.7,0.4-1.9,0.5-2.5c0-0.2,0.2-0.3,0.2-0.4
			c0.1-0.1,0.5-0.2,0.7-0.3c0.3-0.1,0.6,0.2,0.5,0.5l-0.3,1.5c-0.1,0.3,0.3,0.6,0.6,0.4l1.6-0.7c0.2-0.1,0.4,0,0.5,0.2l0.4,0.8
			C341.9,178.3,341.7,178.3,341.5,178.5z"/>
	</g>
</g>
<g id="_x36_orGFQ_5_">
	<g>
		<path class="st6" d="M271.6,206.9c-0.6,0.2-1.5,0.6-2.2,0.9c-0.4,0.2-0.5,0.7-0.1,1c0.5,0.3,0.9,0.5,1.4,0.8
			c0.3,0.2,0.4,0.6,0.1,0.9c-0.2,0.1-0.3,0.3-0.5,0.5c-0.2,0.2-0.4,0.2-0.7,0.1c-1.2-0.7-2.1-1.2-3-1.7c-0.3-0.2-0.5-0.2-0.8-0.1
			c-0.8,0.3-2.7,1-3.9,1.4c-0.4,0.2-0.5,0.7-0.1,0.9c1.2,0.9,3.3,2.6,3.4,2.6c0.1,0.1,0.5,0.1,0.6,0.1c0.5-0.2,1.9-0.8,3.6-1.3
			c0.3-0.1,0.5,0,0.6,0.3c0.1,0.2,0.3,0.5,0.4,0.7c0.2,0.3,0,0.7-0.3,0.8c-0.5,0.2-1.3,0.5-1.9,0.7c-0.4,0.1-0.6,0.6-0.2,0.9
			l1.9,1.5c0.2,0.2,0.3,0.5,0.1,0.8l-0.8,0.9c-0.2,0.2-0.5,0.3-0.8,0.1l-1.9-1.5c-0.3-0.3-0.8-0.1-0.9,0.4l-0.2,2.2
			c0,0.3-0.4,0.6-0.7,0.5c-0.3-0.1-0.9-0.3-1.1-0.3c-0.4-0.1-0.4-0.4-0.3-0.6c0.2-1.4,0.5-3.1,0.6-3.9c0-0.2-0.1-0.4-0.2-0.5
			l-3.1-2.5c-0.3-0.3-0.8-0.1-0.9,0.3c-0.2,1.2-0.4,3.1-0.6,3.9c0,0.2,0,0.5,0.3,0.7c0.7,0.6,2.2,2,2.9,2.6c0.2,0.2,0.2,0.5,0.1,0.7
			l-0.4,0.7c-0.2,0.3-0.6,0.3-0.8,0.1l-1.9-1.6c0,0-0.5-0.2-0.6,0.3c0,0.2-0.3,2.1-0.3,2.7c0,0.4-0.4,0.4-0.4,0.5
			c-0.1,0-1.1-0.1-1.4-0.2c-0.5-0.1-0.4-0.5-0.4-0.5l0.5-2.6c0.1-0.4-0.4-0.8-0.8-0.6c-0.6,0.3-1.3,0.6-1.8,0.8
			c-0.3,0.2-0.7,0.1-0.8-0.1c-0.1-0.3-0.2-0.6-0.2-0.9c-0.1-0.3,0.1-0.7,0.3-0.8c0.8-0.4,2.8-1.3,3.6-1.7c0.2-0.1,0.3-0.2,0.3-0.4
			l0.6-4c0.1-0.4-0.4-0.7-0.7-0.6c-1.1,0.5-3.1,1.3-3.8,1.6c-0.2,0.1-0.3,0.2-0.3,0.4l-0.7,3.6c0,0.2-0.2,0.4-0.4,0.4
			c-0.2,0.1-0.5,0.1-0.8,0.2c-0.4,0.1-0.7-0.2-0.7-0.6l0.4-2c0.1-0.4-0.3-0.8-0.7-0.6l-2.2,0.9c-0.3,0.1-0.6,0-0.7-0.3
			c-0.1-0.3-0.4-0.8-0.6-1.2c-0.2-0.6,0.4-0.7,0.4-0.7l2.2-0.8c0.4-0.2,0.5-0.7,0.1-1l-1.7-1.2c-0.3-0.2-0.3-0.6-0.1-0.8
			c0.2-0.2,0.4-0.5,0.6-0.7c0.2-0.2,0.5-0.3,0.7-0.1c0.9,0.7,3.2,2.4,3.4,2.5c0,0,2.8-1,4.2-1.6c0.4-0.2,0.5-0.7,0.1-0.9
			c-1-0.8-2.7-2.1-3.3-2.6c-0.1-0.1-0.3-0.1-0.5-0.1c-1.3,0.3-3,0.9-3.9,1.2c-0.3,0.1-0.5,0-0.7-0.3c-0.2-0.4-0.3-0.8-0.4-1.1
			c-0.1-0.1,0-0.3,0.2-0.4c0.5-0.2,1.4-0.4,2.1-0.6c0.4-0.1,0.5-0.7,0.2-0.9l-1.9-1.5c-0.2-0.2-0.3-0.5-0.1-0.8
			c0.2-0.2,0.4-0.5,0.5-0.7c0.2-0.2,0.5-0.3,0.7-0.1c0.6,0.4,1.5,1,2.2,1.5c0.3,0.2,0.8,0,0.8-0.4c0.1-0.7,0.2-1.6,0.2-2.2
			c0-0.4,0.4-0.6,0.8-0.4c0.3,0.1,0.5,0.2,0.8,0.3c0.2,0.1,0.4,0.3,0.3,0.5c-0.1,0.9-0.3,3.2-0.3,4c0,0.2,0.1,0.3,0.2,0.5
			c0.6,0.5,2.1,1.7,3.1,2.5c0.3,0.3,0.8,0.1,0.9-0.3c0.2-1.1,0.4-2.8,0.5-3.7c0-0.3,0-0.6-0.2-0.8c-0.7-0.6-2.2-2.1-2.9-2.7
			c-0.2-0.2-0.2-0.5-0.1-0.7c0.1-0.2,0.3-0.5,0.5-0.8c0.1-0.2,0.4-0.2,0.7,0c0.5,0.4,1.1,1,1.7,1.4c0.3,0.3,0.8,0.1,0.9-0.3
			c0,0,0.3-2.6,0.3-2.6c0-0.1,0.2-0.4,0.4-0.4c0.4,0,0.8,0.1,1.3,0.2c0.5,0.1,0.3,0.6,0.3,0.6l-0.4,2.5c-0.1,0.4,0.4,0.8,0.8,0.6
			l1.9-0.9c0.3-0.1,0.7,0,0.8,0.3l0.2,0.8c0.1,0.3,0,0.5-0.3,0.6c-0.8,0.4-2.7,1.3-3.6,1.7c-0.2,0.1-0.4,0.4-0.5,0.7
			c-0.1,0.9-0.4,2.6-0.5,3.8c-0.1,0.4,0.4,0.7,0.7,0.6c1.1-0.4,2.8-1.2,3.5-1.5c0.4-0.2,0.4-0.4,0.5-0.7c0.2-1,0.5-2.6,0.6-3.3
			c0-0.2,0.2-0.4,0.3-0.5c0.2-0.1,0.7-0.3,1-0.4c0.4-0.1,0.8,0.3,0.7,0.7l-0.4,2c-0.1,0.4,0.3,0.8,0.7,0.6l2.2-0.9
			c0.3-0.1,0.6,0,0.7,0.3l0.5,1C272.1,206.6,271.9,206.7,271.6,206.9z"/>
	</g>
</g>
<g id="_x36_orGFQ_4_">
	<g>
		<path class="st6" d="M445.9,102.3c-0.4,0.2-1,0.4-1.5,0.6c-0.3,0.1-0.3,0.5,0,0.7c0.3,0.2,0.6,0.3,0.9,0.5
			c0.2,0.1,0.2,0.4,0.1,0.6c-0.1,0.1-0.2,0.2-0.3,0.3c-0.1,0.1-0.3,0.1-0.4,0.1c-0.8-0.5-1.4-0.8-2-1.1c-0.2-0.1-0.4-0.1-0.5-0.1
			c-0.6,0.2-1.8,0.7-2.6,1c-0.3,0.1-0.3,0.5-0.1,0.6c0.8,0.6,2.2,1.7,2.3,1.8c0.1,0.1,0.3,0.1,0.4,0c0.3-0.1,1.2-0.5,2.4-0.9
			c0.2-0.1,0.3,0,0.4,0.2c0.1,0.2,0.2,0.3,0.3,0.5c0.1,0.2,0,0.4-0.2,0.5c-0.4,0.1-0.8,0.3-1.3,0.5c-0.3,0.1-0.4,0.4-0.2,0.6l1.3,1
			c0.2,0.1,0.2,0.4,0.1,0.5l-0.5,0.6c-0.1,0.1-0.4,0.2-0.5,0l-1.3-1c-0.2-0.2-0.6,0-0.6,0.2l-0.2,1.5c0,0.2-0.3,0.4-0.5,0.3
			c-0.2-0.1-0.6-0.2-0.7-0.2c-0.3-0.1-0.3-0.2-0.2-0.4c0.1-1,0.3-2.1,0.4-2.6c0-0.1,0-0.2-0.1-0.3l-2-1.7c-0.2-0.2-0.5-0.1-0.6,0.2
			c-0.1,0.8-0.3,2-0.4,2.6c0,0.1,0,0.3,0.2,0.5c0.5,0.4,1.5,1.3,2,1.7c0.1,0.1,0.2,0.3,0.1,0.5l-0.3,0.5c-0.1,0.2-0.4,0.2-0.6,0.1
			l-1.2-1.1c0,0-0.4-0.1-0.4,0.2c0,0.1-0.2,1.4-0.2,1.8c0,0.2-0.3,0.3-0.3,0.3c-0.1,0-0.7-0.1-0.9-0.1c-0.3-0.1-0.3-0.4-0.3-0.4
			l0.3-1.7c0-0.3-0.2-0.5-0.5-0.4c-0.4,0.2-0.9,0.4-1.2,0.6c-0.2,0.1-0.5,0.1-0.5-0.1c-0.1-0.2-0.1-0.4-0.2-0.6
			c-0.1-0.2,0.1-0.5,0.2-0.5c0.6-0.3,1.9-0.9,2.4-1.1c0.1-0.1,0.2-0.2,0.2-0.3l0.4-2.6c0-0.3-0.2-0.5-0.5-0.4c-0.8,0.3-2,0.8-2.5,1
			c-0.1,0-0.2,0.1-0.2,0.3l-0.5,2.4c0,0.1-0.1,0.2-0.3,0.3c-0.1,0-0.3,0.1-0.5,0.1c-0.3,0.1-0.5-0.2-0.4-0.4l0.2-1.3
			c0.1-0.3-0.2-0.5-0.5-0.4l-1.5,0.6c-0.2,0.1-0.4,0-0.5-0.2c-0.1-0.2-0.3-0.5-0.4-0.8c-0.1-0.4,0.3-0.4,0.3-0.4l1.4-0.6
			c0.3-0.1,0.3-0.5,0.1-0.6l-1.1-0.8c-0.2-0.1-0.2-0.4-0.1-0.5c0.1-0.2,0.3-0.3,0.4-0.5c0.1-0.1,0.3-0.2,0.5-0.1
			c0.6,0.5,2.1,1.6,2.3,1.7c0,0,1.8-0.7,2.8-1.1c0.3-0.1,0.3-0.4,0.1-0.6c-0.7-0.5-1.8-1.4-2.2-1.7c-0.1-0.1-0.2-0.1-0.3-0.1
			c-0.9,0.2-2,0.6-2.6,0.8c-0.2,0.1-0.4,0-0.4-0.2c-0.1-0.3-0.2-0.6-0.3-0.7c0-0.1,0-0.2,0.1-0.3c0.3-0.1,0.9-0.3,1.4-0.4
			c0.3-0.1,0.3-0.5,0.1-0.6l-1.3-1c-0.2-0.1-0.2-0.4-0.1-0.5c0.1-0.2,0.3-0.3,0.4-0.5c0.1-0.2,0.3-0.2,0.5-0.1c0.4,0.3,1,0.7,1.5,1
			c0.2,0.2,0.5,0,0.6-0.3c0-0.5,0.1-1.1,0.2-1.5c0-0.2,0.3-0.4,0.5-0.3c0.2,0.1,0.4,0.1,0.5,0.2c0.1,0.1,0.2,0.2,0.2,0.4
			c-0.1,0.6-0.2,2.1-0.2,2.7c0,0.1,0,0.2,0.1,0.3c0.4,0.3,1.4,1.2,2,1.7c0.2,0.2,0.5,0,0.6-0.2c0.1-0.7,0.3-1.9,0.4-2.5
			c0-0.2,0-0.4-0.2-0.5c-0.4-0.4-1.5-1.4-1.9-1.8c-0.1-0.1-0.2-0.3-0.1-0.5c0.1-0.2,0.2-0.4,0.3-0.5c0.1-0.1,0.3-0.2,0.5,0
			c0.3,0.3,0.8,0.7,1.1,1c0.2,0.2,0.6,0.1,0.6-0.2c0,0,0.2-1.7,0.2-1.7c0-0.1,0.1-0.3,0.3-0.3c0.3,0,0.5,0.1,0.9,0.1
			c0.3,0.1,0.2,0.4,0.2,0.4l-0.3,1.7c0,0.3,0.3,0.5,0.5,0.4l1.3-0.6c0.2-0.1,0.4,0,0.5,0.2l0.2,0.5c0,0.2,0,0.4-0.2,0.4
			c-0.6,0.3-1.8,0.9-2.4,1.2c-0.2,0.1-0.3,0.3-0.3,0.5c-0.1,0.6-0.3,1.8-0.4,2.5c0,0.3,0.2,0.5,0.5,0.4c0.7-0.3,1.8-0.8,2.3-1
			c0.3-0.1,0.3-0.3,0.3-0.5c0.2-0.6,0.4-1.7,0.4-2.2c0-0.2,0.1-0.3,0.2-0.3c0.1-0.1,0.4-0.2,0.7-0.2c0.3-0.1,0.5,0.2,0.5,0.5
			l-0.2,1.3c-0.1,0.3,0.2,0.5,0.5,0.4l1.5-0.6c0.2-0.1,0.4,0,0.5,0.2l0.3,0.7C446.2,102.1,446.1,102.1,445.9,102.3z"/>
	</g>
</g>
<g id="_x36_orGFQ_3_">
	<g>
		<path class="st5" d="M662.5,117.3c-0.9,0.4-2.3,0.9-3.4,1.3c-0.7,0.3-0.7,1.2-0.1,1.5c0.7,0.4,1.4,0.8,2.1,1.2
			c0.5,0.3,0.5,0.9,0.2,1.3c-0.2,0.2-0.5,0.5-0.7,0.7c-0.3,0.3-0.7,0.3-1,0.1c-1.9-1.1-3.3-1.8-4.6-2.6c-0.4-0.2-0.8-0.3-1.2-0.1
			c-1.3,0.4-4.3,1.6-6,2.2c-0.6,0.2-0.7,1.1-0.2,1.5c1.9,1.4,5.2,4,5.3,4.1c0.2,0.2,0.7,0.2,1,0.1c0.8-0.3,2.9-1.2,5.6-2
			c0.4-0.1,0.8,0.1,1,0.4c0.2,0.4,0.4,0.8,0.6,1.2c0.2,0.5,0,1-0.5,1.2c-0.8,0.3-2,0.8-2.9,1.1c-0.7,0.2-0.9,0.9-0.4,1.3l3,2.3
			c0.4,0.3,0.4,0.9,0.1,1.2l-1.2,1.4c-0.3,0.3-0.8,0.4-1.2,0.1l-2.9-2.4c-0.5-0.4-1.3-0.1-1.4,0.6l-0.4,3.4
			c-0.1,0.5-0.6,0.9-1.1,0.7c-0.5-0.2-1.3-0.4-1.7-0.5c-0.6-0.2-0.6-0.6-0.5-1c0.3-2.3,0.8-4.8,0.9-6.1c0-0.3-0.1-0.5-0.3-0.7
			l-4.8-3.9c-0.5-0.4-1.3-0.1-1.4,0.5c-0.3,1.8-0.7,4.8-0.9,6c0,0.3,0,0.7,0.4,1.1c1.1,0.9,3.5,3,4.6,4c0.3,0.3,0.4,0.7,0.2,1.1
			l-0.7,1.1c-0.3,0.4-0.9,0.5-1.3,0.2l-2.9-2.6c0,0-0.8-0.3-1,0.5c-0.1,0.3-0.4,3.2-0.5,4.2c-0.1,0.6-0.6,0.7-0.6,0.7
			c-0.1,0-1.7-0.2-2.1-0.2c-0.7-0.1-0.6-0.8-0.6-0.8l0.7-4c0.1-0.7-0.6-1.2-1.2-0.9c-0.9,0.4-2,0.9-2.8,1.3
			c-0.5,0.2-1.1,0.2-1.2-0.2c-0.1-0.4-0.3-1-0.4-1.4c-0.1-0.5,0.1-1.1,0.4-1.2c1.3-0.6,4.3-2,5.5-2.6c0.3-0.1,0.4-0.4,0.5-0.6
			l0.9-6.2c0.1-0.7-0.6-1.2-1.2-0.9c-1.8,0.7-4.8,2-5.8,2.4c-0.3,0.1-0.5,0.3-0.5,0.6l-1.1,5.6c-0.1,0.3-0.3,0.6-0.6,0.7
			c-0.3,0.1-0.8,0.2-1.2,0.3c-0.6,0.2-1.2-0.4-1-1l0.6-3.1c0.1-0.7-0.5-1.2-1.2-0.9l-3.5,1.4c-0.4,0.2-0.9,0-1.1-0.4
			c-0.2-0.4-0.7-1.2-0.9-1.9c-0.3-0.9,0.6-1,0.6-1l3.4-1.3c0.6-0.2,0.7-1.1,0.2-1.5l-2.6-1.8c-0.4-0.3-0.5-0.9-0.2-1.3
			c0.3-0.4,0.7-0.8,0.9-1.1c0.3-0.3,0.8-0.4,1.1-0.1c1.5,1.1,5,3.7,5.3,3.8c0.1,0,4.3-1.6,6.6-2.5c0.6-0.2,0.7-1,0.2-1.5
			c-1.5-1.2-4.2-3.3-5.1-4c-0.2-0.2-0.5-0.2-0.7-0.2c-2,0.5-4.7,1.5-6,1.9c-0.4,0.1-0.8-0.1-1-0.4c-0.3-0.6-0.5-1.3-0.7-1.7
			c-0.1-0.2,0-0.5,0.3-0.6c0.7-0.3,2.2-0.6,3.3-1c0.7-0.2,0.8-1.1,0.3-1.5l-3-2.3c-0.4-0.3-0.4-0.8-0.1-1.2c0.3-0.4,0.6-0.8,0.8-1.1
			c0.3-0.4,0.8-0.5,1.2-0.2c0.9,0.6,2.4,1.6,3.4,2.4c0.5,0.4,1.3,0,1.3-0.6c0.1-1.1,0.3-2.5,0.4-3.5c0.1-0.6,0.6-0.9,1.2-0.7
			c0.4,0.2,0.8,0.3,1.2,0.5c0.3,0.1,0.6,0.5,0.5,0.8c-0.1,1.4-0.4,4.9-0.5,6.2c0,0.3,0.1,0.5,0.3,0.7c0.9,0.7,3.3,2.7,4.8,3.9
			c0.5,0.4,1.3,0.1,1.4-0.5c0.3-1.7,0.7-4.4,0.8-5.7c0.1-0.4-0.1-0.9-0.4-1.2c-1-1-3.5-3.3-4.5-4.3c-0.3-0.3-0.4-0.7-0.1-1.1
			c0.2-0.4,0.5-0.8,0.8-1.2c0.2-0.3,0.7-0.4,1.1,0c0.7,0.6,1.8,1.5,2.6,2.2c0.5,0.4,1.3,0.1,1.4-0.5c0,0,0.5-4,0.5-4.1
			c0-0.2,0.3-0.7,0.7-0.6c0.6,0.1,1.2,0.2,2.1,0.3c0.7,0.1,0.5,0.9,0.5,0.9l-0.6,3.9c-0.1,0.7,0.6,1.2,1.2,0.9l3-1.5
			c0.5-0.2,1,0,1.2,0.5l0.4,1.2c0.1,0.4-0.1,0.8-0.4,1c-1.3,0.6-4.3,2.1-5.5,2.7c-0.4,0.2-0.7,0.7-0.7,1.1c-0.2,1.3-0.6,4.1-0.8,5.9
			c-0.1,0.7,0.6,1.2,1.2,0.9c1.7-0.7,4.3-1.8,5.5-2.3c0.6-0.2,0.7-0.6,0.8-1.1c0.4-1.5,0.8-4,1-5.2c0.1-0.4,0.3-0.6,0.5-0.7
			c0.3-0.2,1-0.4,1.5-0.6c0.6-0.2,1.2,0.5,1.1,1.1l-0.6,3.1c-0.1,0.7,0.5,1.2,1.2,0.9l3.4-1.4c0.4-0.2,0.9,0,1.1,0.4l0.8,1.6
			C663.2,116.9,662.9,117,662.5,117.3z"/>
	</g>
</g>
<g id="_x36_orGFQ_2_">
	<g>
		<linearGradient id="SVGID_1_" gradientUnits="userSpaceOnUse" x1="170.8202" y1="162.918" x2="221.1574" y2="162.918">
			<stop  offset="1" style="stop-color:#ABDFF7"/>
			<stop  offset="1" style="stop-color:#1C9FDA"/>
		</linearGradient>
		<path class="st8" d="M220.4,155.5c-1.2,0.5-2.9,1.2-4.3,1.7c-0.8,0.3-0.9,1.5-0.1,1.9c0.9,0.5,1.8,1,2.7,1.6
			c0.6,0.4,0.7,1.2,0.2,1.7c-0.3,0.3-0.6,0.6-0.9,0.9c-0.3,0.3-0.9,0.4-1.3,0.2c-2.4-1.4-4.3-2.3-5.9-3.3c-0.5-0.3-1-0.4-1.5-0.2
			c-1.7,0.6-5.4,2-7.7,2.9c-0.8,0.3-0.9,1.4-0.3,1.9c2.4,1.8,6.6,5.1,6.8,5.2c0.3,0.2,0.9,0.2,1.2,0.1c1-0.3,3.7-1.5,7.2-2.6
			c0.5-0.2,1,0.1,1.3,0.5c0.2,0.5,0.5,1,0.8,1.5c0.3,0.6,0,1.3-0.6,1.5c-1.1,0.3-2.5,1-3.8,1.4c-0.8,0.3-1.2,1.2-0.5,1.7l3.8,2.9
			c0.5,0.4,0.6,1.1,0.2,1.6l-1.5,1.8c-0.4,0.4-1,0.5-1.5,0.1l-3.8-3c-0.7-0.5-1.7-0.1-1.8,0.7l-0.5,4.3c-0.1,0.7-0.8,1.1-1.4,0.9
			c-0.7-0.2-1.7-0.6-2.1-0.7c-0.8-0.2-0.7-0.7-0.7-1.2c0.4-2.9,1-6.2,1.1-7.7c0-0.4-0.1-0.7-0.4-0.9l-6.1-5
			c-0.7-0.5-1.6-0.2-1.8,0.7c-0.3,2.3-0.9,6.1-1.1,7.7c-0.1,0.4,0,0.9,0.5,1.4c1.5,1.2,4.4,3.9,5.8,5.1c0.4,0.4,0.5,0.9,0.2,1.4
			l-0.9,1.4c-0.4,0.6-1.1,0.7-1.6,0.2l-3.7-3.3c0,0-1.1-0.4-1.3,0.7c-0.1,0.3-0.5,4.1-0.7,5.4c-0.1,0.7-0.8,0.9-0.8,0.9
			c-0.2,0-2.1-0.2-2.7-0.3c-0.9-0.2-0.8-1.1-0.8-1.1l0.9-5.1c0.1-0.9-0.7-1.5-1.5-1.2c-1.1,0.5-2.5,1.2-3.6,1.7
			c-0.7,0.3-1.4,0.3-1.6-0.2c-0.2-0.5-0.3-1.2-0.5-1.8c-0.2-0.6,0.2-1.3,0.5-1.5c1.7-0.8,5.5-2.6,7.1-3.3c0.3-0.2,0.6-0.5,0.6-0.8
			l1.1-7.9c0.1-0.8-0.7-1.5-1.5-1.2c-2.3,0.9-6.1,2.5-7.5,3.1c-0.3,0.1-0.6,0.4-0.6,0.8l-1.5,7.2c-0.1,0.4-0.4,0.7-0.8,0.8
			c-0.4,0.1-1,0.3-1.5,0.4c-0.8,0.2-1.5-0.5-1.3-1.2l0.7-4c0.2-0.8-0.7-1.5-1.5-1.2l-4.4,1.8c-0.5,0.2-1.1,0-1.4-0.5
			c-0.2-0.5-0.9-1.6-1.2-2.4c-0.4-1.2,0.8-1.3,0.8-1.3l4.3-1.7c0.8-0.3,0.9-1.4,0.2-1.9l-3.4-2.3c-0.5-0.4-0.6-1.1-0.2-1.6
			c0.4-0.5,0.8-1,1.2-1.4c0.4-0.4,1-0.5,1.5-0.2c1.9,1.4,6.4,4.7,6.8,4.9c0.1,0.1,5.5-2,8.4-3.2c0.8-0.3,0.9-1.3,0.3-1.9
			c-2-1.5-5.3-4.2-6.5-5.1c-0.3-0.2-0.6-0.3-0.9-0.2c-2.5,0.7-6.1,1.9-7.7,2.4c-0.5,0.2-1.1-0.1-1.3-0.6c-0.4-0.8-0.6-1.6-0.8-2.2
			c-0.1-0.3,0-0.7,0.3-0.8c0.9-0.4,2.8-0.8,4.2-1.2c0.8-0.3,1-1.3,0.3-1.9l-3.8-3c-0.5-0.4-0.6-1-0.2-1.5c0.4-0.5,0.8-1,1.1-1.5
			c0.3-0.5,1-0.6,1.5-0.3c1.1,0.8,3,2.1,4.4,3c0.7,0.5,1.6,0,1.7-0.8c0.1-1.4,0.3-3.2,0.5-4.4c0.1-0.7,0.8-1.2,1.5-0.9
			c0.5,0.2,1.1,0.4,1.5,0.6c0.4,0.2,0.7,0.6,0.7,1.1c-0.2,1.8-0.5,6.3-0.6,7.9c0,0.4,0.1,0.7,0.4,0.9c1.1,0.9,4.2,3.5,6.1,5
			c0.7,0.5,1.6,0.1,1.7-0.7c0.3-2.2,0.8-5.7,1.1-7.3c0.1-0.5-0.1-1.2-0.5-1.6c-1.3-1.3-4.4-4.2-5.8-5.4c-0.4-0.3-0.4-0.9-0.2-1.3
			c0.3-0.5,0.7-1.1,1-1.6c0.2-0.3,0.9-0.5,1.4,0c0.9,0.8,2.3,1.9,3.3,2.9c0.7,0.6,1.7,0.2,1.8-0.7c0,0,0.6-5.2,0.7-5.2
			c0-0.3,0.3-0.8,0.9-0.8c0.8,0.1,1.6,0.2,2.6,0.4c0.9,0.2,0.7,1.2,0.7,1.2l-0.8,4.9c-0.1,0.9,0.7,1.5,1.5,1.2l3.9-1.9
			c0.6-0.3,1.3,0,1.5,0.7l0.4,1.6c0.1,0.5-0.1,1-0.6,1.3c-1.7,0.8-5.5,2.6-7.1,3.4c-0.5,0.2-0.8,0.8-0.9,1.4
			c-0.2,1.7-0.8,5.3-1.1,7.5c-0.1,0.8,0.7,1.5,1.5,1.1c2.1-0.9,5.5-2.4,7-3c0.7-0.3,0.9-0.8,1-1.3c0.5-1.9,1-5.1,1.3-6.6
			c0.1-0.5,0.4-0.8,0.7-0.9c0.4-0.2,1.3-0.5,1.9-0.7c0.8-0.2,1.5,0.6,1.4,1.4l-0.7,4c-0.2,0.8,0.7,1.5,1.5,1.2l4.4-1.8
			c0.5-0.2,1.1,0,1.4,0.5l1,2.1C221.4,155,220.9,155.1,220.4,155.5z"/>
	</g>
</g>
<g id="_x36_orGFQ_1_">
	<g>
		<path class="st9" d="M117.8,185.8c-0.8,0.3-2.1,0.8-3.1,1.2c-0.6,0.2-0.7,1.1-0.1,1.4c0.6,0.4,1.3,0.7,1.9,1.1
			c0.4,0.3,0.5,0.9,0.1,1.2c-0.2,0.2-0.5,0.4-0.7,0.6c-0.2,0.2-0.6,0.3-0.9,0.1c-1.7-1-3-1.6-4.2-2.4c-0.4-0.2-0.7-0.3-1.1-0.1
			c-1.2,0.4-3.9,1.4-5.5,2c-0.6,0.2-0.7,1-0.2,1.3c1.7,1.3,4.7,3.6,4.8,3.7c0.2,0.2,0.7,0.2,0.9,0.1c0.7-0.2,2.6-1.1,5.1-1.8
			c0.4-0.1,0.7,0.1,0.9,0.4c0.2,0.3,0.4,0.7,0.5,1.1c0.2,0.4,0,0.9-0.4,1.1c-0.8,0.2-1.8,0.7-2.7,1c-0.6,0.2-0.8,0.8-0.3,1.2
			l2.7,2.1c0.3,0.3,0.4,0.8,0.1,1.1l-1.1,1.3c-0.3,0.3-0.7,0.4-1.1,0.1l-2.7-2.1c-0.5-0.4-1.2-0.1-1.3,0.5l-0.3,3.1
			c-0.1,0.5-0.5,0.8-1,0.7c-0.5-0.2-1.2-0.4-1.5-0.5c-0.5-0.1-0.5-0.5-0.5-0.9c0.3-2.1,0.7-4.4,0.8-5.5c0-0.3-0.1-0.5-0.3-0.7
			l-4.3-3.5c-0.5-0.4-1.2-0.1-1.2,0.5c-0.2,1.6-0.6,4.3-0.8,5.5c0,0.3,0,0.7,0.4,1c1,0.8,3.2,2.8,4.1,3.6c0.3,0.2,0.3,0.7,0.1,1
			l-0.6,1c-0.3,0.4-0.8,0.5-1.2,0.2l-2.6-2.3c0,0-0.8-0.3-0.9,0.5c0,0.2-0.4,2.9-0.5,3.8c-0.1,0.5-0.5,0.6-0.6,0.6
			c-0.1,0-1.5-0.1-1.9-0.2c-0.7-0.1-0.5-0.8-0.5-0.8l0.6-3.6c0.1-0.6-0.5-1.1-1.1-0.8c-0.8,0.4-1.8,0.9-2.5,1.2
			c-0.5,0.2-1,0.2-1.1-0.1c-0.1-0.4-0.2-0.9-0.4-1.3c-0.1-0.5,0.1-1,0.4-1.1c1.2-0.6,3.9-1.8,5-2.3c0.2-0.1,0.4-0.3,0.4-0.6l0.8-5.6
			c0.1-0.6-0.5-1.1-1.1-0.8c-1.6,0.7-4.3,1.8-5.3,2.2c-0.2,0.1-0.4,0.3-0.5,0.6l-1,5.1c-0.1,0.3-0.3,0.5-0.6,0.6
			c-0.3,0.1-0.7,0.2-1.1,0.3c-0.5,0.1-1.1-0.3-1-0.9l0.5-2.8c0.1-0.6-0.5-1.1-1.1-0.9l-3.1,1.3c-0.4,0.2-0.8,0-1-0.4
			c-0.2-0.4-0.6-1.1-0.8-1.7c-0.3-0.8,0.6-0.9,0.6-0.9l3.1-1.2c0.6-0.2,0.7-1,0.2-1.4l-2.4-1.6c-0.4-0.3-0.4-0.8-0.2-1.1
			c0.3-0.3,0.6-0.7,0.9-1c0.3-0.3,0.7-0.4,1-0.1c1.3,1,4.6,3.3,4.8,3.5c0.1,0,3.9-1.4,6-2.2c0.6-0.2,0.7-1,0.2-1.3
			c-1.4-1.1-3.8-3-4.6-3.6c-0.2-0.2-0.4-0.2-0.7-0.1c-1.8,0.5-4.3,1.3-5.5,1.7c-0.4,0.1-0.8,0-0.9-0.4c-0.3-0.5-0.4-1.2-0.6-1.6
			c-0.1-0.2,0-0.5,0.2-0.6c0.7-0.3,2-0.5,3-0.9c0.6-0.2,0.7-1,0.2-1.3l-2.7-2.1c-0.3-0.3-0.4-0.7-0.1-1.1c0.3-0.3,0.5-0.7,0.8-1
			c0.2-0.3,0.7-0.4,1.1-0.2c0.8,0.5,2.2,1.5,3.1,2.1c0.5,0.3,1.1,0,1.2-0.6c0.1-1,0.2-2.3,0.3-3.2c0.1-0.5,0.6-0.8,1.1-0.6
			c0.4,0.2,0.8,0.3,1.1,0.4c0.3,0.1,0.5,0.4,0.5,0.8c-0.1,1.3-0.4,4.5-0.5,5.6c0,0.3,0.1,0.5,0.3,0.7c0.8,0.7,3,2.5,4.3,3.5
			c0.5,0.4,1.2,0.1,1.2-0.5c0.2-1.6,0.6-4,0.8-5.2c0.1-0.4-0.1-0.9-0.3-1.1c-0.9-0.9-3.1-3-4.1-3.9c-0.3-0.2-0.3-0.6-0.1-1
			c0.2-0.3,0.5-0.8,0.7-1.1c0.2-0.2,0.6-0.3,1,0c0.6,0.5,1.6,1.4,2.4,2c0.5,0.4,1.2,0.1,1.3-0.5c0,0,0.5-3.7,0.5-3.7
			c0-0.2,0.2-0.6,0.6-0.6c0.6,0,1.1,0.1,1.9,0.3c0.7,0.1,0.5,0.8,0.5,0.8l-0.6,3.5c-0.1,0.6,0.5,1.1,1.1,0.8l2.7-1.3
			c0.4-0.2,0.9,0,1.1,0.5l0.3,1.1c0.1,0.4-0.1,0.7-0.4,0.9c-1.2,0.6-3.9,1.9-5,2.5c-0.3,0.2-0.6,0.6-0.7,1c-0.2,1.2-0.5,3.7-0.8,5.3
			c-0.1,0.6,0.5,1,1.1,0.8c1.5-0.6,3.9-1.7,5-2.1c0.5-0.2,0.6-0.6,0.7-1c0.3-1.4,0.7-3.6,0.9-4.7c0.1-0.3,0.3-0.6,0.5-0.7
			c0.3-0.2,0.9-0.4,1.4-0.5c0.6-0.2,1.1,0.5,1,1l-0.5,2.9c-0.1,0.6,0.5,1.1,1.1,0.9l3.1-1.3c0.4-0.2,0.8,0,1,0.4l0.7,1.5
			C118.5,185.5,118.2,185.6,117.8,185.8z"/>
	</g>
</g>
<text transform="matrix(1 0 0 1 61.3048 67.975)"><tspan x="0" y="0" class="st10 st11 st12">End</tspan><tspan x="62.3" y="0" class="st13 st11 st12"> </tspan><tspan x="71.4" y="0" class="st9 st11 st12">Code Freeze</tspan></text>
<g>
	<path class="st14" d="M324.6,427.9c-1.5,0-2.7,0.6-3.5,1.9c-0.8,1.2-1.2,3-1.2,5.3c0,2.2,0.4,3.9,1.1,5.2c0.8,1.3,2,2,3.6,2
		c1.5,0,2.7-0.6,3.5-1.9c0.8-1.2,1.2-2.9,1.2-5.3c0-2.4-0.4-4.1-1.1-5.3C327.5,428.6,326.3,427.9,324.6,427.9z M326.4,439
		c-0.4,0.8-0.9,1.1-1.8,1.1c-0.4,0-0.7-0.1-1-0.3c-0.3-0.2-0.6-0.6-0.7-1c-0.2-0.5-0.4-1-0.5-1.6c-0.1-0.6-0.2-1.3-0.2-2.1
		c0-1.8,0.2-3.1,0.6-3.9c0.4-0.8,0.9-1.1,1.7-1.1c0.4,0,0.8,0.1,1.1,0.3c0.3,0.2,0.5,0.5,0.7,1c0.2,0.4,0.3,1,0.4,1.6
		c0.1,0.7,0.1,1.4,0.1,2.1C327,436.9,326.8,438.2,326.4,439z"/>
	<polygon class="st14" points="281.4,427.9 280.2,427.9 275.7,431.4 276.9,433 279.2,431.3 279.2,439.8 276.6,439.8 276.6,442 
		284,442 284,439.8 281.4,439.8 	"/>
	<path class="st14" d="M339.8,427.9c-1.5,0-2.7,0.6-3.5,1.9c-0.8,1.2-1.2,2.9-1.2,5.3c0,2.2,0.4,3.9,1.1,5.2c0.8,1.3,2,2,3.6,2
		c1.5,0,2.7-0.6,3.5-1.9c0.8-1.2,1.1-3,1.1-5.3c0-2.3-0.4-4.1-1.1-5.3C342.7,428.6,341.4,427.9,339.8,427.9z M341.5,439
		c-0.4,0.8-0.9,1.1-1.7,1.1c-0.4,0-0.7-0.1-1-0.3c-0.3-0.2-0.5-0.5-0.7-1c-0.2-0.5-0.4-1-0.5-1.6c-0.1-0.6-0.1-1.4-0.1-2.2
		c0-1.8,0.2-3.1,0.6-3.9c0.4-0.7,0.9-1.1,1.7-1.1c0.4,0,0.8,0.1,1.1,0.3c0.3,0.2,0.5,0.5,0.7,1c0.2,0.5,0.3,1,0.4,1.6
		c0.1,0.7,0.1,1.4,0.1,2.2C342.1,436.9,341.9,438.2,341.5,439z"/>
	<polygon class="st14" points="295.8,427.9 294.6,427.9 290,431.4 291.2,433 293.5,431.3 293.5,439.8 290.9,439.8 290.9,442 
		298.3,442 298.3,439.8 295.8,439.8 	"/>
	<path class="st14" d="M264.9,427.9c-1.5,0-2.7,0.6-3.5,1.9c-0.8,1.2-1.2,2.9-1.2,5.3c0,2.2,0.4,3.9,1.1,5.2c0.8,1.3,2,2,3.6,2
		c1.5,0,2.7-0.6,3.5-1.9c0.8-1.2,1.1-3,1.1-5.3c0-2.3-0.4-4.1-1.1-5.3C267.7,428.6,266.5,427.9,264.9,427.9z M266.6,439
		c-0.4,0.8-0.9,1.1-1.7,1.1c-0.4,0-0.7-0.1-1-0.3c-0.3-0.2-0.5-0.5-0.7-1c-0.2-0.5-0.4-1-0.5-1.6c-0.1-0.6-0.1-1.4-0.1-2.2
		c0-1.8,0.2-3.1,0.6-3.9c0.4-0.7,0.9-1.1,1.7-1.1c0.4,0,0.8,0.1,1.1,0.3c0.3,0.2,0.5,0.5,0.7,1c0.2,0.5,0.3,1,0.4,1.6
		c0.1,0.7,0.1,1.4,0.1,2.2C267.2,436.9,267,438.2,266.6,439z"/>
	<path class="st14" d="M819.1,429.8c-0.8-1.2-2-1.8-3.6-1.8c-1.5,0-2.7,0.6-3.5,1.9c-0.8,1.2-1.2,2.9-1.2,5.3c0,2.2,0.4,3.9,1.1,5.2
		c0.8,1.3,2,2,3.6,2c1.5,0,2.7-0.6,3.5-1.9c0.8-1.2,1.1-3,1.1-5.3C820.1,432.7,819.8,431,819.1,429.8z M817.2,439
		c-0.4,0.8-0.9,1.1-1.7,1.1c-0.4,0-0.7-0.1-1-0.3c-0.3-0.2-0.5-0.5-0.7-1c-0.2-0.5-0.4-1-0.5-1.6c-0.1-0.6-0.1-1.4-0.1-2.2
		c0-1.8,0.2-3.1,0.6-3.9c0.4-0.7,0.9-1.1,1.7-1.1c0.4,0,0.8,0.1,1.1,0.3c0.3,0.2,0.5,0.5,0.7,1c0.2,0.5,0.3,1,0.4,1.6
		c0.1,0.7,0.1,1.4,0.1,2.2C817.8,436.9,817.6,438.2,817.2,439z"/>
	<polygon class="st14" points="205.3,427.9 204.1,427.9 199.6,431.4 200.8,433 203.1,431.3 203.1,439.8 200.5,439.8 200.5,442 
		207.9,442 207.9,439.8 205.3,439.8 	"/>
	<path class="st14" d="M219.1,427.9c-1.5,0-2.7,0.6-3.5,1.9c-0.8,1.2-1.2,3-1.2,5.3c0,2.2,0.4,3.9,1.1,5.2c0.8,1.3,2,2,3.6,2
		c1.5,0,2.7-0.6,3.5-1.9c0.8-1.2,1.2-2.9,1.2-5.3c0-2.3-0.4-4.1-1.1-5.3C221.9,428.6,220.7,427.9,219.1,427.9z M220.8,439
		c-0.4,0.7-0.9,1.1-1.7,1.1c-0.4,0-0.7-0.1-1-0.3c-0.3-0.2-0.5-0.6-0.7-1c-0.2-0.4-0.4-1-0.5-1.6c-0.1-0.7-0.2-1.4-0.2-2.2
		c0-1.8,0.2-3.1,0.6-3.9c0.4-0.7,0.9-1.1,1.7-1.1c0.4,0,0.8,0.1,1.1,0.3c0.3,0.2,0.5,0.5,0.7,1c0.2,0.5,0.4,1,0.4,1.6
		c0.1,0.6,0.1,1.3,0.1,2.1C221.4,436.9,221.2,438.2,220.8,439z"/>
	<path class="st14" d="M249.7,427.9c-1.5,0-2.7,0.6-3.5,1.9c-0.8,1.2-1.2,3-1.2,5.3c0,2.2,0.4,3.9,1.1,5.2c0.8,1.3,2,2,3.6,2
		c1.5,0,2.7-0.6,3.5-1.9c0.8-1.2,1.2-2.9,1.2-5.3c0-2.4-0.4-4.1-1.1-5.3C252.6,428.6,251.4,427.9,249.7,427.9z M251.5,439
		c-0.4,0.8-0.9,1.1-1.8,1.1c-0.4,0-0.7-0.1-1-0.3c-0.3-0.2-0.6-0.6-0.7-1c-0.2-0.5-0.4-1-0.5-1.6c-0.1-0.6-0.2-1.3-0.2-2.1
		c0-1.8,0.2-3.1,0.6-3.9c0.4-0.7,0.9-1.1,1.7-1.1c0.4,0,0.8,0.1,1.1,0.3c0.3,0.2,0.5,0.5,0.7,1c0.2,0.4,0.3,1,0.4,1.6
		c0.1,0.7,0.1,1.4,0.1,2.1C252.1,436.9,251.9,438.2,251.5,439z"/>
	<path class="st14" d="M406.3,427.9c-1.5,0-2.7,0.6-3.5,1.9c-0.8,1.2-1.2,3-1.2,5.3c0,2.2,0.4,3.9,1.1,5.2c0.8,1.3,2,2,3.6,2
		c1.5,0,2.7-0.6,3.5-1.9c0.8-1.2,1.2-2.9,1.2-5.3c0-2.3-0.4-4.1-1.1-5.3C409.2,428.6,408,427.9,406.3,427.9z M408,439
		c-0.4,0.7-0.9,1.1-1.7,1.1c-0.4,0-0.7-0.1-1-0.3c-0.3-0.2-0.5-0.6-0.7-1c-0.2-0.4-0.4-1-0.5-1.6c-0.1-0.7-0.2-1.4-0.2-2.2
		c0-1.8,0.2-3.1,0.6-3.9c0.4-0.7,0.9-1.1,1.7-1.1c0.4,0,0.8,0.1,1.1,0.3c0.3,0.2,0.5,0.5,0.7,1c0.2,0.5,0.4,1,0.4,1.6
		c0.1,0.6,0.1,1.3,0.1,2.1C408.7,436.9,408.4,438.2,408,439z"/>
	<polygon class="st14" points="649.5,427.9 648.3,427.9 643.8,431.4 644.9,433 647.2,431.3 647.2,439.8 644.6,439.8 644.6,442 
		652,442 652,439.8 649.5,439.8 	"/>
	<polygon class="st14" points="663.8,427.9 662.6,427.9 658.1,431.4 659.3,433 661.6,431.3 661.6,439.8 659,439.8 659,442 
		666.4,442 666.4,439.8 663.8,439.8 	"/>
	<path class="st14" d="M707.8,427.9c-1.5,0-2.7,0.6-3.5,1.9c-0.8,1.2-1.2,2.9-1.2,5.3c0,2.2,0.4,3.9,1.1,5.2c0.8,1.3,2,2,3.6,2
		c1.5,0,2.7-0.6,3.5-1.9c0.8-1.2,1.1-3,1.1-5.3c0-2.3-0.4-4.1-1.1-5.3C710.7,428.6,709.5,427.9,707.8,427.9z M709.6,439
		c-0.4,0.8-0.9,1.1-1.7,1.1c-0.4,0-0.7-0.1-1-0.3c-0.3-0.2-0.5-0.5-0.7-1c-0.2-0.5-0.4-1-0.5-1.6c-0.1-0.6-0.1-1.4-0.1-2.2
		c0-1.8,0.2-3.1,0.6-3.9c0.4-0.7,0.9-1.1,1.7-1.1c0.4,0,0.8,0.1,1.1,0.3c0.3,0.2,0.5,0.5,0.7,1c0.2,0.5,0.3,1,0.4,1.6
		c0.1,0.7,0.1,1.4,0.1,2.2C710.2,436.9,710,438.2,709.6,439z"/>
	<path class="st14" d="M692.7,427.9c-1.5,0-2.7,0.6-3.5,1.9c-0.8,1.2-1.2,3-1.2,5.3c0,2.2,0.4,3.9,1.1,5.2c0.8,1.3,2,2,3.6,2
		c1.5,0,2.7-0.6,3.5-1.9c0.8-1.2,1.2-2.9,1.2-5.3c0-2.4-0.4-4.1-1.1-5.3C695.6,428.6,694.3,427.9,692.7,427.9z M694.4,439
		c-0.4,0.8-0.9,1.1-1.8,1.1c-0.4,0-0.7-0.1-1-0.3c-0.3-0.2-0.6-0.6-0.7-1c-0.2-0.5-0.4-1-0.5-1.6c-0.1-0.6-0.2-1.3-0.2-2.1
		c0-1.8,0.2-3.1,0.6-3.9c0.4-0.8,0.9-1.1,1.7-1.1c0.4,0,0.8,0.1,1.1,0.3c0.3,0.2,0.5,0.5,0.7,1c0.2,0.4,0.3,1,0.4,1.6
		c0.1,0.7,0.1,1.4,0.1,2.1C695,436.9,694.8,438.2,694.4,439z"/>
	<path class="st14" d="M632.9,427.9c-1.5,0-2.7,0.6-3.5,1.9c-0.8,1.2-1.2,2.9-1.2,5.3c0,2.2,0.4,3.9,1.1,5.2c0.8,1.3,2,2,3.6,2
		c1.5,0,2.7-0.6,3.5-1.9c0.8-1.2,1.1-3,1.1-5.3c0-2.3-0.4-4.1-1.1-5.3C635.8,428.6,634.6,427.9,632.9,427.9z M634.7,439
		c-0.4,0.8-0.9,1.1-1.7,1.1c-0.4,0-0.7-0.1-1-0.3c-0.3-0.2-0.5-0.5-0.7-1c-0.2-0.5-0.4-1-0.5-1.6c-0.1-0.6-0.1-1.4-0.1-2.2
		c0-1.8,0.2-3.1,0.6-3.9c0.4-0.7,0.9-1.1,1.7-1.1c0.4,0,0.8,0.1,1.1,0.3c0.3,0.2,0.5,0.5,0.7,1c0.2,0.5,0.3,1,0.4,1.6
		c0.1,0.7,0.1,1.4,0.1,2.2C635.3,436.9,635.1,438.2,634.7,439z"/>
	<path class="st14" d="M617.8,427.9c-1.5,0-2.7,0.6-3.5,1.9c-0.8,1.2-1.2,3-1.2,5.3c0,2.2,0.4,3.9,1.1,5.2c0.8,1.3,2,2,3.6,2
		c1.5,0,2.7-0.6,3.5-1.9c0.8-1.2,1.2-2.9,1.2-5.3c0-2.4-0.4-4.1-1.1-5.3C620.6,428.6,619.4,427.9,617.8,427.9z M619.5,439
		c-0.4,0.8-0.9,1.1-1.8,1.1c-0.4,0-0.7-0.1-1-0.3c-0.3-0.2-0.6-0.6-0.7-1c-0.2-0.5-0.4-1-0.5-1.6c-0.1-0.6-0.2-1.3-0.2-2.1
		c0-1.8,0.2-3.1,0.6-3.9c0.4-0.7,0.9-1.1,1.7-1.1c0.4,0,0.8,0.1,1.1,0.3c0.3,0.2,0.5,0.5,0.7,1c0.2,0.4,0.3,1,0.4,1.6
		c0.1,0.7,0.1,1.4,0.1,2.1C620.1,436.9,619.9,438.2,619.5,439z"/>
	<path class="st14" d="M769.7,427.9c-1.5,0-2.7,0.6-3.5,1.9c-0.8,1.2-1.2,3-1.2,5.3c0,2.2,0.4,3.9,1.1,5.2c0.8,1.3,2,2,3.6,2
		c1.5,0,2.7-0.6,3.5-1.9c0.8-1.2,1.2-2.9,1.2-5.3c0-2.3-0.4-4.1-1.1-5.3C772.5,428.6,771.3,427.9,769.7,427.9z M771.4,439
		c-0.4,0.7-0.9,1.1-1.7,1.1c-0.4,0-0.7-0.1-1-0.3c-0.3-0.2-0.5-0.6-0.7-1c-0.2-0.4-0.4-1-0.5-1.6c-0.1-0.7-0.2-1.4-0.2-2.2
		c0-1.8,0.2-3.1,0.6-3.9c0.4-0.7,0.9-1.1,1.7-1.1c0.4,0,0.8,0.1,1.1,0.3c0.3,0.2,0.5,0.5,0.7,1c0.2,0.5,0.4,1,0.4,1.6
		c0.1,0.6,0.1,1.3,0.1,2.1C772,436.9,771.8,438.2,771.4,439z"/>
	<path class="st14" d="M800.3,427.9c-1.5,0-2.7,0.6-3.5,1.9c-0.8,1.2-1.2,3-1.2,5.3c0,2.2,0.4,3.9,1.1,5.2c0.8,1.3,2,2,3.6,2
		c1.5,0,2.7-0.6,3.5-1.9c0.8-1.2,1.2-2.9,1.2-5.3c0-2.4-0.4-4.1-1.1-5.3C803.2,428.6,802,427.9,800.3,427.9z M802,439
		c-0.4,0.8-0.9,1.1-1.8,1.1c-0.4,0-0.7-0.1-1-0.3c-0.3-0.2-0.6-0.6-0.7-1c-0.2-0.5-0.4-1-0.5-1.6c-0.1-0.6-0.2-1.3-0.2-2.1
		c0-1.8,0.2-3.1,0.6-3.9c0.4-0.7,0.9-1.1,1.7-1.1c0.4,0,0.8,0.1,1.1,0.3c0.3,0.2,0.5,0.5,0.7,1c0.2,0.4,0.3,1,0.4,1.6
		c0.1,0.7,0.1,1.4,0.1,2.1C802.7,436.9,802.5,438.2,802,439z"/>
	<polygon class="st14" points="755.9,427.9 754.7,427.9 750.2,431.4 751.4,433 753.7,431.3 753.7,439.8 751,439.8 751,442 
		758.5,442 758.5,439.8 755.9,439.8 	"/>
	<polygon class="st14" points="724.4,427.9 723.2,427.9 718.7,431.4 719.8,433 722.1,431.3 722.1,439.8 719.5,439.8 719.5,442 
		726.9,442 726.9,439.8 724.4,439.8 	"/>
	<path class="st14" d="M587.1,427.9c-1.5,0-2.7,0.6-3.5,1.9c-0.8,1.2-1.2,3-1.2,5.3c0,2.2,0.4,3.9,1.1,5.2c0.8,1.3,2,2,3.6,2
		c1.5,0,2.7-0.6,3.5-1.9c0.8-1.2,1.2-2.9,1.2-5.3c0-2.3-0.4-4.1-1.1-5.3C590,428.6,588.8,427.9,587.1,427.9z M588.8,439
		c-0.4,0.7-0.9,1.1-1.7,1.1c-0.4,0-0.7-0.1-1-0.3c-0.3-0.2-0.5-0.6-0.7-1c-0.2-0.4-0.4-1-0.5-1.6c-0.1-0.7-0.2-1.4-0.2-2.2
		c0-1.8,0.2-3.1,0.6-3.9c0.4-0.7,0.9-1.1,1.7-1.1c0.4,0,0.8,0.1,1.1,0.3c0.3,0.2,0.5,0.5,0.7,1c0.2,0.5,0.4,1,0.4,1.6
		c0.1,0.6,0.1,1.3,0.1,2.1C589.5,436.9,589.3,438.2,588.8,439z"/>
	<path class="st14" d="M436.9,427.9c-1.5,0-2.7,0.6-3.5,1.9c-0.8,1.2-1.2,3-1.2,5.3c0,2.2,0.4,3.9,1.1,5.2c0.8,1.3,2,2,3.6,2
		c1.5,0,2.7-0.6,3.5-1.9c0.8-1.2,1.2-2.9,1.2-5.3c0-2.4-0.4-4.1-1.1-5.3C439.8,428.6,438.6,427.9,436.9,427.9z M438.7,439
		c-0.4,0.8-0.9,1.1-1.8,1.1c-0.4,0-0.7-0.1-1-0.3c-0.3-0.2-0.6-0.6-0.7-1c-0.2-0.5-0.4-1-0.5-1.6c-0.1-0.6-0.2-1.3-0.2-2.1
		c0-1.8,0.2-3.1,0.6-3.9c0.4-0.7,0.9-1.1,1.7-1.1c0.4,0,0.8,0.1,1.1,0.3c0.3,0.2,0.5,0.5,0.7,1c0.2,0.4,0.3,1,0.4,1.6
		c0.1,0.7,0.1,1.4,0.1,2.1C439.3,436.9,439.1,438.2,438.7,439z"/>
	<path class="st14" d="M452.1,427.9c-1.5,0-2.7,0.6-3.5,1.9c-0.8,1.2-1.2,2.9-1.2,5.3c0,2.2,0.4,3.9,1.1,5.2c0.8,1.3,2,2,3.6,2
		c1.5,0,2.7-0.6,3.5-1.9c0.8-1.2,1.1-3,1.1-5.3c0-2.3-0.4-4.1-1.1-5.3C455,428.6,453.7,427.9,452.1,427.9z M453.8,439
		c-0.4,0.8-0.9,1.1-1.7,1.1c-0.4,0-0.7-0.1-1-0.3c-0.3-0.2-0.5-0.5-0.7-1c-0.2-0.5-0.4-1-0.5-1.6c-0.1-0.6-0.1-1.4-0.1-2.2
		c0-1.8,0.2-3.1,0.6-3.9c0.4-0.7,0.9-1.1,1.7-1.1c0.4,0,0.8,0.1,1.1,0.3c0.3,0.2,0.5,0.5,0.7,1c0.2,0.5,0.3,1,0.4,1.6
		c0.1,0.7,0.1,1.4,0.1,2.2C454.5,436.9,454.2,438.2,453.8,439z"/>
	<polygon class="st14" points="483,427.9 481.8,427.9 477.3,431.4 478.4,433 480.7,431.3 480.7,439.8 478.1,439.8 478.1,442 
		485.5,442 485.5,439.8 483,439.8 	"/>
	<polygon class="st14" points="468.7,427.9 467.5,427.9 462.9,431.4 464.1,433 466.4,431.3 466.4,439.8 463.8,439.8 463.8,442 
		471.2,442 471.2,439.8 468.7,439.8 	"/>
	<polygon class="st14" points="377.5,427.9 376.3,427.9 371.8,431.4 373,433 375.3,431.3 375.3,439.8 372.7,439.8 372.7,442 
		380.1,442 380.1,439.8 377.5,439.8 	"/>
	<polygon class="st14" points="392.6,427.9 391.4,427.9 386.8,431.4 388,433 390.3,431.3 390.3,439.8 387.7,439.8 387.7,442 
		395.1,442 395.1,439.8 392.6,439.8 	"/>
	<polygon class="st14" points="543.6,427.9 542.4,427.9 537.9,431.4 539,433 541.3,431.3 541.3,439.8 538.7,439.8 538.7,442 
		546.1,442 546.1,439.8 543.6,439.8 	"/>
	<polygon class="st14" points="573.4,427.9 572.2,427.9 567.7,431.4 568.8,433 571.1,431.3 571.1,439.8 568.5,439.8 568.5,442 
		575.9,442 575.9,439.8 573.4,439.8 	"/>
	<path class="st14" d="M511.9,427.9c-1.5,0-2.7,0.6-3.5,1.9c-0.8,1.2-1.2,3-1.2,5.3c0,2.2,0.4,3.9,1.1,5.2c0.8,1.3,2,2,3.6,2
		c1.5,0,2.7-0.6,3.5-1.9c0.8-1.2,1.2-2.9,1.2-5.3c0-2.4-0.4-4.1-1.1-5.3C514.7,428.6,513.5,427.9,511.9,427.9z M513.6,439
		c-0.4,0.8-0.9,1.1-1.8,1.1c-0.4,0-0.7-0.1-1-0.3c-0.3-0.2-0.6-0.6-0.7-1c-0.2-0.5-0.4-1-0.5-1.6c-0.1-0.6-0.2-1.3-0.2-2.1
		c0-1.8,0.2-3.1,0.6-3.9c0.4-0.7,0.9-1.1,1.7-1.1c0.4,0,0.8,0.1,1.1,0.3c0.3,0.2,0.5,0.5,0.7,1c0.2,0.4,0.3,1,0.4,1.6
		c0.1,0.7,0.1,1.4,0.1,2.1C514.2,436.9,514,438.2,513.6,439z"/>
	<path class="st14" d="M527,427.9c-1.5,0-2.7,0.6-3.5,1.9c-0.8,1.2-1.2,2.9-1.2,5.3c0,2.2,0.4,3.9,1.1,5.2c0.8,1.3,2,2,3.6,2
		c1.5,0,2.7-0.6,3.5-1.9c0.8-1.2,1.1-3,1.1-5.3c0-2.3-0.4-4.1-1.1-5.3C529.9,428.6,528.7,427.9,527,427.9z M528.8,439
		c-0.4,0.8-0.9,1.1-1.7,1.1c-0.4,0-0.7-0.1-1-0.3c-0.3-0.2-0.5-0.5-0.7-1c-0.2-0.5-0.4-1-0.5-1.6c-0.1-0.6-0.1-1.4-0.1-2.2
		c0-1.8,0.2-3.1,0.6-3.9c0.4-0.7,0.9-1.1,1.7-1.1c0.4,0,0.8,0.1,1.1,0.3c0.3,0.2,0.5,0.5,0.7,1c0.2,0.5,0.3,1,0.4,1.6
		c0.1,0.7,0.1,1.4,0.1,2.2C529.4,436.9,529.2,438.2,528.8,439z"/>
</g>
<g>
	<path class="st14" d="M339.8,402.4c-1.5,0-2.7,0.6-3.5,1.9c-0.8,1.2-1.2,2.9-1.2,5.3c0,2.2,0.4,3.9,1.1,5.2c0.8,1.3,2,2,3.6,2
		c1.5,0,2.7-0.6,3.5-1.9c0.8-1.2,1.2-3,1.2-5.3c0-2.4-0.4-4.1-1.1-5.3C342.7,403,341.4,402.4,339.8,402.4z M341.5,413.5
		c-0.4,0.8-0.9,1.1-1.7,1.1c-0.4,0-0.7-0.1-1-0.3c-0.3-0.2-0.5-0.6-0.7-1c-0.2-0.4-0.4-1-0.5-1.6c-0.1-0.6-0.1-1.3-0.2-2.1
		c0-1.8,0.2-3.1,0.6-3.9c0.4-0.8,0.9-1.1,1.7-1.1c0.4,0,0.8,0.1,1.1,0.3c0.3,0.2,0.5,0.5,0.7,1c0.2,0.5,0.3,1,0.4,1.6
		c0.1,0.6,0.1,1.4,0.1,2.1C342.1,411.4,341.9,412.7,341.5,413.5z"/>
	<polygon class="st14" points="295.8,414.3 295.8,402.4 294.6,402.4 290,405.9 291.2,407.5 293.5,405.8 293.5,414.3 290.9,414.3 
		290.9,416.5 298.3,416.5 298.3,414.3 	"/>
	<polygon class="st14" points="513.3,402.4 512.1,402.4 507.6,405.9 508.7,407.5 511,405.8 511,414.3 508.4,414.3 508.4,416.5 
		515.8,416.5 515.8,414.3 513.3,414.3 	"/>
	<polygon class="st14" points="694.1,402.4 692.9,402.4 688.4,405.9 689.6,407.5 691.9,405.8 691.9,414.3 689.2,414.3 689.2,416.5 
		696.7,416.5 696.7,414.3 694.1,414.3 	"/>
	<polygon class="st14" points="326.1,402.4 324.9,402.4 320.3,405.9 321.5,407.5 323.8,405.8 323.8,414.3 321.2,414.3 321.2,416.5 
		328.6,416.5 328.6,414.3 326.1,414.3 	"/>
	<polygon class="st14" points="205.3,414.3 205.3,402.4 204.1,402.4 199.6,405.9 200.8,407.5 203.1,405.8 203.1,414.3 200.5,414.3 
		200.5,416.5 207.9,416.5 207.9,414.3 	"/>
	<path class="st14" d="M188.8,402.4c-1.5,0-2.7,0.6-3.5,1.9c-0.8,1.2-1.2,2.9-1.2,5.3c0,2.2,0.4,3.9,1.1,5.2c0.8,1.3,2,2,3.6,2h0
		c1.5,0,2.7-0.6,3.5-1.9c0.8-1.2,1.2-2.9,1.2-5.3c0-2.3-0.4-4.1-1.1-5.3C191.6,403,190.4,402.4,188.8,402.4z M190.5,413.5
		c-0.4,0.7-0.9,1.1-1.8,1.1c-0.4,0-0.7-0.1-1-0.3c-0.3-0.2-0.5-0.6-0.7-1c-0.2-0.4-0.4-1-0.5-1.6c-0.1-0.6-0.1-1.3-0.2-2.1
		c0-1.8,0.2-3.1,0.6-3.9c0.4-0.7,0.9-1.1,1.7-1.1c0.4,0,0.8,0.1,1.1,0.3c0.3,0.2,0.5,0.5,0.7,1c0.2,0.4,0.3,1,0.4,1.6
		c0.1,0.7,0.1,1.4,0.1,2.2C191.1,411.4,190.9,412.7,190.5,413.5z"/>
	<polygon class="st14" points="235.6,402.4 234.4,402.4 229.9,405.9 231.1,407.5 233.4,405.8 233.4,414.3 230.8,414.3 230.8,416.5 
		238.2,416.5 238.2,414.3 235.6,414.3 	"/>
	<polygon class="st14" points="663.8,414.3 663.8,402.4 662.6,402.4 658.1,405.9 659.3,407.5 661.6,405.8 661.6,414.3 659,414.3 
		659,416.5 666.4,416.5 666.4,414.3 	"/>
	<path class="st14" d="M707.8,402.4c-1.5,0-2.7,0.6-3.5,1.9c-0.8,1.2-1.2,2.9-1.2,5.3c0,2.2,0.4,3.9,1.1,5.2c0.8,1.3,2,2,3.6,2
		c1.5,0,2.7-0.6,3.5-1.9c0.8-1.2,1.2-3,1.2-5.3c0-2.4-0.4-4.1-1.1-5.3C710.7,403,709.5,402.4,707.8,402.4z M709.6,413.5
		c-0.4,0.8-0.9,1.1-1.7,1.1c-0.4,0-0.7-0.1-1-0.3c-0.3-0.2-0.5-0.6-0.7-1c-0.2-0.4-0.4-1-0.5-1.6c-0.1-0.6-0.1-1.3-0.2-2.1
		c0-1.8,0.2-3.1,0.6-3.9c0.4-0.8,0.9-1.1,1.7-1.1c0.4,0,0.8,0.1,1.1,0.3c0.3,0.2,0.5,0.5,0.7,1c0.2,0.5,0.3,1,0.4,1.6
		c0.1,0.6,0.1,1.4,0.1,2.1C710.2,411.4,710,412.7,709.6,413.5z"/>
	<path class="st14" d="M354.9,402.4c-1.5,0-2.7,0.6-3.5,1.9c-0.8,1.2-1.2,3-1.2,5.3c0,2.2,0.4,3.9,1.1,5.2c0.8,1.3,2,2,3.6,2h0
		c1.5,0,2.7-0.6,3.5-1.9c0.8-1.2,1.2-2.9,1.2-5.3c0-2.3-0.4-4.1-1.1-5.3C357.8,403,356.6,402.4,354.9,402.4z M356.7,413.5
		c-0.4,0.7-0.9,1.1-1.7,1.1c-0.4,0-0.7-0.1-1-0.3c-0.3-0.2-0.5-0.6-0.7-1c-0.2-0.5-0.4-1-0.5-1.6c-0.1-0.7-0.2-1.4-0.2-2.1
		c0-1.8,0.2-3.1,0.6-3.9c0.4-0.8,0.9-1.1,1.7-1.1c0.4,0,0.8,0.1,1.1,0.3c0.3,0.2,0.5,0.5,0.7,1c0.2,0.4,0.3,1,0.4,1.6
		c0.1,0.6,0.1,1.3,0.1,2.1C357.3,411.4,357.1,412.7,356.7,413.5z"/>
	<polygon class="st14" points="603.7,402.4 602.5,402.4 598,405.9 599.1,407.5 601.4,405.8 601.4,414.3 598.8,414.3 598.8,416.5 
		606.2,416.5 606.2,414.3 603.7,414.3 	"/>
	<polygon class="st14" points="786.2,414.3 786.2,402.4 785,402.4 780.5,405.9 781.7,407.5 784,405.8 784,414.3 781.3,414.3 
		781.3,416.5 788.8,416.5 788.8,414.3 	"/>
	<polygon class="st14" points="755.9,414.3 755.9,402.4 754.7,402.4 750.2,405.9 751.4,407.5 753.7,405.8 753.7,414.3 751,414.3 
		751,416.5 758.5,416.5 758.5,414.3 	"/>
	<path class="st14" d="M723,402.4c-1.5,0-2.7,0.6-3.5,1.9c-0.8,1.2-1.2,3-1.2,5.3c0,2.2,0.4,3.9,1.1,5.2c0.8,1.3,2,2,3.6,2h0
		c1.5,0,2.7-0.6,3.5-1.9c0.8-1.2,1.2-2.9,1.2-5.3c0-2.3-0.4-4.1-1.1-5.3C725.8,403,724.6,402.4,723,402.4z M724.7,413.5
		c-0.4,0.7-0.9,1.1-1.7,1.1c-0.4,0-0.7-0.1-1-0.3c-0.3-0.2-0.5-0.6-0.7-1c-0.2-0.5-0.4-1-0.5-1.6c-0.1-0.7-0.2-1.4-0.2-2.1
		c0-1.8,0.2-3.1,0.6-3.9c0.4-0.8,0.9-1.1,1.7-1.1c0.4,0,0.8,0.1,1.1,0.3c0.3,0.2,0.5,0.5,0.7,1c0.2,0.4,0.3,1,0.4,1.6
		c0.1,0.6,0.1,1.3,0.1,2.1C725.3,411.4,725.1,412.7,724.7,413.5z"/>
	<path class="st14" d="M739.4,402.4c-1.5,0-2.7,0.6-3.5,1.9c-0.8,1.2-1.1,2.9-1.1,5.3c0,2.2,0.4,3.9,1.1,5.2c0.8,1.3,2,2,3.6,2h0
		c1.5,0,2.7-0.6,3.5-1.9c0.8-1.2,1.2-2.9,1.2-5.3c0-2.3-0.4-4.1-1.1-5.3C742.2,403,741,402.4,739.4,402.4z M741.1,413.5
		c-0.4,0.7-0.9,1.1-1.8,1.1c-0.4,0-0.7-0.1-1-0.3c-0.3-0.2-0.5-0.6-0.7-1c-0.2-0.4-0.4-1-0.5-1.6c-0.1-0.6-0.1-1.3-0.2-2.1
		c0-1.8,0.2-3.1,0.6-3.9c0.4-0.7,0.9-1.1,1.7-1.1c0.4,0,0.8,0.1,1.1,0.3c0.3,0.2,0.5,0.5,0.7,1c0.2,0.4,0.3,1,0.4,1.6
		c0.1,0.7,0.1,1.4,0.1,2.2C741.7,411.4,741.5,412.7,741.1,413.5z"/>
	<polygon class="st14" points="483,414.3 483,402.4 481.8,402.4 477.3,405.9 478.4,407.5 480.7,405.8 480.7,414.3 478.1,414.3 
		478.1,416.5 485.6,416.5 485.5,414.3 	"/>
	<polygon class="st14" points="422.8,402.4 421.7,402.4 417.1,405.9 418.3,407.5 420.6,405.8 420.6,414.3 418,414.3 418,416.5 
		425.4,416.5 425.4,414.3 422.8,414.3 	"/>
	<path class="st14" d="M376,402.4c-1.5,0-2.7,0.6-3.5,1.9c-0.8,1.2-1.1,2.9-1.1,5.3c0,2.2,0.4,3.9,1.1,5.2c0.8,1.3,2,2,3.6,2h0
		c1.5,0,2.7-0.6,3.5-1.9c0.8-1.2,1.2-2.9,1.2-5.3c0-2.3-0.4-4.1-1.1-5.3C378.9,403,377.7,402.4,376,402.4z M377.7,413.5
		c-0.4,0.7-0.9,1.1-1.8,1.1c-0.4,0-0.7-0.1-1-0.3c-0.3-0.2-0.5-0.6-0.7-1c-0.2-0.4-0.4-1-0.5-1.6c-0.1-0.6-0.1-1.3-0.2-2.1
		c0-1.8,0.2-3.1,0.6-3.9c0.4-0.7,0.9-1.1,1.7-1.1c0.4,0,0.8,0.1,1.1,0.3c0.3,0.2,0.5,0.5,0.7,1c0.2,0.4,0.3,1,0.4,1.6
		c0.1,0.7,0.1,1.4,0.1,2.2C378.4,411.4,378.2,412.7,377.7,413.5z"/>
	<polygon class="st14" points="392.6,414.3 392.6,402.4 391.4,402.4 386.8,405.9 388,407.5 390.3,405.8 390.3,414.3 387.7,414.3 
		387.7,416.5 395.1,416.5 395.1,414.3 	"/>
	<path class="st14" d="M556.8,402.4c-1.5,0-2.7,0.6-3.5,1.9c-0.8,1.2-1.2,2.9-1.2,5.3c0,2.2,0.4,3.9,1.1,5.2c0.8,1.3,2,2,3.6,2h0
		c1.5,0,2.7-0.6,3.5-1.9c0.8-1.2,1.2-2.9,1.2-5.3c0-2.3-0.4-4.1-1.1-5.3C559.7,403,558.5,402.4,556.8,402.4z M558.6,413.5
		c-0.4,0.7-0.9,1.1-1.8,1.1c-0.4,0-0.7-0.1-1-0.3c-0.3-0.2-0.5-0.6-0.7-1c-0.2-0.4-0.4-1-0.5-1.6c-0.1-0.6-0.1-1.3-0.2-2.1
		c0-1.8,0.2-3.1,0.6-3.9c0.4-0.7,0.9-1.1,1.7-1.1c0.4,0,0.8,0.1,1.1,0.3c0.3,0.2,0.5,0.5,0.7,1c0.2,0.4,0.3,1,0.4,1.6
		c0.1,0.7,0.1,1.4,0.1,2.2C559.2,411.4,559,412.7,558.6,413.5z"/>
	<path class="st14" d="M542.2,402.4c-1.5,0-2.7,0.6-3.5,1.9c-0.8,1.2-1.2,3-1.2,5.3c0,2.2,0.4,3.9,1.1,5.2c0.8,1.3,2,2,3.6,2h0
		c1.5,0,2.7-0.6,3.5-1.9c0.8-1.2,1.2-2.9,1.2-5.3c0-2.3-0.4-4.1-1.1-5.3C545,403,543.8,402.4,542.2,402.4z M543.9,413.5
		c-0.4,0.7-0.9,1.1-1.7,1.1c-0.4,0-0.7-0.1-1-0.3c-0.3-0.2-0.5-0.6-0.7-1c-0.2-0.5-0.4-1-0.5-1.6c-0.1-0.7-0.2-1.4-0.2-2.1
		c0-1.8,0.2-3.1,0.6-3.9c0.4-0.8,0.9-1.1,1.7-1.1c0.4,0,0.8,0.1,1.1,0.3c0.3,0.2,0.5,0.5,0.7,1c0.2,0.4,0.3,1,0.4,1.6
		c0.1,0.6,0.1,1.3,0.1,2.1C544.5,411.4,544.3,412.7,543.9,413.5z"/>
	<polygon class="st14" points="573.4,414.3 573.4,402.4 572.2,402.4 567.7,405.9 568.8,407.5 571.1,405.8 571.1,414.3 568.5,414.3 
		568.5,416.5 575.9,416.5 575.9,414.3 	"/>
	<path class="st14" d="M527,402.4c-1.5,0-2.7,0.6-3.5,1.9c-0.8,1.2-1.2,2.9-1.2,5.3c0,2.2,0.4,3.9,1.1,5.2c0.8,1.3,2,2,3.6,2
		c1.5,0,2.7-0.6,3.5-1.9c0.8-1.2,1.2-3,1.2-5.3c0-2.4-0.4-4.1-1.1-5.3C529.9,403,528.7,402.4,527,402.4z M528.8,413.5
		c-0.4,0.8-0.9,1.1-1.7,1.1c-0.4,0-0.7-0.1-1-0.3c-0.3-0.2-0.5-0.6-0.7-1c-0.2-0.4-0.4-1-0.5-1.6c-0.1-0.6-0.1-1.3-0.2-2.1
		c0-1.8,0.2-3.1,0.6-3.9c0.4-0.8,0.9-1.1,1.7-1.1c0.4,0,0.8,0.1,1.1,0.3c0.3,0.2,0.5,0.5,0.7,1c0.2,0.5,0.3,1,0.4,1.6
		c0.1,0.6,0.1,1.4,0.1,2.1C529.4,411.4,529.2,412.7,528.8,413.5z"/>
</g>
<g>
	<path class="st14" d="M339.8,376.9c-1.5,0-2.7,0.6-3.5,1.9c-0.8,1.2-1.2,3-1.2,5.3c0,2.2,0.4,3.9,1.1,5.2c0.8,1.3,2,2,3.6,2
		c1.6,0,2.7-0.6,3.5-1.9c0.8-1.2,1.2-3,1.2-5.3c0-2.3-0.4-4.1-1.1-5.3C342.7,377.5,341.4,376.9,339.8,376.9z M341.5,388
		c-0.4,0.7-0.9,1.1-1.7,1.1c-0.4,0-0.7-0.1-1-0.3c-0.3-0.2-0.5-0.5-0.7-1c-0.2-0.4-0.4-1-0.5-1.6c-0.1-0.6-0.1-1.3-0.1-2.2
		c0-1.8,0.2-3.1,0.6-3.9c0.4-0.7,0.9-1.1,1.7-1.1h0.1c0.4,0,0.7,0.1,1,0.3c0.3,0.2,0.5,0.5,0.7,1c0.2,0.5,0.3,1,0.4,1.6
		c0.1,0.6,0.1,1.4,0.1,2.1C342.1,385.9,341.9,387.2,341.5,388z"/>
	<polygon class="st14" points="588.5,376.9 587.3,376.9 582.8,380.4 584,382 586.3,380.3 586.3,388.8 583.7,388.8 583.7,391 
		591.1,391 591.1,388.8 588.5,388.8 	"/>
	<polygon class="st14" points="634,376.9 632.8,376.9 628.2,380.4 629.4,382 631.7,380.3 631.7,388.8 629.1,388.8 629.1,391 
		636.5,391 636.5,388.8 634,388.8 	"/>
	<polygon class="st14" points="453.1,376.9 451.9,376.9 447.4,380.4 448.6,382 450.9,380.3 450.9,388.8 448.3,388.8 448.3,391 
		455.7,391 455.7,388.8 453.1,388.8 	"/>
	<polygon class="st14" points="513.3,376.9 512.1,376.9 507.6,380.4 508.7,382 511,380.3 511,388.8 508.4,388.8 508.4,391 
		515.8,391 515.8,388.8 513.3,388.8 	"/>
	<polygon class="st14" points="771.1,376.9 769.8,376.9 765.3,380.4 766.5,382 768.8,380.3 768.8,388.8 766.2,388.8 766.2,391 
		773.6,391 773.6,388.8 771.1,388.8 	"/>
	<polygon class="st14" points="816.5,388.8 816.5,376.9 815.3,376.9 810.8,380.4 811.9,382 814.3,380.3 814.3,388.8 811.6,388.8 
		811.6,391 819,391 819,388.8 	"/>
	<polygon class="st14" points="694.1,376.9 692.9,376.9 688.4,380.4 689.6,382 691.9,380.3 691.9,388.8 689.2,388.8 689.2,391 
		696.7,391 696.7,388.8 694.1,388.8 	"/>
	<path class="st14" d="M188.8,376.9c-1.5,0-2.7,0.6-3.5,1.9c-0.8,1.2-1.2,2.9-1.2,5.3c0,2.2,0.4,3.9,1.1,5.2c0.8,1.3,2,2,3.6,2
		c1.5,0,2.7-0.6,3.5-1.9c0.8-1.2,1.2-2.9,1.2-5.3c0-2.3-0.4-4.1-1.1-5.3C191.6,377.5,190.4,376.9,188.8,376.9z M190.5,388
		c-0.4,0.7-0.9,1.1-1.7,1.1c-0.4,0-0.7-0.1-1-0.3c-0.3-0.2-0.5-0.6-0.7-1c-0.2-0.4-0.4-1-0.5-1.6c-0.1-0.6-0.1-1.4-0.1-2.2
		c0-1.8,0.2-3.1,0.6-3.9c0.4-0.7,0.9-1.1,1.7-1.1c0.4,0,0.8,0.1,1,0.3c0.3,0.2,0.5,0.5,0.7,1c0.2,0.4,0.3,1,0.4,1.6
		c0.1,0.7,0.1,1.4,0.1,2.1C191.1,385.8,190.9,387.2,190.5,388z"/>
	<polygon class="st14" points="235.6,388.8 235.6,376.9 234.4,376.9 229.9,380.4 231.1,382 233.4,380.3 233.4,388.8 230.8,388.8 
		230.8,391 238.2,391 238.2,388.8 	"/>
	<polygon class="st14" points="407.7,376.9 406.5,376.9 402,380.4 403.2,382 405.5,380.3 405.5,388.8 402.9,388.8 402.9,391 
		410.3,391 410.3,388.8 407.7,388.8 	"/>
	<polygon class="st14" points="326.1,376.9 324.9,376.9 320.3,380.4 321.5,382 323.8,380.3 323.8,388.8 321.2,388.8 321.2,391 
		328.6,391 328.6,388.8 326.1,388.8 	"/>
	<polygon class="st14" points="220.5,376.9 219.3,376.9 214.8,380.4 215.9,382 218.2,380.3 218.2,388.8 215.6,388.8 215.6,391 
		223,391 223,388.8 220.5,388.8 	"/>
	<polygon class="st14" points="265.9,376.9 264.7,376.9 260.2,380.4 261.4,382 263.7,380.3 263.7,388.8 261.1,388.8 261.1,391 
		268.5,391 268.5,388.8 265.9,388.8 	"/>
	<path class="st14" d="M707.8,376.9c-1.5,0-2.7,0.6-3.5,1.9c-0.8,1.2-1.2,3-1.2,5.3c0,2.2,0.4,3.9,1.1,5.2c0.8,1.3,2,2,3.6,2
		c1.6,0,2.7-0.6,3.5-1.9c0.8-1.2,1.2-3,1.2-5.3c0-2.3-0.4-4.1-1.1-5.3C710.7,377.5,709.5,376.9,707.8,376.9z M709.6,388
		c-0.4,0.7-0.9,1.1-1.7,1.1c-0.4,0-0.7-0.1-1-0.3c-0.3-0.2-0.5-0.5-0.7-1c-0.2-0.4-0.4-1-0.5-1.6c-0.1-0.6-0.1-1.3-0.1-2.2
		c0-1.8,0.2-3.1,0.6-3.9c0.4-0.7,0.9-1.1,1.7-1.1h0.1c0.4,0,0.7,0.1,1,0.3c0.3,0.2,0.5,0.5,0.7,1c0.2,0.5,0.3,1,0.4,1.6
		c0.1,0.6,0.1,1.4,0.1,2.1C710.2,385.9,710,387.2,709.6,388z"/>
	<polygon class="st14" points="603.7,388.8 603.7,376.9 602.5,376.9 598,380.4 599.1,382 601.4,380.3 601.4,388.8 598.8,388.8 
		598.8,391 606.2,391 606.2,388.8 	"/>
	<polygon class="st14" points="786.2,388.8 786.2,376.9 785,376.9 780.5,380.4 781.7,382 784,380.3 784,388.8 781.3,388.8 
		781.3,391 788.8,391 788.8,388.8 	"/>
	<path class="st14" d="M739.4,376.9c-1.5,0-2.7,0.6-3.5,1.9c-0.8,1.2-1.2,2.9-1.2,5.3c0,2.2,0.4,3.9,1.1,5.2c0.8,1.3,2,2,3.6,2
		c1.5,0,2.7-0.6,3.5-1.9c0.8-1.2,1.2-2.9,1.2-5.3c0-2.3-0.4-4.1-1.1-5.3C742.2,377.5,741,376.9,739.4,376.9z M741.1,388
		c-0.4,0.7-0.9,1.1-1.7,1.1c-0.4,0-0.7-0.1-1-0.3c-0.3-0.2-0.5-0.6-0.7-1c-0.2-0.4-0.4-1-0.5-1.6c-0.1-0.6-0.1-1.4-0.1-2.2
		c0-1.8,0.2-3.1,0.6-3.9c0.4-0.7,0.9-1.1,1.7-1.1c0.4,0,0.8,0.1,1,0.3c0.3,0.2,0.5,0.5,0.7,1c0.2,0.4,0.3,1,0.4,1.6
		c0.1,0.7,0.1,1.4,0.1,2.1C741.7,385.8,741.5,387.2,741.1,388z"/>
	<polygon class="st14" points="422.8,388.8 422.8,376.9 421.7,376.9 417.1,380.4 418.3,382 420.6,380.3 420.6,388.8 418,388.8 
		418,391 425.4,391 425.4,388.8 	"/>
	<path class="st14" d="M376,376.9c-1.5,0-2.7,0.6-3.5,1.9c-0.8,1.2-1.2,2.9-1.2,5.3c0,2.2,0.4,3.9,1.1,5.2c0.8,1.3,2,2,3.6,2
		c1.5,0,2.7-0.6,3.5-1.9c0.8-1.2,1.2-2.9,1.2-5.3c0-2.3-0.4-4.1-1.1-5.3C378.9,377.5,377.7,376.9,376,376.9z M377.7,388
		c-0.4,0.7-0.9,1.1-1.7,1.1c-0.4,0-0.7-0.1-1-0.3c-0.3-0.2-0.5-0.6-0.7-1c-0.2-0.4-0.4-1-0.5-1.6c-0.1-0.6-0.1-1.4-0.1-2.2
		c0-1.8,0.2-3.1,0.6-3.9c0.4-0.7,0.9-1.1,1.7-1.1c0.4,0,0.8,0.1,1,0.3c0.3,0.2,0.5,0.5,0.7,1c0.2,0.4,0.3,1,0.4,1.6
		c0.1,0.7,0.1,1.4,0.1,2.1C378.4,385.8,378.2,387.2,377.7,388z"/>
	<path class="st14" d="M556.8,376.9c-1.5,0-2.7,0.6-3.5,1.9c-0.8,1.2-1.2,2.9-1.2,5.3c0,2.2,0.4,3.9,1.1,5.2c0.8,1.3,2,2,3.6,2
		c1.5,0,2.7-0.6,3.5-1.9c0.8-1.2,1.2-2.9,1.2-5.3c0-2.3-0.4-4.1-1.1-5.3C559.7,377.5,558.5,376.9,556.8,376.9z M558.6,388
		c-0.4,0.7-0.9,1.1-1.7,1.1c-0.4,0-0.7-0.1-1-0.3c-0.3-0.2-0.5-0.6-0.7-1c-0.2-0.4-0.4-1-0.5-1.6c-0.1-0.6-0.1-1.4-0.1-2.2
		c0-1.8,0.2-3.1,0.6-3.9c0.4-0.7,0.9-1.1,1.7-1.1c0.4,0,0.8,0.1,1,0.3c0.3,0.2,0.5,0.5,0.7,1c0.2,0.4,0.3,1,0.4,1.6
		c0.1,0.7,0.1,1.4,0.1,2.1C559.2,385.8,559,387.2,558.6,388z"/>
	<path class="st14" d="M527,376.9c-1.5,0-2.7,0.6-3.5,1.9c-0.8,1.2-1.2,3-1.2,5.3c0,2.2,0.4,3.9,1.1,5.2c0.8,1.3,2,2,3.6,2
		c1.5,0,2.7-0.6,3.5-1.9c0.8-1.2,1.2-3,1.2-5.3c0-2.3-0.4-4.1-1.1-5.3C529.9,377.5,528.7,376.9,527,376.9z M528.8,388
		c-0.4,0.7-0.9,1.1-1.7,1.1c-0.4,0-0.7-0.1-1-0.3c-0.3-0.2-0.5-0.5-0.7-1c-0.2-0.4-0.4-1-0.5-1.6c-0.1-0.6-0.1-1.3-0.1-2.2
		c0-1.8,0.2-3.1,0.6-3.9c0.4-0.7,0.9-1.1,1.7-1.1h0.1c0.4,0,0.7,0.1,1,0.3c0.3,0.2,0.5,0.5,0.7,1c0.2,0.5,0.3,1,0.4,1.6
		c0.1,0.6,0.1,1.4,0.1,2.1C529.4,385.9,529.2,387.2,528.8,388z"/>
</g>
<path class="st14" d="M286.2,453.4c-1.5,0-2.7,0.6-3.5,1.9c-0.8,1.2-1.2,3-1.2,5.3c0,2.2,0.4,3.9,1.1,5.2c0.8,1.3,2,2,3.6,2
	c1.5,0,2.7-0.6,3.5-1.9c0.8-1.2,1.2-2.9,1.2-5.3c0-2.4-0.4-4.1-1.1-5.3C289,454.1,287.8,453.4,286.2,453.4z M287.9,464.5
	c-0.4,0.7-0.9,1.1-1.7,1.1c-0.4,0-0.7-0.1-1-0.3c-0.3-0.2-0.5-0.5-0.7-1c-0.2-0.4-0.4-1-0.5-1.6c-0.1-0.7-0.2-1.4-0.2-2.1
	c0-1.8,0.2-3.1,0.6-4c0.4-0.7,0.9-1.1,1.7-1.1l0-0.4h0v0.4c0.4,0,0.8,0.1,1,0.3c0.3,0.2,0.5,0.5,0.7,1c0.2,0.5,0.4,1,0.4,1.6
	c0.1,0.6,0.1,1.4,0.1,2.1C288.5,462.4,288.3,463.7,287.9,464.5z M563.8,467.7L563.8,467.7c1.5,0,2.7-0.6,3.5-1.9
	c0.8-1.2,1.2-3,1.2-5.3c0-2.4-0.4-4.1-1.1-5.3c-0.7-1.2-2-1.9-3.6-1.9c-1.5,0-2.7,0.6-3.5,1.9c-0.8,1.2-1.2,3-1.2,5.3
	c0,2.2,0.4,3.9,1.1,5.2C561,467.1,562.2,467.7,563.8,467.7z M562.1,456.6c0.4-0.7,0.9-1.1,1.7-1.1h0c0.4,0,0.8,0.1,1.1,0.3
	c0.3,0.2,0.5,0.6,0.7,1c0.2,0.5,0.3,1,0.4,1.6c0.1,0.6,0.1,1.3,0.1,2.1c0,1.8-0.2,3.1-0.6,4c-0.4,0.8-0.9,1.1-1.7,1.1
	c-0.4,0-0.7-0.1-1-0.3c-0.3-0.2-0.5-0.6-0.7-1c-0.2-0.4-0.4-1-0.5-1.6c-0.1-0.7-0.2-1.4-0.2-2.1
	C561.5,458.8,561.7,457.5,562.1,456.6z M578.1,456.8v8.5h-2.6v2.2l7.4,0v-2.2l-2.6,0v-11.9h-1.2l-4.5,3.5l1.2,1.6L578.1,456.8z
	 M487.7,456.8v8.5h-2.6v2.2h7.4v-2.2l-2.6,0v-11.9h-1.2l-4.5,3.5l1.2,1.6L487.7,456.8z M412.8,467.7L412.8,467.7
	c1.5,0,2.7-0.6,3.5-1.9c0.8-1.2,1.2-3,1.1-5.3c0-2.4-0.4-4.1-1.1-5.3c-0.7-1.2-2-1.9-3.6-1.9c-1.5,0-2.7,0.6-3.5,1.9
	c-0.8,1.2-1.1,2.9-1.1,5.3c0,2.2,0.4,4,1.1,5.2C410,467.1,411.2,467.7,412.8,467.7z M411.1,456.6c0.4-0.7,0.9-1.1,1.7-1.1
	c0.4,0,0.8,0.1,1.1,0.3c0.3,0.2,0.5,0.5,0.7,1c0.2,0.4,0.3,1,0.4,1.6c0.1,0.7,0.1,1.4,0.1,2.1c0,1.8-0.2,3.1-0.6,4
	c-0.4,0.7-0.9,1.1-1.7,1.1c-0.4,0-0.7-0.1-1-0.3c-0.3-0.2-0.5-0.6-0.7-1c-0.2-0.4-0.4-1-0.5-1.6c-0.1-0.6-0.2-1.4-0.2-2.1
	C410.5,458.8,410.7,457.5,411.1,456.6z M397.3,456.8v8.5h-2.6v2.2l7.4,0v-2.2l-2.6,0v-11.9h-1.2l-4.5,3.5l1.2,1.6L397.3,456.8z
	 M427.1,456.8v8.5l-2.6,0v2.2h7.4v-2.2h-2.6v-11.9h-1.2l-4.5,3.5l1.2,1.6L427.1,456.8z M517.5,456.8v8.5h-2.6l0,2.2h7.4v-2.2h-2.5
	l0-11.9h-1.2l-4.5,3.5l1.2,1.6L517.5,456.8z M746.3,467.7L746.3,467.7c1.5,0,2.7-0.6,3.5-1.9c0.8-1.2,1.2-3,1.2-5.3
	c0-2.4-0.4-4.1-1.1-5.3c-0.7-1.2-2-1.9-3.6-1.9c-1.5,0-2.7,0.6-3.5,1.9c-0.8,1.2-1.2,3-1.2,5.3c0,2.2,0.4,3.9,1.1,5.2
	C743.5,467.1,744.7,467.7,746.3,467.7z M744.6,456.6c0.4-0.7,0.9-1.1,1.7-1.1h0c0.4,0,0.8,0.1,1.1,0.3c0.3,0.2,0.5,0.6,0.7,1
	c0.2,0.5,0.3,1,0.4,1.6c0.1,0.6,0.1,1.3,0.1,2.1c0,1.8-0.2,3.1-0.6,4c-0.4,0.8-0.9,1.1-1.7,1.1c-0.4,0-0.7-0.1-1-0.3
	c-0.3-0.2-0.5-0.6-0.7-1c-0.2-0.4-0.4-1-0.5-1.6c-0.1-0.7-0.2-1.4-0.2-2.1C744,458.8,744.2,457.5,744.6,456.6z M760.6,456.8v8.5H758
	v2.2l7.4,0v-2.2l-2.6,0v-11.9h-1.2l-4.5,3.5l1.2,1.6L760.6,456.8z M593.6,467.7L593.6,467.7c1.5,0,2.7-0.6,3.5-1.9
	c0.8-1.2,1.2-3,1.1-5.3c0-2.4-0.4-4.1-1.1-5.3c-0.7-1.2-2-1.9-3.6-1.9c-1.5,0-2.7,0.6-3.5,1.9c-0.8,1.2-1.2,2.9-1.2,5.3
	c0,2.2,0.4,3.9,1.1,5.2C590.8,467.1,592,467.7,593.6,467.7z M591.9,456.6c0.4-0.7,0.9-1.1,1.7-1.1c0.4,0,0.8,0.1,1.1,0.3
	c0.3,0.2,0.5,0.5,0.7,1c0.2,0.4,0.3,1,0.4,1.6c0.1,0.7,0.1,1.4,0.1,2.1c0,1.8-0.2,3.1-0.6,4c-0.4,0.7-0.9,1.1-1.7,1.1
	c-0.4,0-0.7-0.1-1-0.3c-0.3-0.2-0.5-0.6-0.7-1c-0.2-0.4-0.4-1-0.5-1.6c-0.1-0.6-0.2-1.4-0.2-2.1
	C591.3,458.8,591.5,457.5,591.9,456.6z M607.9,456.8v8.5l-2.6,0v2.2h7.4v-2.2h-2.6v-11.9H609l-4.5,3.5l1.2,1.6L607.9,456.8z
	 M668.5,456.8v8.5h-2.6v2.2h7.4v-2.2l-2.6,0v-11.9h-1.2l-4.5,3.5l1.2,1.6L668.5,456.8z M700.1,456.8v8.5h-2.6l0,2.2h7.4v-2.2h-2.5
	l0-11.9h-1.2l-4.5,3.5l1.2,1.6L700.1,456.8z M300.5,456.8v8.5h-2.6v2.2h7.4v-2.2l-2.6,0v-11.9h-1.2l-4.5,3.5l1.2,1.6L300.5,456.8z
	 M383,467.7L383,467.7c1.5,0,2.7-0.6,3.5-1.9c0.8-1.2,1.2-3,1.2-5.3c0-2.4-0.4-4.1-1.1-5.3c-0.7-1.2-2-1.9-3.6-1.9
	c-1.5,0-2.7,0.6-3.5,1.9c-0.8,1.2-1.2,3-1.2,5.3c0,2.2,0.4,3.9,1.1,5.2C380.2,467.1,381.4,467.7,383,467.7z M381.3,456.6
	c0.4-0.7,0.9-1.1,1.7-1.1h0c0.4,0,0.8,0.1,1.1,0.3c0.3,0.2,0.5,0.6,0.7,1c0.2,0.5,0.3,1,0.4,1.6c0.1,0.6,0.1,1.3,0.1,2.1
	c0,1.8-0.2,3.1-0.6,4c-0.4,0.8-0.9,1.1-1.7,1.1c-0.4,0-0.7-0.1-1-0.3c-0.3-0.2-0.5-0.6-0.7-1c-0.2-0.4-0.4-1-0.5-1.6
	c-0.1-0.7-0.2-1.4-0.2-2.1C380.7,458.8,380.9,457.5,381.3,456.6z M336.7,456.8v8.5h-2.6l0,2.2h7.4v-2.2h-2.5l0-11.9h-1.2l-4.5,3.5
	l1.2,1.6L336.7,456.8z M623.9,453.4c-1.5,0-2.7,0.6-3.5,1.9c-0.8,1.2-1.2,3-1.2,5.3c0,2.2,0.4,3.9,1.1,5.2c0.8,1.3,2,2,3.6,2h0
	c1.5,0,2.7-0.6,3.5-1.9c0.8-1.2,1.2-3,1.2-5.3c0-2.4-0.4-4.1-1.1-5.3C626.8,454.1,625.6,453.4,623.9,453.4z M624,467.3L624,467.3
	L624,467.3L624,467.3z M625.7,464.5c-0.4,0.8-0.9,1.1-1.7,1.1c-0.4,0-0.7-0.1-1-0.3c-0.3-0.2-0.5-0.6-0.7-1c-0.2-0.4-0.4-1-0.5-1.6
	c-0.1-0.7-0.2-1.4-0.2-2.1c0-1.8,0.2-3.1,0.6-3.9c0.4-0.7,0.9-1.1,1.7-1.1l0-0.4h0v0.4c0.4,0,0.8,0.1,1,0.3c0.3,0.2,0.5,0.5,0.7,1
	c0.2,0.5,0.4,1,0.4,1.6c0.1,0.6,0.1,1.3,0.1,2.1C626.3,462.4,626.1,463.7,625.7,464.5z M548.7,453.4c-1.5,0-2.7,0.6-3.5,1.9
	c-0.8,1.2-1.2,3-1.2,5.3c0,2.2,0.4,3.9,1.1,5.2c0.7,1.3,2,2,3.6,2c1.5,0,2.7-0.6,3.5-1.9c0.8-1.2,1.2-2.9,1.2-5.3
	c0-2.3-0.4-4.1-1.1-5.3C551.5,454.1,550.3,453.4,548.7,453.4z M550.4,464.5c-0.4,0.7-0.9,1.1-1.7,1.1c-0.4,0-0.7-0.1-1-0.3
	c-0.3-0.2-0.5-0.6-0.7-1c-0.2-0.4-0.4-1-0.5-1.6c-0.1-0.6-0.1-1.3-0.1-2.1c0-1.8,0.2-3.1,0.6-3.9c0.4-0.7,0.9-1.1,1.7-1.1h0
	c0.4,0,0.8,0.1,1,0.3c0.3,0.2,0.5,0.6,0.7,1c0.2,0.4,0.3,1,0.4,1.6c0.1,0.7,0.1,1.4,0.1,2.1C551,462.4,550.8,463.7,550.4,464.5z
	 M654.2,453.4c-1.5,0-2.7,0.6-3.5,1.9c-0.8,1.2-1.2,3-1.2,5.3c0,2.2,0.4,3.9,1.1,5.2c0.8,1.3,2,2,3.6,2c1.5,0,2.7-0.6,3.5-1.9
	c0.8-1.2,1.2-2.9,1.2-5.3c0-2.4-0.4-4.1-1.1-5.3C657.1,454.1,655.9,453.4,654.2,453.4z M656,464.5c-0.4,0.7-0.9,1.1-1.7,1.1
	c-0.4,0-0.7-0.1-1-0.3c-0.3-0.2-0.5-0.5-0.7-1c-0.2-0.4-0.4-1-0.5-1.6c-0.1-0.7-0.2-1.4-0.2-2.1c0-1.8,0.2-3.1,0.6-4
	c0.4-0.7,0.9-1.1,1.7-1.1l0-0.4h0v0.4c0.4,0,0.8,0.1,1,0.3c0.3,0.2,0.5,0.5,0.7,1c0.2,0.5,0.4,1,0.4,1.6c0.1,0.6,0.1,1.4,0.1,2.1
	C656.6,462.4,656.4,463.7,656,464.5z M731.2,453.4c-1.5,0-2.7,0.6-3.5,1.9c-0.8,1.2-1.2,3-1.2,5.3c0,2.2,0.4,3.9,1.1,5.2
	c0.7,1.3,2,2,3.6,2c1.5,0,2.7-0.6,3.5-1.9c0.8-1.2,1.2-3,1.2-5.3c0-2.3-0.4-4.1-1.1-5.3C734,454.1,732.8,453.4,731.2,453.4z
	 M732.9,464.5c-0.4,0.7-0.9,1.1-1.7,1.1c-0.4,0-0.7-0.1-1-0.3c-0.3-0.2-0.5-0.6-0.7-1c-0.2-0.4-0.4-1-0.5-1.6
	c-0.1-0.6-0.1-1.3-0.1-2.1c0-1.8,0.2-3.1,0.6-3.9c0.4-0.7,0.9-1.1,1.7-1.1h0c0.4,0,0.8,0.1,1,0.3c0.3,0.2,0.5,0.6,0.7,1
	c0.2,0.4,0.3,1,0.4,1.6c0.1,0.7,0.1,1.4,0.1,2.1C733.5,462.4,733.3,463.7,732.9,464.5z M685.7,453.4c-1.5,0-2.7,0.6-3.5,1.9
	c-0.8,1.2-1.1,3-1.1,5.3c0,2.2,0.4,3.9,1.1,5.2c0.8,1.3,2,2,3.6,2c1.5,0,2.7-0.6,3.5-1.9c0.8-1.2,1.2-3,1.2-5.3
	c0-2.3-0.4-4.1-1.1-5.3C688.6,454.1,687.4,453.4,685.7,453.4z M687.5,464.5c-0.4,0.7-0.9,1.1-1.7,1.1c-0.4,0-0.7-0.1-1-0.3
	c-0.3-0.2-0.5-0.6-0.7-1c-0.2-0.4-0.4-1-0.5-1.6c-0.1-0.6-0.1-1.3-0.1-2.1c0-1.8,0.2-3.1,0.6-3.9c0.4-0.7,0.9-1.1,1.7-1.1h0
	c0.4,0,0.8,0.1,1.1,0.3c0.3,0.2,0.5,0.5,0.7,1c0.2,0.4,0.3,1,0.4,1.6c0.1,0.7,0.1,1.4,0.1,2.1C688.1,462.4,687.9,463.7,687.5,464.5z
	 M804.9,456.8v8.5h-2.6v2.2h7.4v-2.2l-2.6,0v-11.9H806l-4.5,3.5l1.2,1.6L804.9,456.8z M790.6,453.4c-1.5,0-2.7,0.6-3.5,1.9
	c-0.8,1.2-1.2,3-1.2,5.3c0,2.2,0.4,3.9,1.1,5.2c0.8,1.3,2,2,3.6,2c1.5,0,2.7-0.6,3.5-1.9c0.8-1.2,1.2-2.9,1.2-5.3
	c0-2.4-0.4-4.1-1.1-5.3C793.5,454.1,792.2,453.4,790.6,453.4z M792.3,464.5c-0.4,0.7-0.9,1.1-1.7,1.1c-0.4,0-0.7-0.1-1-0.3
	c-0.3-0.2-0.5-0.5-0.7-1c-0.2-0.4-0.4-1-0.5-1.6c-0.1-0.7-0.2-1.4-0.2-2.1c0-1.8,0.2-3.1,0.6-4c0.4-0.7,0.9-1.1,1.7-1.1l0-0.4h0v0.4
	c0.4,0,0.8,0.1,1,0.3c0.3,0.2,0.5,0.5,0.7,1c0.2,0.5,0.4,1,0.4,1.6c0.1,0.6,0.1,1.4,0.1,2.1C793,462.4,792.7,463.7,792.3,464.5z
	 M822.1,453.4c-1.5,0-2.7,0.6-3.5,1.9c-0.8,1.2-1.1,3-1.1,5.3c0,2.2,0.4,3.9,1.1,5.2c0.8,1.3,2,2,3.6,2c1.5,0,2.7-0.6,3.5-1.9
	c0.8-1.2,1.2-3,1.2-5.3c0-2.3-0.4-4.1-1.1-5.3C825,454.1,823.8,453.4,822.1,453.4z M823.9,464.5c-0.4,0.7-0.9,1.1-1.7,1.1
	c-0.4,0-0.7-0.1-1-0.3c-0.3-0.2-0.5-0.6-0.7-1c-0.2-0.4-0.4-1-0.5-1.6c-0.1-0.6-0.1-1.3-0.1-2.1c0-1.8,0.2-3.1,0.6-3.9
	c0.4-0.7,0.9-1.1,1.7-1.1h0c0.4,0,0.8,0.1,1.1,0.3c0.3,0.2,0.5,0.5,0.7,1c0.2,0.4,0.3,1,0.4,1.6c0.1,0.7,0.1,1.4,0.1,2.1
	C824.5,462.4,824.3,463.7,823.9,464.5z M367.8,453.4c-1.5,0-2.7,0.6-3.5,1.9c-0.8,1.2-1.2,3-1.2,5.3c0,2.2,0.4,3.9,1.1,5.2
	c0.7,1.3,2,2,3.6,2c1.5,0,2.7-0.6,3.5-1.9c0.8-1.2,1.2-3,1.2-5.3c0-2.3-0.4-4.1-1.1-5.3C370.7,454.1,369.5,453.4,367.8,453.4z
	 M369.6,464.5c-0.4,0.7-0.9,1.1-1.7,1.1c-0.4,0-0.7-0.1-1-0.3c-0.3-0.2-0.5-0.6-0.7-1c-0.2-0.4-0.4-1-0.5-1.6
	c-0.1-0.6-0.1-1.3-0.1-2.1c0-1.8,0.2-3.1,0.6-3.9c0.4-0.7,0.9-1.1,1.7-1.1h0c0.4,0,0.8,0.1,1,0.3c0.3,0.2,0.5,0.6,0.7,1
	c0.2,0.4,0.3,1,0.4,1.6c0.1,0.7,0.1,1.4,0.1,2.1C370.2,462.4,370,463.7,369.6,464.5z M322.4,453.4c-1.5,0-2.7,0.6-3.5,1.9
	c-0.8,1.2-1.1,3-1.1,5.3c0,2.2,0.4,3.9,1.1,5.2c0.8,1.3,2,2,3.6,2c1.5,0,2.7-0.6,3.5-1.9c0.8-1.2,1.2-3,1.2-5.3
	c0-2.3-0.4-4.1-1.1-5.3C325.3,454.1,324,453.4,322.4,453.4z M324.1,464.5c-0.4,0.7-0.9,1.1-1.7,1.1c-0.4,0-0.7-0.1-1-0.3
	c-0.3-0.2-0.5-0.6-0.7-1c-0.2-0.4-0.4-1-0.5-1.6c-0.1-0.6-0.1-1.3-0.1-2.1c0-1.8,0.2-3.1,0.6-3.9c0.4-0.7,0.9-1.1,1.7-1.1h0
	c0.4,0,0.8,0.1,1.1,0.3c0.3,0.2,0.5,0.5,0.7,1c0.2,0.4,0.3,1,0.4,1.6c0.1,0.7,0.1,1.4,0.1,2.1C324.7,462.4,324.5,463.7,324.1,464.5z
	 M503.2,453.4c-1.5,0-2.7,0.6-3.5,1.9c-0.8,1.2-1.2,3-1.2,5.3c0,2.2,0.4,3.9,1.1,5.2c0.8,1.3,2,2,3.6,2c1.5,0,2.7-0.6,3.5-1.9
	c0.8-1.2,1.2-3,1.2-5.3c0-2.3-0.4-4.1-1.1-5.3C506.1,454.1,504.9,453.4,503.2,453.4z M504.9,464.5c-0.4,0.7-0.9,1.1-1.7,1.1
	c-0.4,0-0.7-0.1-1-0.3c-0.3-0.2-0.5-0.6-0.7-1c-0.2-0.4-0.4-1-0.5-1.6c-0.1-0.6-0.1-1.3-0.1-2.1c0-1.8,0.2-3.1,0.6-3.9
	c0.4-0.7,0.9-1.1,1.7-1.1h0c0.4,0,0.8,0.1,1.1,0.3c0.3,0.2,0.5,0.5,0.7,1c0.2,0.4,0.3,1,0.4,1.6c0.1,0.7,0.1,1.4,0.1,2.1
	C505.6,462.4,505.4,463.7,504.9,464.5z M443.1,453.4c-1.5,0-2.7,0.6-3.5,1.9c-0.8,1.2-1.2,3-1.2,5.3c0,2.2,0.4,3.9,1.1,5.2
	c0.8,1.3,2,2,3.6,2h0c1.5,0,2.7-0.6,3.5-1.9c0.8-1.2,1.2-3,1.2-5.3c0-2.4-0.4-4.1-1.1-5.3C446,454.1,444.8,453.4,443.1,453.4z
	 M443.1,467.3L443.1,467.3L443.1,467.3L443.1,467.3z M444.8,464.5c-0.4,0.8-0.9,1.1-1.7,1.1c-0.4,0-0.7-0.1-1-0.3
	c-0.3-0.2-0.5-0.6-0.7-1c-0.2-0.4-0.4-1-0.5-1.6c-0.1-0.7-0.2-1.4-0.2-2.1c0-1.8,0.2-3.1,0.6-3.9c0.4-0.7,0.9-1.1,1.7-1.1l0-0.4h0
	v0.4c0.4,0,0.8,0.1,1,0.3c0.3,0.2,0.5,0.5,0.7,1c0.2,0.5,0.4,1,0.4,1.6c0.1,0.6,0.1,1.3,0.1,2.1
	C445.5,462.4,445.3,463.7,444.8,464.5z M473.4,453.4c-1.5,0-2.7,0.6-3.5,1.9c-0.8,1.2-1.2,3-1.2,5.3c0,2.2,0.4,3.9,1.1,5.2
	c0.8,1.3,2,2,3.6,2c1.5,0,2.7-0.6,3.5-1.9c0.8-1.2,1.2-2.9,1.2-5.3c0-2.4-0.4-4.1-1.1-5.3C476.3,454.1,475,453.4,473.4,453.4z
	 M475.1,464.5c-0.4,0.7-0.9,1.1-1.7,1.1c-0.4,0-0.7-0.1-1-0.3c-0.3-0.2-0.5-0.5-0.7-1c-0.2-0.4-0.4-1-0.5-1.6
	c-0.1-0.7-0.2-1.4-0.2-2.1c0-1.8,0.2-3.1,0.6-4c0.4-0.7,0.9-1.1,1.7-1.1l0-0.4h0v0.4c0.4,0,0.8,0.1,1,0.3c0.3,0.2,0.5,0.5,0.7,1
	c0.2,0.5,0.4,1,0.4,1.6c0.1,0.6,0.1,1.4,0.1,2.1C475.8,462.4,475.5,463.7,475.1,464.5z"/>
<g>
	<path class="st14" d="M376,351.4c-1.5,0-2.7,0.6-3.5,1.9c-0.8,1.2-1.1,3-1.1,5.3c0,2.2,0.4,3.9,1.1,5.2c0.8,1.3,2,2,3.6,2
		c1.5,0,2.7-0.6,3.5-1.9c0.8-1.2,1.2-3,1.2-5.3c0-2.3-0.4-4.1-1.1-5.3C378.9,352,377.7,351.4,376,351.4z M377.7,362.5
		c-0.4,0.7-0.9,1.1-1.7,1.1c-0.4,0-0.7-0.1-1-0.3c-0.3-0.2-0.5-0.6-0.7-1c-0.2-0.4-0.4-1-0.5-1.6c-0.1-0.6-0.1-1.3-0.1-2.1
		c0-1.8,0.2-3.1,0.6-3.9c0.4-0.7,0.9-1.1,1.7-1.1h0c0.4,0,0.8,0.1,1.1,0.3c0.3,0.2,0.5,0.5,0.7,1c0.2,0.4,0.3,1,0.4,1.6
		c0.1,0.7,0.1,1.4,0.1,2.1C378.4,360.3,378.2,361.7,377.7,362.5z"/>
	<path class="st14" d="M188.8,351.4c-1.5,0-2.7,0.6-3.5,1.9c-0.8,1.2-1.2,3-1.2,5.3c0,2.2,0.4,3.9,1.1,5.2c0.8,1.3,2,2,3.6,2
		c1.5,0,2.7-0.6,3.5-1.9c0.8-1.2,1.2-3,1.2-5.3c0-2.3-0.4-4.1-1.1-5.3C191.6,352,190.4,351.4,188.8,351.4z M190.5,362.5
		c-0.4,0.7-0.9,1.1-1.7,1.1c-0.4,0-0.7-0.1-1-0.3c-0.3-0.2-0.5-0.6-0.7-1c-0.2-0.4-0.4-1-0.5-1.6c-0.1-0.6-0.1-1.3-0.1-2.1
		c0-1.8,0.2-3.1,0.6-3.9c0.4-0.7,0.9-1.1,1.7-1.1h0c0.4,0,0.8,0.1,1.1,0.3c0.3,0.2,0.5,0.5,0.7,1c0.2,0.4,0.3,1,0.4,1.6
		c0.1,0.7,0.1,1.4,0.1,2.1C191.1,360.3,190.9,361.7,190.5,362.5z"/>
	<path class="st14" d="M421.5,351.4c-1.5,0-2.7,0.6-3.5,1.9c-0.8,1.2-1.2,3-1.2,5.3c0,2.2,0.4,3.9,1.1,5.2c0.7,1.3,2,2,3.6,2
		c1.5,0,2.7-0.6,3.5-1.9c0.8-1.2,1.2-3,1.2-5.3c0-2.3-0.4-4.1-1.1-5.3C424.3,352,423.1,351.4,421.5,351.4z M423.2,362.5
		c-0.4,0.7-0.9,1.1-1.7,1.1c-0.4,0-0.7-0.1-1-0.3c-0.3-0.2-0.5-0.6-0.7-1c-0.2-0.4-0.4-1-0.5-1.6c-0.1-0.6-0.1-1.3-0.1-2.1
		c0-1.8,0.2-3.1,0.6-3.9c0.4-0.7,0.9-1.1,1.7-1.1h0c0.4,0,0.8,0.1,1,0.3c0.3,0.2,0.5,0.6,0.7,1c0.2,0.4,0.3,1,0.4,1.6
		c0.1,0.7,0.1,1.4,0.1,2.1C423.8,360.3,423.6,361.7,423.2,362.5z"/>
	<polygon class="st14" points="392.6,351.4 391.4,351.4 386.8,354.9 388,356.4 390.3,354.8 390.3,363.3 387.7,363.3 387.7,365.4 
		395.1,365.4 395.1,363.3 392.6,363.3 	"/>
	<path class="st14" d="M279.2,351.4c-1.5,0-2.7,0.6-3.5,1.9c-0.8,1.2-1.2,2.9-1.2,5.3c0,2.2,0.4,3.9,1.1,5.2c0.8,1.3,2,2,3.6,2h0
		c1.5,0,2.7-0.6,3.5-1.9c0.8-1.2,1.2-3,1.1-5.3c0-2.4-0.4-4.1-1.1-5.3C282.1,352,280.9,351.4,279.2,351.4z M280.9,362.5
		c-0.4,0.7-0.9,1.1-1.7,1.1c-0.4,0-0.7-0.1-1-0.3c-0.3-0.2-0.5-0.6-0.7-1c-0.2-0.4-0.4-1-0.5-1.6c-0.1-0.6-0.2-1.4-0.2-2.1
		c0-1.8,0.2-3.1,0.6-3.9c0.4-0.7,0.9-1.1,1.7-1.1c0.4,0,0.8,0.1,1.1,0.3c0.3,0.2,0.5,0.5,0.7,1c0.2,0.4,0.3,1,0.4,1.6
		c0.1,0.7,0.1,1.4,0.1,2.1C281.6,360.3,281.4,361.7,280.9,362.5z"/>
	<polygon class="st14" points="265.9,351.4 264.7,351.4 260.2,354.9 261.4,356.4 263.7,354.8 263.7,363.3 261.1,363.3 261.1,365.4 
		268.5,365.5 268.5,363.3 265.9,363.3 	"/>
	<path class="st14" d="M309.5,351.4c-1.5,0-2.7,0.6-3.5,1.9c-0.8,1.2-1.2,3-1.2,5.3c0,2.2,0.4,3.9,1.1,5.2c0.8,1.3,2,2,3.6,2h0
		c1.5,0,2.7-0.6,3.5-1.9c0.8-1.2,1.2-3,1.2-5.3c0-2.4-0.4-4.1-1.1-5.3C312.4,352,311.2,351.4,309.5,351.4z M311.2,362.5
		c-0.4,0.8-0.9,1.1-1.7,1.1c-0.4,0-0.7-0.1-1-0.3c-0.3-0.2-0.5-0.6-0.7-1c-0.2-0.4-0.4-1-0.5-1.6c-0.1-0.7-0.2-1.4-0.2-2.1
		c0-1.8,0.2-3.1,0.6-3.9c0.4-0.7,0.9-1.1,1.7-1.1l0-0.4h0v0.4c0.4,0,0.8,0.1,1,0.3c0.3,0.2,0.5,0.5,0.7,1c0.2,0.5,0.4,1,0.4,1.6
		c0.1,0.6,0.1,1.3,0.1,2.1C311.9,360.3,311.6,361.7,311.2,362.5z"/>
	<path class="st14" d="M249.4,351.4c-1.5,0-2.7,0.6-3.5,1.9c-0.8,1.2-1.2,3-1.2,5.3c0,2.2,0.4,3.9,1.1,5.2c0.8,1.3,2,2,3.6,2h0
		c1.5,0,2.7-0.6,3.5-1.9c0.8-1.2,1.2-3,1.2-5.3c0-2.4-0.4-4.1-1.1-5.3C252.2,352,251,351.4,249.4,351.4z M251.1,362.5
		c-0.4,0.8-0.9,1.1-1.7,1.1c-0.4,0-0.7-0.1-1-0.3c-0.3-0.2-0.5-0.6-0.7-1c-0.2-0.4-0.4-1-0.5-1.6c-0.1-0.7-0.2-1.4-0.2-2.1
		c0-1.8,0.2-3.1,0.6-3.9c0.4-0.7,0.9-1.1,1.7-1.1h0c0.4,0,0.8,0.1,1.1,0.3c0.3,0.2,0.5,0.6,0.7,1c0.2,0.5,0.3,1,0.4,1.6
		c0.1,0.6,0.1,1.3,0.1,2.1C251.7,360.3,251.5,361.7,251.1,362.5z"/>
	<path class="st14" d="M339.8,351.4c-1.5,0-2.7,0.6-3.5,1.9c-0.8,1.2-1.2,3-1.2,5.3c0,2.2,0.4,3.9,1.1,5.2c0.8,1.3,2,2,3.6,2
		c1.5,0,2.7-0.6,3.5-1.9c0.8-1.2,1.2-2.9,1.2-5.3c0-2.4-0.3-4.1-1.1-5.3C342.6,352,341.4,351.4,339.8,351.4z M341.5,362.5
		c-0.4,0.7-0.9,1.1-1.7,1.1c-0.4,0-0.7-0.1-1-0.3c-0.3-0.2-0.5-0.5-0.7-1c-0.2-0.4-0.4-1-0.5-1.6c-0.1-0.7-0.2-1.4-0.2-2.1
		c0-1.8,0.2-3.1,0.6-4c0.4-0.7,0.9-1.1,1.7-1.1l0-0.4h0v0.4c0.4,0,0.8,0.1,1,0.3c0.3,0.2,0.5,0.5,0.7,1c0.2,0.5,0.4,1,0.4,1.6
		c0.1,0.6,0.1,1.4,0.1,2.1C342.1,360.3,341.9,361.7,341.5,362.5z"/>
	<path class="st14" d="M234.2,351.4c-1.5,0-2.7,0.6-3.5,1.9c-0.8,1.2-1.2,3-1.2,5.3c0,2.2,0.4,3.9,1.1,5.2c0.7,1.3,2,2,3.6,2
		c1.5,0,2.7-0.6,3.5-1.9c0.8-1.2,1.2-2.9,1.2-5.3c0-2.3-0.4-4.1-1.1-5.3C237.1,352,235.9,351.4,234.2,351.4z M236,362.5
		c-0.4,0.7-0.9,1.1-1.7,1.1c-0.4,0-0.7-0.1-1-0.3c-0.3-0.2-0.5-0.6-0.7-1c-0.2-0.4-0.4-1-0.5-1.6c-0.1-0.6-0.1-1.3-0.1-2.1
		c0-1.8,0.2-3.1,0.6-3.9c0.4-0.7,0.9-1.1,1.7-1.1h0c0.4,0,0.8,0.1,1,0.3c0.3,0.2,0.5,0.6,0.7,1c0.2,0.4,0.3,1,0.4,1.6
		c0.1,0.7,0.1,1.4,0.1,2.1C236.6,360.3,236.4,361.7,236,362.5z"/>
	<polygon class="st14" points="295.8,351.4 294.6,351.4 290,354.9 291.2,356.4 293.5,354.8 293.5,363.3 290.9,363.3 290.9,365.4 
		298.3,365.4 298.3,363.3 295.8,363.3 	"/>
	<polygon class="st14" points="205.3,351.4 204.1,351.4 199.6,354.9 200.8,356.4 203.1,354.8 203.1,363.3 200.5,363.3 200.5,365.4 
		207.9,365.4 207.9,363.3 205.3,363.3 	"/>
	<polygon class="st14" points="356.3,351.4 355.1,351.4 350.6,354.9 351.8,356.4 354.1,354.8 354.1,363.3 351.5,363.3 351.5,365.4 
		358.9,365.4 358.9,363.3 356.3,363.3 	"/>
	<path class="st14" d="M496.7,351.4c-1.5,0-2.7,0.6-3.5,1.9c-0.8,1.2-1.2,3-1.2,5.3c0,2.2,0.4,3.9,1.1,5.2c0.8,1.3,2,2,3.6,2h0
		c1.5,0,2.7-0.6,3.5-1.9c0.8-1.2,1.2-3,1.2-5.3c0-2.4-0.4-4.1-1.1-5.3C499.6,352,498.4,351.4,496.7,351.4z M498.5,362.5
		c-0.4,0.8-0.9,1.1-1.7,1.1c-0.4,0-0.7-0.1-1-0.3c-0.3-0.2-0.5-0.6-0.7-1c-0.2-0.4-0.4-1-0.5-1.6c-0.1-0.7-0.2-1.4-0.2-2.1
		c0-1.8,0.2-3.1,0.6-3.9c0.4-0.7,0.9-1.1,1.7-1.1l0-0.4v0.4c0.4,0,0.8,0.1,1,0.3c0.3,0.2,0.5,0.5,0.7,1c0.2,0.5,0.4,1,0.4,1.6
		c0.1,0.6,0.1,1.3,0.1,2.1C499.1,360.3,498.9,361.7,498.5,362.5z"/>
	<path class="st14" d="M707.8,351.4c-1.5,0-2.7,0.6-3.5,1.9c-0.8,1.2-1.2,3-1.2,5.3c0,2.2,0.4,3.9,1.1,5.2c0.8,1.3,2,2,3.6,2
		c1.5,0,2.7-0.6,3.5-1.9c0.8-1.2,1.2-2.9,1.2-5.3c0-2.4-0.3-4.1-1.1-5.3C710.7,352,709.5,351.4,707.8,351.4z M709.6,362.5
		c-0.4,0.7-0.9,1.1-1.7,1.1c-0.4,0-0.7-0.1-1-0.3c-0.3-0.2-0.5-0.5-0.7-1c-0.2-0.4-0.4-1-0.5-1.6c-0.1-0.7-0.2-1.4-0.2-2.1
		c0-1.8,0.2-3.1,0.6-4c0.4-0.7,0.9-1.1,1.7-1.1l0-0.4v0.4c0.4,0,0.8,0.1,1,0.3c0.3,0.2,0.5,0.5,0.7,1c0.2,0.5,0.4,1,0.4,1.6
		c0.1,0.6,0.1,1.4,0.1,2.1C710.2,360.3,710,361.7,709.6,362.5z"/>
	<polygon class="st14" points="724.4,351.4 723.2,351.4 718.7,354.9 719.8,356.4 722.1,354.8 722.1,363.3 719.5,363.3 719.5,365.4 
		726.9,365.4 726.9,363.3 724.4,363.3 	"/>
	<polygon class="st14" points="663.8,351.4 662.6,351.4 658.1,354.9 659.3,356.4 661.6,354.8 661.6,363.3 659,363.3 659,365.4 
		666.4,365.4 666.4,363.3 663.8,363.3 	"/>
	<path class="st14" d="M739.4,351.4c-1.5,0-2.7,0.6-3.5,1.9c-0.8,1.2-1.1,3-1.1,5.3c0,2.2,0.4,3.9,1.1,5.2c0.8,1.3,2,2,3.6,2
		c1.5,0,2.7-0.6,3.5-1.9c0.8-1.2,1.2-3,1.2-5.3c0-2.3-0.4-4.1-1.1-5.3C742.2,352,741,351.4,739.4,351.4z M741.1,362.5
		c-0.4,0.7-0.9,1.1-1.7,1.1c-0.4,0-0.7-0.1-1-0.3c-0.3-0.2-0.5-0.6-0.7-1c-0.2-0.4-0.4-1-0.5-1.6c-0.1-0.6-0.1-1.3-0.1-2.1
		c0-1.8,0.2-3.1,0.6-3.9c0.4-0.7,0.9-1.1,1.7-1.1h0c0.4,0,0.8,0.1,1.1,0.3c0.3,0.2,0.5,0.5,0.7,1c0.2,0.4,0.3,1,0.4,1.6
		c0.1,0.7,0.1,1.4,0.1,2.1C741.7,360.3,741.5,361.7,741.1,362.5z"/>
	<path class="st14" d="M677.5,351.4c-1.5,0-2.7,0.6-3.5,1.9c-0.8,1.2-1.2,3-1.2,5.3c0,2.2,0.4,3.9,1.1,5.2c0.8,1.3,2,2,3.6,2h0
		c1.5,0,2.7-0.6,3.5-1.9c0.8-1.2,1.2-3,1.2-5.3c0-2.4-0.4-4.1-1.1-5.3C680.4,352,679.2,351.4,677.5,351.4z M679.3,362.5
		c-0.4,0.8-0.9,1.1-1.7,1.1c-0.4,0-0.7-0.1-1-0.3c-0.3-0.2-0.5-0.6-0.7-1c-0.2-0.4-0.4-1-0.5-1.6c-0.1-0.7-0.2-1.4-0.2-2.1
		c0-1.8,0.2-3.1,0.6-3.9c0.4-0.7,0.9-1.1,1.7-1.1l0-0.4v0.4c0.4,0,0.8,0.1,1,0.3c0.3,0.2,0.5,0.5,0.7,1c0.2,0.5,0.4,1,0.4,1.6
		c0.1,0.6,0.1,1.3,0.1,2.1C679.9,360.3,679.7,361.7,679.3,362.5z"/>
	<path class="st14" d="M799.9,351.4c-1.5,0-2.7,0.6-3.5,1.9c-0.8,1.2-1.2,3-1.2,5.3c0,2.2,0.4,3.9,1.1,5.2c0.8,1.3,2,2,3.6,2h0
		c1.5,0,2.7-0.6,3.5-1.9c0.8-1.2,1.2-3,1.2-5.3c0-2.4-0.4-4.1-1.1-5.3C802.8,352,801.6,351.4,799.9,351.4z M801.7,362.5
		c-0.4,0.8-0.9,1.1-1.7,1.1c-0.4,0-0.7-0.1-1-0.3c-0.3-0.2-0.5-0.6-0.7-1c-0.2-0.4-0.4-1-0.5-1.6c-0.1-0.7-0.2-1.4-0.2-2.1
		c0-1.8,0.2-3.1,0.6-3.9c0.4-0.7,0.9-1.1,1.7-1.1h0c0.4,0,0.8,0.1,1.1,0.3c0.3,0.2,0.5,0.6,0.7,1c0.2,0.5,0.3,1,0.4,1.6
		c0.1,0.6,0.1,1.3,0.1,2.1C802.3,360.3,802.1,361.7,801.7,362.5z"/>
	<polygon class="st14" points="755.9,351.4 754.7,351.4 750.2,354.9 751.4,356.4 753.7,354.8 753.7,363.3 751.1,363.3 751,365.4 
		758.5,365.4 758.5,363.3 755.9,363.3 	"/>
	<path class="st14" d="M647.3,351.4c-1.5,0-2.7,0.6-3.5,1.9c-0.8,1.2-1.2,2.9-1.2,5.3c0,2.2,0.4,3.9,1.1,5.2c0.8,1.3,2,2,3.6,2h0
		c1.5,0,2.7-0.6,3.5-1.9c0.8-1.2,1.2-3,1.1-5.3c0-2.4-0.4-4.1-1.1-5.3C650.1,352,648.9,351.4,647.3,351.4z M649,362.5
		c-0.4,0.7-0.9,1.1-1.7,1.1c-0.4,0-0.7-0.1-1-0.3c-0.3-0.2-0.5-0.6-0.7-1c-0.2-0.4-0.4-1-0.5-1.6c-0.1-0.6-0.2-1.4-0.2-2.1
		c0-1.8,0.2-3.1,0.6-3.9c0.4-0.7,0.9-1.1,1.7-1.1c0.4,0,0.8,0.1,1.1,0.3c0.3,0.2,0.5,0.5,0.7,1c0.2,0.4,0.3,1,0.4,1.6
		c0.1,0.7,0.1,1.4,0.1,2.1C649.6,360.3,649.4,361.7,649,362.5z"/>
	<path class="st14" d="M436.6,351.4c-1.5,0-2.7,0.6-3.5,1.9c-0.8,1.2-1.2,3-1.2,5.3c0,2.2,0.4,3.9,1.1,5.2c0.8,1.3,2,2,3.6,2h0
		c1.5,0,2.7-0.6,3.5-1.9c0.8-1.2,1.2-3,1.2-5.3c0-2.4-0.4-4.1-1.1-5.3C439.5,352,438.2,351.4,436.6,351.4z M438.3,362.5
		c-0.4,0.8-0.9,1.1-1.7,1.1c-0.4,0-0.7-0.1-1-0.3c-0.3-0.2-0.5-0.6-0.7-1c-0.2-0.4-0.4-1-0.5-1.6c-0.1-0.7-0.2-1.4-0.2-2.1
		c0-1.8,0.2-3.1,0.6-3.9c0.4-0.7,0.9-1.1,1.7-1.1h0c0.4,0,0.8,0.1,1.1,0.3c0.3,0.2,0.5,0.6,0.7,1c0.2,0.5,0.3,1,0.4,1.6
		c0.1,0.6,0.1,1.3,0.1,2.1C438.9,360.3,438.7,361.7,438.3,362.5z"/>
	<path class="st14" d="M784.8,351.4c-1.5,0-2.7,0.6-3.5,1.9c-0.8,1.2-1.2,3-1.2,5.3c0,2.2,0.4,3.9,1.1,5.2c0.7,1.3,2,2,3.6,2
		c1.5,0,2.7-0.6,3.5-1.9c0.8-1.2,1.2-3,1.2-5.3c0-2.3-0.4-4.1-1.1-5.3C787.7,352,786.4,351.4,784.8,351.4z M786.5,362.5
		c-0.4,0.7-0.9,1.1-1.7,1.1c-0.4,0-0.7-0.1-1-0.3c-0.3-0.2-0.5-0.6-0.7-1c-0.2-0.4-0.4-1-0.5-1.6c-0.1-0.6-0.1-1.3-0.1-2.1
		c0-1.8,0.2-3.1,0.6-3.9c0.4-0.7,0.9-1.1,1.7-1.1h0c0.4,0,0.8,0.1,1,0.3c0.3,0.2,0.5,0.6,0.7,1c0.2,0.4,0.3,1,0.4,1.6
		c0.1,0.7,0.1,1.4,0.1,2.1C787.1,360.3,786.9,361.7,786.5,362.5z"/>
	<polygon class="st14" points="816.5,363.3 816.5,351.4 815.3,351.4 810.8,354.9 811.9,356.4 814.3,354.8 814.3,363.3 811.6,363.3 
		811.6,365.4 819,365.5 819,363.3 	"/>
	<path class="st14" d="M527,351.4c-1.5,0-2.7,0.6-3.5,1.9c-0.8,1.2-1.2,3-1.2,5.3c0,2.2,0.4,3.9,1.1,5.2c0.8,1.3,2,2,3.6,2
		c1.5,0,2.7-0.6,3.5-1.9c0.8-1.2,1.2-2.9,1.2-5.3c0-2.4-0.3-4.1-1.1-5.3C529.9,352,528.7,351.4,527,351.4z M528.8,362.5
		c-0.4,0.7-0.9,1.1-1.7,1.1c-0.4,0-0.7-0.1-1-0.3c-0.3-0.2-0.5-0.5-0.7-1c-0.2-0.4-0.4-1-0.5-1.6c-0.1-0.7-0.2-1.4-0.2-2.1
		c0-1.8,0.2-3.1,0.6-4c0.4-0.7,0.9-1.1,1.7-1.1l0-0.4v0.4c0.4,0,0.8,0.1,1,0.3c0.3,0.2,0.5,0.5,0.7,1c0.2,0.5,0.4,1,0.4,1.6
		c0.1,0.6,0.1,1.4,0.1,2.1C529.4,360.3,529.2,361.7,528.8,362.5z"/>
	<polygon class="st14" points="634,351.4 632.8,351.4 628.2,354.9 629.4,356.4 631.7,354.8 631.7,363.3 629.1,363.3 629.1,365.4 
		636.5,365.5 636.5,363.3 634,363.3 	"/>
	<polygon class="st14" points="543.6,351.4 542.4,351.4 537.9,354.9 539,356.4 541.3,354.8 541.3,363.3 538.7,363.3 538.7,365.4 
		546.1,365.4 546.1,363.3 543.6,363.3 	"/>
	<polygon class="st14" points="453.1,351.4 451.9,351.4 447.4,354.9 448.6,356.4 450.9,354.8 450.9,363.3 448.3,363.3 448.3,365.4 
		455.7,365.5 455.7,363.3 453.1,363.3 	"/>
	<path class="st14" d="M466.4,351.4c-1.5,0-2.7,0.6-3.5,1.9c-0.8,1.2-1.1,2.9-1.1,5.3c0,2.2,0.4,4,1.1,5.2c0.8,1.3,2,2,3.6,2h0
		c1.5,0,2.7-0.6,3.5-1.9c0.8-1.2,1.2-3,1.1-5.3c0-2.4-0.4-4.1-1.1-5.3C469.3,352,468.1,351.4,466.4,351.4z M468.2,362.5
		c-0.4,0.7-0.9,1.1-1.7,1.1c-0.4,0-0.7-0.1-1-0.3c-0.3-0.2-0.5-0.6-0.7-1c-0.2-0.4-0.4-1-0.5-1.6c-0.1-0.6-0.2-1.4-0.2-2.1
		c0-1.8,0.2-3.1,0.6-3.9c0.4-0.7,0.9-1.1,1.7-1.1c0.4,0,0.8,0.1,1.1,0.3c0.3,0.2,0.5,0.5,0.7,1c0.2,0.4,0.3,1,0.4,1.6
		c0.1,0.7,0.1,1.4,0.1,2.1C468.8,360.3,468.6,361.7,468.2,362.5z"/>
	<polygon class="st14" points="483,351.4 481.8,351.4 477.3,354.9 478.4,356.4 480.7,354.8 480.7,363.3 478.1,363.3 478.1,365.4 
		485.5,365.4 485.5,363.3 483,363.3 	"/>
	<path class="st14" d="M617.4,351.4c-1.5,0-2.7,0.6-3.5,1.9c-0.8,1.2-1.2,3-1.2,5.3c0,2.2,0.4,3.9,1.1,5.2c0.8,1.3,2,2,3.6,2h0
		c1.5,0,2.7-0.6,3.5-1.9c0.8-1.2,1.2-3,1.2-5.3c0-2.4-0.4-4.1-1.1-5.3C620.3,352,619.1,351.4,617.4,351.4z M619.1,362.5
		c-0.4,0.8-0.9,1.1-1.7,1.1c-0.4,0-0.7-0.1-1-0.3c-0.3-0.2-0.5-0.6-0.7-1c-0.2-0.4-0.4-1-0.5-1.6c-0.1-0.7-0.2-1.4-0.2-2.1
		c0-1.8,0.2-3.1,0.6-3.9c0.4-0.7,0.9-1.1,1.7-1.1h0c0.4,0,0.8,0.1,1.1,0.3c0.3,0.2,0.5,0.6,0.7,1c0.2,0.5,0.3,1,0.4,1.6
		c0.1,0.6,0.1,1.3,0.1,2.1C619.8,360.3,619.6,361.7,619.1,362.5z"/>
	<path class="st14" d="M556.8,351.4c-1.5,0-2.7,0.6-3.5,1.9c-0.8,1.2-1.2,3-1.2,5.3c0,2.2,0.4,3.9,1.1,5.2c0.8,1.3,2,2,3.6,2
		c1.5,0,2.7-0.6,3.5-1.9c0.8-1.2,1.2-3,1.2-5.3c0-2.3-0.4-4.1-1.1-5.3C559.7,352,558.5,351.4,556.8,351.4z M558.6,362.5
		c-0.4,0.7-0.9,1.1-1.7,1.1c-0.4,0-0.7-0.1-1-0.3c-0.3-0.2-0.5-0.6-0.7-1c-0.2-0.4-0.4-1-0.5-1.6c-0.1-0.6-0.1-1.3-0.1-2.1
		c0-1.8,0.2-3.1,0.6-3.9c0.4-0.7,0.9-1.1,1.7-1.1h0c0.4,0,0.8,0.1,1.1,0.3c0.3,0.2,0.5,0.5,0.7,1c0.2,0.4,0.3,1,0.4,1.6
		c0.1,0.7,0.1,1.4,0.1,2.1C559.2,360.3,559,361.7,558.6,362.5z"/>
	<path class="st14" d="M602.3,351.4c-1.5,0-2.7,0.6-3.5,1.9c-0.8,1.2-1.2,3-1.2,5.3c0,2.2,0.4,3.9,1.1,5.2c0.7,1.3,2,2,3.6,2
		c1.5,0,2.7-0.6,3.5-1.9c0.8-1.2,1.2-2.9,1.2-5.3c0-2.3-0.4-4.1-1.1-5.3C605.1,352,603.9,351.4,602.3,351.4z M604,362.5
		c-0.4,0.7-0.9,1.1-1.7,1.1c-0.4,0-0.7-0.1-1-0.3c-0.3-0.2-0.5-0.6-0.7-1c-0.2-0.4-0.4-1-0.5-1.6c-0.1-0.6-0.1-1.3-0.1-2.1
		c0-1.8,0.2-3.1,0.6-3.9c0.4-0.7,0.9-1.1,1.7-1.1h0c0.4,0,0.8,0.1,1,0.3c0.3,0.2,0.5,0.6,0.7,1c0.2,0.4,0.3,1,0.4,1.6
		c0.1,0.7,0.1,1.4,0.1,2.1C604.6,360.3,604.4,361.7,604,362.5z"/>
	<polygon class="st14" points="573.4,351.4 572.2,351.4 567.7,354.9 568.8,356.4 571.1,354.8 571.1,363.3 568.5,363.3 568.5,365.4 
		575.9,365.4 575.9,363.3 573.4,363.3 	"/>
</g>
<g>
	<linearGradient id="SVGID_2_" gradientUnits="userSpaceOnUse" x1="256.8573" y1="311.9639" x2="329.3186" y2="311.9639">
		<stop  offset="1" style="stop-color:#ABDFF7"/>
		<stop  offset="1" style="stop-color:#1C9FDA"/>
	</linearGradient>
	<path class="st15" d="M305.8,313.5l1.1-18.7l5.6,23.7l-2.8,14.8v8.3h19.6l-3.4-22.2l-5.9-8.2l-6.9-22.3h-14.8l-7.8-4l-6,2.6
		c0,0,5,16.9,7.3,21.5c2.2,4.6,3.9,20.9,3.9,20.9l-5.6-15.2l-14-10.1v-17.1v-4.9l-17.3,1.3l3.6,13.6l-5.5,9.3l4.2,16.2l3.8,9
		l0.2,0.4v9.3h16.2h21.1l-1.1-11.8L305.8,313.5z"/>
	<path class="st2" d="M276.1,304.4l14,10.1l5.6,15.2c0,0-1.7-16.2-3.9-20.9c-2.2-4.6-7.3-21.5-7.3-21.5l6-2.6l-9.1-1.7l-5.3-0.7v4.9
		V304.4z"/>
	<polygon class="st2" points="259.9,321.3 265.5,330.9 265.5,340.5 266,341.5 269.5,330.9 263.6,315.7 263.6,303.4 268.1,289.6 
		258.2,292.4 257.7,306.7 	"/>
	<polygon class="st2" points="309.7,333.3 312.5,318.5 306.9,294.8 305.8,313.5 301.3,329.7 302.4,341.5 309.7,341.5 	"/>
	<path class="st16" d="M305.8,369.5l1.1,18.7l5.6-23.7l-2.8-14.8v-8.3h19.6l-3.4,22.2l-5.9,7.9l1.1,16.6l-22.8,6l-7.8,4l-6-2.6
		c0,0,5-16.9,7.3-21.5c2.2-4.6,3.9-20.9,3.9-20.9l-5.6,15.2l-14,10.1v17.1v4.9l-14.8,12.3l-11.8-17.3l7.3-19.2l4.2-16.2l3.8-9
		l0.2-0.4v-9.3h16.2h21.1l-1.1,11.8L305.8,369.5z"/>
	<path class="st2" d="M276.1,378.6l14-10.1l5.6-15.2c0,0-1.7,16.2-3.9,20.9c-2.2,4.6-7.3,21.5-7.3,21.5l6,2.6l-9.1,1.7l-5.3,0.7
		v-4.9V378.6z"/>
	<polygon class="st2" points="259.9,361.7 265.5,352.1 265.5,342.5 266,341.5 269.5,352.1 263.6,367.3 263.6,379.6 268.1,393.5 
		261.3,391.5 257.7,376.4 	"/>
	<polygon class="st2" points="309.7,349.8 312.5,364.5 306.9,388.3 305.8,369.5 301.3,353.3 302.4,341.5 309.7,341.5 	"/>
	<g>
		<polygon class="st7" points="127.2,403.8 129.8,423.6 129.8,437.7 108.2,439 92.5,433.9 94.8,426.8 101.2,416.7 100.9,389.5 
			95.8,352.2 133.3,352.2 133.3,383.1 		"/>
		<polygon class="st2" points="232.4,417.3 225.4,408.9 239.4,379.2 234.9,407.2 239.4,417.8 239.4,425.8 232.9,434.8 232.4,429.6 
					"/>
		<polygon class="st2" points="188.8,403.3 188.8,416.7 180.9,398.8 174.1,395.6 181.5,370 181.5,352.2 186,352.2 186,384.3 		"/>
		<polygon class="st2" points="266,362.9 265.5,363.9 260.7,373.5 251.7,379.2 246.7,398.8 246.7,412.6 242.2,402.7 244.4,388.3 
			247.8,371.9 251.7,370 253.5,352.2 266.3,352.2 266.3,362.5 		"/>
		<polygon class="st2" points="136.7,392.7 132.2,403.8 132.2,416.7 138.7,439 127.2,437.9 129.8,423.6 127.2,403.8 133.3,383.1 
			133.3,352.2 137.5,352.2 141.7,378.7 		"/>
		<linearGradient id="SVGID_3_" gradientUnits="userSpaceOnUse" x1="132.2161" y1="395.6321" x2="265.533" y2="395.6321">
			<stop  offset="1" style="stop-color:#ABDFF7"/>
			<stop  offset="1" style="stop-color:#1C9FDA"/>
		</linearGradient>
		<polygon class="st17" points="259.9,383.1 257.7,397.8 261.3,412.9 258.2,412.1 239.4,425.8 239.4,417.8 234.9,407.2 239.4,379.2 
			225.4,408.9 232.4,417.3 232.9,434.8 232.9,434.8 225.4,436.5 194.4,439 169.3,436.3 168.1,432.3 167,429.3 161.9,406.3 
			161.9,391.4 157.5,378 157.5,385.7 151.3,398.9 155.8,412.6 155.8,422.8 153.1,439 138.7,439 132.2,416.7 132.2,403.8 
			136.7,392.7 141.7,378.7 137.5,352.2 181.5,352.2 181.5,370 174.1,395.6 180.9,398.8 188.8,416.7 188.8,403.3 186,384.3 
			186,352.2 253.5,352.2 251.7,370 247.8,371.9 244.4,388.3 242.2,402.7 246.7,412.6 246.7,398.8 251.7,379.2 260.7,373.5 
			265.5,363.9 265.5,373.5 		"/>
		<polygon class="st2" points="155.8,412.6 151.3,398.9 157.5,385.7 157.5,378 161.9,391.4 161.9,406.3 167,429.3 168.1,432.3 
			171.3,436.5 153.1,439 155.8,422.8 		"/>
	</g>
	<g>
		<polygon class="st2" points="70.6,372.7 79.6,383.8 79.6,399.3 76.8,407.8 74,391.6 66.7,373.7 66.7,354.1 73.1,354.1 73.1,356.1 
					"/>
		<polygon class="st2" points="50.4,381.7 50.4,367.7 50.4,362.2 55.5,396.9 50.4,411.3 58.3,429.3 58.3,431.7 42.6,416.4 		"/>
		<polygon class="st2" points="101.2,421.2 94.8,431.7 92.5,439.1 78.8,444.4 83.9,437.5 86.4,426.4 94.8,407.8 94.8,382.2 
			94.8,354.1 95.8,354.1 100.9,392.9 		"/>
		<path class="st7" d="M94.8,407.8v-25.6v-28.1h-4.6h-17v1.9l-2.5,16.6l9,11.2v15.4l-2.8,8.5L74,391.6l-7.3-17.9v-19.6H41.9l-1,4.2
			v6.9l3.7,6.2l-6.2,9.6l-1.7,20.8l-4.5-14.1l4.1-13.8l-2.9-19.7l-33.5,5.2L0,382v48.8l44.4,13.6h34.4l5.1-6.9l2.5-11.1L94.8,407.8z
			 M58.3,431.7l-15.7-15.3l7.8-34.6v-14v-5.5l5,34.7l-5,14.4l7.8,18V431.7z"/>
		<polygon class="st2" points="40.9,365.3 44.7,371.4 38.5,381 36.8,401.7 32.3,387.7 36.5,373.8 33.6,359.4 41.9,354.1 40.9,358.3 
					"/>
	</g>
	<polygon class="st5" points="127.2,300.6 129.8,280.9 129.6,272.3 108.2,265.4 92.5,270.5 94.8,277.7 101.2,287.7 100.9,315 
		95.8,352.2 133.3,352.2 133.3,321.3 	"/>
	<polygon class="st2" points="232.4,287.2 225.4,295.6 239.4,325.2 234.9,297.3 239.4,286.6 239.4,278.7 232.4,273.6 232.4,274.9 	
		"/>
	<polygon class="st2" points="188.8,301.2 188.8,287.7 180.9,305.7 174.1,308.8 181.5,334.4 181.5,352.2 186,352.2 186,320.2 	"/>
	<polygon class="st2" points="266,341.5 265.5,340.5 260.7,331 251.7,325.2 246.7,305.7 246.7,291.8 242.2,301.7 244.4,316.2 
		247.8,332.6 251.7,334.4 253.5,352.2 264.5,352.3 269.5,352.1 266.3,342 	"/>
	<polygon class="st2" points="136.7,311.8 132.2,300.6 132.2,287.7 138.7,265.4 129.6,272.3 129.8,280.9 127.2,300.6 133.3,321.3 
		133.3,352.2 137.5,352.2 141.7,325.7 	"/>
	<polygon class="st2" points="70.6,335.6 79.6,324.5 79.6,309 76.8,300.5 74,316.7 66.7,334.6 66.7,354.1 73.1,354.1 73.1,352.2 	
		"/>
	<polygon class="st2" points="50.4,326.6 50.4,340.6 50.4,346.1 55.5,311.4 50.4,297 58.3,279 58.3,276.6 42.6,291.9 	"/>
	<polygon class="st2" points="101.2,287.1 94.8,276.6 92.5,269.2 78.8,263.9 83.9,270.8 86.4,281.8 94.8,300.5 94.8,326.1 
		94.8,354.1 95.8,354.1 100.9,315.4 	"/>
	<polygon class="st18" points="259.9,321.3 257.7,306.7 258.2,292.4 258.2,292.4 239.4,278.7 239.4,286.6 234.9,297.3 239.4,325.2 
		225.4,295.6 232.4,287.2 232.4,274.9 232.4,273.6 231,272.5 194.4,265.4 183.2,270.3 168.1,272.1 167,275.1 161.9,298.2 
		161.9,313.1 157.5,326.5 157.5,318.7 151.3,305.5 155.8,291.8 155.8,281.6 153.1,265.4 138.7,265.4 132.2,287.7 132.2,300.6 
		136.7,311.8 141.7,325.7 137.5,352.2 181.5,352.2 181.5,334.4 174.1,308.8 180.9,305.7 188.8,287.7 188.8,301.2 186,320.2 
		186,352.2 253.5,352.2 251.7,334.4 247.8,332.6 244.4,316.2 242.2,301.7 246.7,291.8 246.7,305.7 251.7,325.2 260.7,331 
		265.5,340.5 265.5,330.9 	"/>
	<polygon class="st2" points="155.8,291.8 151.3,305.5 157.5,318.7 157.5,326.5 161.9,313.1 161.9,298.2 167,275.1 168.1,272.1 
		163.9,278.8 153.1,265.4 155.8,281.6 	"/>
	<path class="st18" d="M86.4,281.8l-2.5-11.1l-5.1-6.9H44.4l-14.8,13.6l-29.7-7l0.1,88.9h33.5l2.9-24.9l-4.1-13.8l4.5-14.1l1.7,20.8
		l6.2,9.6l-3.7,6.2v6.9l1,4.2h24.7v-19.6l7.3-17.9l2.8-16.2l2.8,8.5v15.4l-9,11.2l2.5,16.6v1.9h17h4.6v-28.1v-25.6L86.4,281.8z
		 M58.3,279l-7.8,18l5,14.4l-5,34.7v-5.5v-14l-7.8-34.6l15.7-15.3V279z"/>
	<polygon class="st2" points="40.9,343 44.7,336.9 38.5,327.3 36.8,306.5 32.3,320.6 36.5,334.5 33.6,359.4 41.9,354.1 40.9,349.9 	
		"/>
	<linearGradient id="SVGID_4_" gradientUnits="userSpaceOnUse" x1="230.9833" y1="282.4624" x2="268.1199" y2="282.4624">
		<stop  offset="1" style="stop-color:#ABDFF7"/>
		<stop  offset="1" style="stop-color:#1C9FDA"/>
	</linearGradient>
	<polygon class="st19" points="239.4,278.7 258.2,292.4 268.1,289.6 238.8,274 231,272.5 	"/>
</g>
<g>
	<polygon class="st16" points="596.3,366.7 596.5,380.1 596.6,387 603.7,396.3 603.4,396.3 592.9,408.6 566.7,408.9 550.1,391.2 
		534.1,386.7 519.5,384.4 512.5,368.9 505,338.3 518,340.2 520.5,350.5 521.5,349.4 526.1,341.3 525.5,340.1 530.3,340 530.5,357.4 
		533,363.9 533.1,374.7 535.5,366.4 535.4,361.3 532.9,357 535.3,353 537,339.9 549.8,339.8 547.6,355.6 551.4,362.7 547.9,377.6 
		551.7,388.8 553.6,373.9 555.6,368.5 557.6,364.5 557.5,357.6 552.5,353.7 557.4,348.6 558.3,342 600.4,341 594.3,358.1 	"/>
	<polygon class="st2" points="521.5,349.4 520.5,350.5 518,340.2 525.5,340.1 526.1,341.3 	"/>
	<polygon class="st2" points="532.9,357 535.4,361.3 535.5,366.4 533.1,374.7 533,363.9 530.5,357.4 530.3,340 537,339.9 535.3,353 
			"/>
	<polygon class="st2" points="552.5,353.7 557.5,357.6 557.6,364.5 555.6,368.5 553.6,373.9 551.7,388.8 547.9,377.6 551.4,362.7 
		547.6,355.6 549.8,339.8 558.3,342 557.4,348.6 	"/>
</g>
<g>
	<path class="st16" d="M640.7,363.6l-1,16.3l2.8-2.4l2.3,20.5l-3.2,8.5l5.8,4.7l1.2,4.2l-8.9,0.1l-13.9,0.2l-10-7.3l-17.7,0.6
		l0.2-15.6l-0.1-9.5l5.4-8.7l-0.1-4.5L601,362c0,0-5-6.5-3.2-7c1.8-0.4,5.4-6.2,5.4-6.2l2-4.1l0.1-0.4l27.4-0.3l4.1,6.7L640.7,363.6
		z"/>
	<path class="st7" d="M747.6,342.5l-13.6,90.3l-32.2,0.7l-16.4,8.4l-5.9-9.9l-19.7,2l-4.6-18.7l-1.8,0l3.4-40.6l-0.1-10.8l-2.2-11.2
		l-7.4,0.1l-6.5-8.9l26.4-0.3l0.2,17.3l7.6,15.6l0.1,10.3c0,0,0.5,6.2,0.1,7.8c-0.4,1.7,4.3,15.6,4.3,15.6l-1,15.2l4.3-14.5
		l-0.1-9.5l-2.1-8.2l1.9-12.4l-2.5-7l-5.9-13.1l6.4-12l-0.1-5.4l45-0.6L747.6,342.5z"/>
	<path class="st2" d="M673.8,360.7l5.9,13.1l2.5,7l-1.9,12.4l2.1,8.2l0.1,9.5l-4.3,14.5l1-15.2c0,0-4.7-13.9-4.3-15.6
		c0.4-1.7-0.1-7.8-0.1-7.8l-0.1-10.3l-7.6-15.6l-0.2-17.3l13.1-0.2l0.1,5.4L673.8,360.7z"/>
	<path class="st2" d="M603.3,348.8c0,0-3.6,5.8-5.4,6.2c-1.8,0.4,3.2,7,3.2,7l2.6,8.6l0.1,4.5l-5.4,8.7l0.1,9.5l-0.2,14.8l0,0
		l-3.3-14.7l-0.1-7.8l-0.2-15.2l-2.1-9.9l4.9-16.1l8.1-0.1l-0.1,0.4L603.3,348.8z"/>
	<polygon class="st2" points="654.5,352.6 656.6,363.8 656.8,374.6 653.4,415.3 648.6,415.3 647.4,411.1 641.6,406.4 644.8,398 
		642.5,377.4 639.7,379.8 640.7,363.6 636.8,350.6 632.7,343.9 640.6,343.8 647.1,352.7 	"/>
</g>
<path class="st16" d="M751.6,383l-8.7-11.2l7.7,28.8l2.8-2.6l2.3,22.3l-3.2,9.2l5.8,5.1l1.2,4.6l-8.9,0.1l-13.9,0.2L726.4,428
	l-12.7-1.1l-4.4-11.7l-0.1-10.3l5.4-9.5l-0.1-4.9l-2.6-9.4c0,0-5.9-12.3-4.1-12.7c1.8-0.5,5.4-6.8,5.4-6.8l2.7-11.9l0.1-0.4
	l27.4-0.1l4.3,19.7L751.6,383z"/>
<path class="st7" d="M873.8,441.6l-45.4,9l-31.9-1.2l-7.3,4.2l-14.7-4.1l-8.2-10.4l-1.8,0l3.4-44.1l-0.1-11.7l-2.2-12.2l-7.4,0.1
	l-6.6-18.5l28.8-0.3l0.4,27.6l7.6,16.9l0.1,11.2c0,0,0.5,6.7,0.1,8.5c-0.4,1.8,4.3,16.9,4.3,16.9l-5.6,6l8.9-5.2L796,424l-2.2-8.9
	l1.9-13.4l-2.5-7.6l-8.4-14.2l8.9-13l-7.7-11.9l42.5-0.6l45.5-0.3"/>
<path class="st2" d="M787.2,379.9l5.9,14.2l2.5,7.6l-1.9,13.4l2.2,8.9l0.1,10.3l-8.9,5.2l5.6-6c0,0-4.7-15.1-4.3-16.9
	c0.4-1.8-0.1-8.5-0.1-8.5l-0.1-11.2l-7.6-16.9l-0.4-27.6l5.6,2.6l7.7,11.9L787.2,379.9z"/>
<path class="st2" d="M713.3,361.7c0,0-3.6,6.3-5.4,6.8c-1.8,0.5,4.1,12.7,4.1,12.7l2.6,9.4l0.1,4.9l-5.4,9.5l0.1,10.3l4.4,11.7
	l-0.9-0.1l-7.1-11.6l-0.1-8.5l-0.2-16.5l-2.1-10.7l2.6-16l10.2-14.2l-0.1,0.4L713.3,361.7z"/>
<polygon class="st2" points="765.4,371.1 767.6,383.3 767.8,395 764.4,439.1 759.6,439.2 758.4,434.6 752.6,429.5 755.8,420.3 
	753.5,398 750.6,400.6 742.9,371.8 751.6,383 747.8,368.9 743.5,349.3 754.7,351.4 758,371.2 "/>
<path class="st5" d="M595.7,316.4l-0.2-13.4l-0.1-6.9l6.9-9.5l-0.3,0c0,0-1.5-6.6-5-8c-16.2-6.2-32.6-6-32.6-6l-15.5,20.4L533,298
	l-8.9,5.2l-12.2,13.2l-6.9,22l13.1,1.9l2.2-10.3l1,1.1l4.8,7.9l-0.5,1.3l4.7-0.1l-0.2-12.7l2.4-6.5l-0.1-10.9l2.6,8.3l0.1,5.1
	l-2.4,4.4l2.5,4l2,8.3l12.8-0.2l-2.5-11l3.6-7.3l-3.9-14.8l3.5-11.3l2.2,14.8l2.1,5.4l2.1,4l0.1,6.9l-4.9,4l5,5l1.1,6.5l39.4-0.5
	l-3.8-16.4L595.7,316.4z"/>
<linearGradient id="SVGID_5_" gradientUnits="userSpaceOnUse" x1="592.4925" y1="311.2213" x2="642.9316" y2="311.2213" gradientTransform="matrix(0.9999 -1.242175e-002 1.242175e-002 0.9999 0.5139 4.6702)">
	<stop  offset="1" style="stop-color:#ABDFF7"/>
	<stop  offset="1" style="stop-color:#1C9FDA"/>
</linearGradient>
<path class="st20" d="M640.2,324l-1.4-16.2l2.9,2.3l1.8-20.6l-3.4-8.4l5.7-4.8l1.1-4.2l-8.9,0.1l-13.9,0.2l-10.1,10l-12.7,2.1
	l-4.1,10.9l0.1,9.5l5.6,8.6l0.1,4.5l-2.3,8.7c0,0-4.8,6.6-3,7c1.8,0.4,5.6,6.1,5.6,6.1l2.1,4.1l0.1,0.4l27.4-0.3l4-6.8L640.2,324z"
	/>
<linearGradient id="SVGID_6_" gradientUnits="userSpaceOnUse" x1="635.8636" y1="299.6929" x2="742.7978" y2="299.6929" gradientTransform="matrix(0.9999 -1.242175e-002 1.242175e-002 0.9999 0.5139 4.6702)">
	<stop  offset="1" style="stop-color:#ABDFF7"/>
	<stop  offset="1" style="stop-color:#1C9FDA"/>
</linearGradient>
<path class="st21" d="M747.6,342.5l-17.5-67.9l-32.9-15.5L683,248.6l-7.6,11.6l-17.2-0.2l-7,6.9l0.4,5.1l4.4,40.5l0.1,10.8
	l-1.9,11.3l-7.4,0.1l-6.2,9l26.4-0.3l-0.2-17.3l7.2-15.7l-0.1-10.3c0,0,0.3-6.2-0.1-7.8c-0.4-1.6,3.9-15.7,3.9-15.7l-1.4-15.2
	l4.7,14.4l0.1,9.5l-1.9,8.3l2.2,12.3l-2.4,7l-5.6,13.2l6.7,11.9l0.1,5.4l45-0.6L747.6,342.5z"/>
<path class="st2" d="M673.3,326.1l5.6-13.2l2.4-7l-2.2-12.3l1.9-8.3l-0.1-9.5l-4.7-14.4l1.4,15.2c0,0-4.3,14.1-3.9,15.7
	c0.4,1.6,0.1,7.8,0.1,7.8l0.1,10.3l-7.2,15.7l0.2,17.3l13.1-0.2l-0.1-5.4L673.3,326.1z"/>
<polygon class="st2" points="532.9,314.3 535.3,310 535.3,304.9 532.9,296.6 532.9,307.4 530.4,313.9 530.4,326.6 537.2,326.6 
	535.3,318.3 "/>
<polygon class="st2" points="552.2,330.5 557.1,326.5 557,319.6 554.9,315.6 552.8,310.2 550.6,295.4 547,306.7 550.9,321.5 
	547.3,328.8 549.8,339.8 558.3,342 557.2,335.5 "/>
<path class="st2" d="M603.1,339.7c0,0-3.8-5.7-5.6-6.1c-1.8-0.4,3-7,3-7l2.3-8.7l-0.1-4.5l-5.6-8.6l-0.1-9.5l4.1-10.9l-0.9,0.1
	l-6.8,10.8l0.1,7.8l0.2,15.2l-1.8,9.9l5.3,16l8.1-0.1l-0.1-0.4L603.1,339.7z"/>
<polygon class="st2" points="654.2,334.7 656.1,323.4 656,312.5 651.5,266.9 646.8,272.1 645.7,276.3 640.1,281.1 643.4,289.5 
	641.7,310.1 638.8,307.8 640.2,324 636.7,337 632.7,343.9 640.6,343.8 646.9,334.8 "/>
<path class="st5" d="M750.9,327.7l-8.4,11.4l7-29l2.9,2.5l1.8-22.4l-3.4-9.1l5.7-5.2l1.1-4.6l-8.9,0.1l-18.4,3.1l-5.6,8.8l-12.7,1.4
	l-4.1,11.8l0.1,10.3l5.6,9.3l0.1,4.9l-2.3,9.4c0,0-4.8,7.2-3,7.6c1.8,0.4,5.6,6.6,5.6,6.6l2.1,4.4l0.1,0.4l27.4-0.3l4-7.4
	L750.9,327.7z"/>
<path class="st18" d="M873.8,250.7l-48.7-16.8l-28.1,12l-7.6,12.6l-17.2-0.2l-6,9.9l-0.6,3.1l4.5,44l0.1,11.8l-1.9,12.2l-7.4,0.1
	l-6.2,13.3l26.4-0.3l-0.3-22.3l7.2-17.1l-0.1-11.2c0,0,0.3-6.7-0.1-8.5c-0.4-1.8,3.9-17,3.9-17l-1.4-16.5l4.7,15.6l0.1,10.3l-1.9,9
	l2.2,13.4l-2.4,7.6l-5.5,14.4l6.7,12.9l-7.4,12.1l45-0.6l42.1-0.2"/>
<path class="st2" d="M787.5,330l5.5-14.4l2.4-7.6l-2.2-13.4l1.9-9l-0.1-10.3l-4.7-15.6l1.4,16.5c0,0-4.3,15.2-3.9,17
	c0.4,1.8,0.1,8.5,0.1,8.5l0.1,11.2l-7.2,17.1l0.3,22.3l5.5,2.6l7.4-12.1L787.5,330z"/>
<path class="st2" d="M713.8,344.7c0,0-3.8-6.2-5.6-6.6c-1.8-0.4,3-7.6,3-7.6l2.3-9.4l-0.1-4.9l-5.6-9.3l-0.1-10.3l4.1-11.8l-0.9,0.1
	l-6.8,11.7l0.1,8.5l0.2,16.5l-1.8,10.7l3.8,10.8l9.6,6.5l-0.1-0.4L713.8,344.7z"/>
<polygon class="st2" points="768.4,339.2 770.2,324 769.6,310.5 766,269.4 757.4,271.3 756.4,275.9 750.7,281.2 754.1,290.3 
	752.3,312.6 749.4,310.1 742.4,339.1 750.9,327.7 747.4,341.8 743.4,349.3 754.8,352.6 761,339.3 "/>
<rect x="11" y="7.5" class="st22" width="843.1" height="491.3"/>
</svg>
