<?xml version="1.0" encoding="utf-8"?>
<!-- Generator: Adobe Illustrator 19.1.0, SVG Export Plug-In . SVG Version: 6.00 Build 0)  -->
<svg version="1.1" id="Layer_1" xmlns="http://www.w3.org/2000/svg" xmlns:xlink="http://www.w3.org/1999/xlink" x="0px" y="0px"
	 viewBox="0 0 843.1 491.3" style="enable-background:new 0 0 843.1 491.3;" xml:space="preserve">
<style type="text/css">
	.st0{clip-path:url(#SVGID_2_);}
	.st1{fill:#3CD52E;}
	.st2{font-family:'HarrietDisplay-Bold';}
	.st3{font-size:25.9049px;}
	.st4{fill:#59B145;}
	.st5{fill:#212126;}
	.st6{font-family:'AkzidenzGroteskBE-Bold';}
	.st7{font-size:33.6105px;}
	.st8{fill:#FFFFFF;}
	.st9{clip-path:url(#SVGID_4_);}
	.st10{fill:#50748A;}
	.st11{fill:#001E26;}
	.st12{fill:#002C39;}
	.st13{fill:#001F26;}
	.st14{fill:#000F13;}
	.st15{fill:#003B4C;}
	.st16{clip-path:url(#SVGID_4_);fill-rule:evenodd;clip-rule:evenodd;fill:#FFFFFF;}
	.st17{fill-rule:evenodd;clip-rule:evenodd;fill:#02303A;}
	.st18{fill-rule:evenodd;clip-rule:evenodd;fill:#FFFFFF;}
	.st19{fill:#131C23;}
	.st20{fill:#13697D;}
</style>
<g>
	<defs>
		<rect id="SVGID_1_" x="0" width="843.1" height="491.3"/>
	</defs>
	<clipPath id="SVGID_2_">
		<use xlink:href="#SVGID_1_"  style="overflow:visible;"/>
	</clipPath>
	<g class="st0">
		<text transform="matrix(1 0 0 1 50.9603 460.1195)" class="st1 st2 st3">Build Happiness.</text>
		<g>
			<g>
				<g>
					<g>
						<g>
							<g>
								<g>
									<path class="st4" d="M725.7,44c0,0,0,4.3,0,5.7c-0.2,4.4-3,11.3-13.3,11.2c-9.2,0-14-7.4-14-15.4c0-9.4,6.2-15.9,14.4-15.9
										c6.2,0,10.7,3.8,12.5,8.8l-5.3,2.1c-0.5-1.6-2.1-5.9-7.2-5.9c-5.6,0-8.4,4.9-8.4,10.7c0,6.5,3.5,10.3,8.4,10.3
										c3.1,0,7.2-1.6,7.7-6.9l-7.8,0l0-4.9L725.7,44z"/>
									<path class="st4" d="M733.6,39.2l0,3c0.6-1.1,2-3.6,6.8-3.4V44c-1.1,0-3,0.1-4.6,1.2c-2.2,1.6-2.2,3.8-2.2,7.3l0,8h-4.9
										V39.2L733.6,39.2z"/>
									<path class="st4" d="M742.4,45.5c0.1-1.1,0.2-1.9,0.9-3.2c2-3.7,7-3.6,8.4-3.6c2,0,4.5,0.3,6.3,1.4
										c2.5,1.5,2.5,3.5,2.5,5.8V57c0,1.6,0,2.3,0.9,3.5h-6c0-0.5-0.1-1.5-0.1-1.8c-1.1,0.9-3.3,2.1-6.2,2.1c-4.8,0-7.6-3-7.6-6.6
										c0-1.1,0.3-2,0.7-2.9c1.5-3,4.8-3.7,6.8-4.1c6.9-1.2,6.5-1.8,6.4-2.9c-0.1-1-1.1-1.9-3.4-1.9c-2.1,0-3.2,0.7-3.8,1.3
										c-0.6,0.7-0.5,1.3-0.5,1.9L742.4,45.5z M755.4,49.9c-1,0.5-2.2,0.9-4.4,1.2c-1.8,0.2-4.2,0.7-4.2,2.9
										c0,1.6,1.4,2.5,3.4,2.5c2.6,0,4.4-1.2,4.9-2.4c0.3-0.6,0.3-1.3,0.3-1.9L755.4,49.9z"/>
									<path class="st4" d="M783.1,30.7v29.8h-5v-2.1c-1.6,1.9-3.8,2.6-6,2.6c-5,0-9.3-3.8-9.3-10.7c0-6.3,3.6-11.6,9.6-11.6
										c2.1,0,4.1,0.6,5.7,2.4V30.7L783.1,30.7z M776.8,45.4c-0.8-1.1-2-1.9-3.7-2c-3.4,0-5.1,3.1-5.1,6.4c0,0.4,0,6.7,5,6.7
										c2.6,0,5-1.9,5-6.5C777.9,48.7,777.8,46.8,776.8,45.4z"/>
									<path class="st4" d="M791.8,30.8v29.8h-5.1V30.7L791.8,30.8z"/>
									<path class="st4" d="M814.5,55.6c-2.3,4.1-5.3,5.6-9.6,5.6c-5.5,0-10.8-3.5-10.8-11.3c0-7.6,4.6-11.1,10.5-11
										c5.6,0,7.9,3.4,8.3,4c1.7,2.4,2.1,6.1,2.1,8.2h-15.6c0.6,3.3,2.6,5.2,6,5.2c3.5,0,4.4-2,5-2.9L814.5,55.6z M809.5,47.3
										c-0.5-3.3-2.5-4.4-4.7-4.4c-2.7,0-4.6,1.6-5.2,4.4H809.5z"/>
								</g>
							</g>
						</g>
					</g>
				</g>
			</g>
		</g>
		<text transform="matrix(1 0 0 1 50.2601 60.4809)"><tspan x="0" y="0" class="st5 st6 st7">End </tspan><tspan x="71.4" y="0" class="st8 st6 st7">Code Freeze</tspan></text>
		<g>
			<g>
				<g>
					<defs>
						<polygon id="SVGID_3_" points="863.4,507.4 -19.4,507.4 -19.4,-9.7 864.5,-9.7 						"/>
					</defs>
					<clipPath id="SVGID_4_">
						<use xlink:href="#SVGID_3_"  style="overflow:visible;"/>
					</clipPath>
					<g class="st9">
						<g>
							<polygon class="st10" points="882.6,-5.5 881.9,520.6 -15.7,516.4 -19.4,-9.7 							"/>
							<polygon class="st11" points="459.8,253.2 407.9,159.9 605,314.9 							"/>
							<polygon class="st12" points="390.6,131.2 626,252.1 608.4,304.4 							"/>
							<polygon class="st13" points="364.5,105.8 528.8,70.7 629.8,240.5 							"/>
							<polygon class="st14" points="482.6,394.1 454.5,263.5 597.1,321.5 528.5,380.3 							"/>
							<polygon class="st13" points="280.6,406.6 442.2,263.2 469.1,400.1 400.3,422.9 							"/>
							<polygon class="st12" points="193.6,396.2 265.2,404 346.4,330.8 							"/>
							<polygon class="st13" points="-17,372 186.6,396.2 -17.6,288.7 							"/>
							<polygon class="st12" points="-16.7,275.8 110.3,343.1 -17.3,177.1 							"/>
							<polygon class="st12" points="-20.4,151.2 84.5,288.7 30.8,23.8 -17.3,70.5 							"/>
							<polygon class="st15" points="47,36.6 85.7,226.8 158.2,-25.9 							"/>
							<polygon class="st11" points="156.1,33.5 110.3,182.2 300.1,-25.3 							"/>
							<polygon class="st12" points="271.6,16.7 165.6,142.8 431.3,3.2 							"/>
							<polygon class="st15" points="381.6,45.2 224.3,127.1 538,57.8 							"/>
							<polygon class="st14" points="642.8,246.1 863.4,507.4 859.4,306 							"/>
							<polygon class="st14" points="525,47.9 638.2,232.3 859.4,293.3 859.4,49.6 							"/>
							<polygon class="st12" points="560.1,512.6 636.7,257.1 846.7,510.5 							"/>
							<polygon class="st11" points="176.2,520.6 516.7,393.9 383.9,516.9 							"/>
							<polygon class="st14" points="-18.4,384.8 383,430.6 155.6,514 -20.4,515.1 							"/>
							<polygon class="st12" points="408.3,511.2 601,331.8 548.5,510.1 							"/>
						</g>
					</g>
					<path class="st16" d="M804.6,515.9c23.4,10.2,104.5,10.1,70.9-35.2c-10.3-13.9-47-27.5-57.2-32.4
						C707,395.3,694.8,308,684.6,209.2c-0.3-2.8-4.8-3.4-5.9-0.7C588.9,419.4,764.3,498.4,804.6,515.9L804.6,515.9z"/>
					<path class="st16" d="M909.2,438.9c23.4,5.2,34.6-25.4,40.1-41.2c7-20.1-32.1-19.9-42.6-22c-109.9-22.7-142-105.9-172.9-193.3
						c-0.9-2.5-5.1-2.2-5.5,0.4C693.5,388.1,869,429.9,909.2,438.9L909.2,438.9z"/>
					<path class="st16" d="M749.9,574.1c21,5.5,32.6-22,38.3-36.2c7.2-18-28.4-19.2-37.8-21.5c-99.1-24.3-124.8-101.1-149.1-181.7
						c-0.7-2.3-4.5-2.2-5,0.2C555.7,520.7,713.7,564.5,749.9,574.1L749.9,574.1z"/>
					<path class="st16" d="M643.7,624.4c19.9,8.2,35.9-17.6,43.9-30.9c10.1-16.9-24.9-22.6-33.8-26.1
						c-93.9-36.8-106.6-116-117.3-198.9c-0.3-2.4-4.1-2.7-5-0.5C460.5,546.7,609.5,610.3,643.7,624.4L643.7,624.4z"/>
					<path class="st16" d="M911.5,338.2c15.4,4,23.7-16.1,27.8-26.6c5.2-13.2-20.8-13.9-27.7-15.6C839.1,278.5,820,222.5,802,163.7
						c-0.5-1.7-3.3-1.6-3.7,0.1C769.4,299.7,885,331.3,911.5,338.2L911.5,338.2z"/>
				</g>
			</g>
			<g>
				<g>
					<g>
						<g>
							<g>
								<path class="st17" d="M316.3,137.1c-14.5-12.4-41.8-11.1-49.1,11.9c-0.2,0.5,0,1.1,0.4,1.4l9.2,9.1c0.8,0.8,2.2,0.3,2.4-0.8
									c1.1-7.1,5.8-10.4,11.1-11.4c22-4.1,28.1,30.3,17.3,45.1c-5.6,4.5-10.6,6.7-16.1,8c-12.5,2.9-14.1,1.2-28.3-0.7
									c-31.3-4.1-68.8,27.8-82.9,43.3c-4.8,5.3-2.4,11.9,2.9,16.1c6.3,5,19.4,15.4,29.5,20c10.4,4.8,15.1-0.3,18.9-5.4
									c3.7-5,8-12.8,8.8-18.3c0.4-2.9,1.9-2.6,1.9-1.3c0.2,8.3-3.3,19.2-8.3,25.7c-5.1,6.7-14.2,9.9-21.2,6.8
									c-6.9-3.2-13.5-6.9-27.1-17.3c-26.5,38.2-8.8,72.9,12.9,111c0.4,0.8,2.1,3.6,6.3,1.4c9.6-4.9,14.3-7.2,18.8-9.7
									c0.6-0.3,0.8-1.1,0.6-1.6c-6.7-15.5,4.1-46.2,32-16.3c0.5,0.5,1.2,0.7,1.8,0.4l15.5-8c0.6-0.3,0.9-0.9,0.7-1.6
									c-7.8-34.6,21.5-54.1,55.9-29.3c0.4,0.3,0.9,0.5,1.4,0.3c7.8-4,14.7-7.6,22.3-11.5c2.2-1.2,1.2-2.6,0.6-3.8
									c-8.8-16.3-18.1-30.5-14.1-47.7C347.5,221.2,353.3,168.6,316.3,137.1z"/>
							</g>
							<g>
								<path class="st18" d="M278.6,242.4c-13,1-14.2-12.8-14.2-12.8s11.4-0.9,26.8-2C292,231.6,288.5,241.6,278.6,242.4z"/>
								<path class="st17" d="M284.7,228.9c1.8,3.2,0.7,7.2-2.4,9s-7.1,0.7-8.9-2.5s-0.7-7.2,2.4-9
									C278.9,224.6,282.9,225.7,284.7,228.9z"/>
							</g>
						</g>
					</g>
				</g>
				<path class="st10" d="M328.9,246.1l-2.7-0.2c0.7-12.4,4-20.8,9.7-24.9c5.2-3.8,10.5-2.4,10.8-2.3l-0.7,2.6l0.4-1.3l-0.4,1.3
					c-0.2,0-4.3-1.1-8.5,1.9C332.6,226.9,329.6,234.7,328.9,246.1z"/>
			</g>
		</g>
		<rect x="-19.3" y="-9.7" class="st19" width="888.1" height="84.7"/>
		<g>
			<text transform="matrix(1 0 0 1 50.2601 58.3803)"><tspan x="0" y="0" class="st20 st6 st7">End</tspan><tspan x="62.3" y="0" class="st8 st6 st7"> Deathmarches</tspan></text>
		</g>
	</g>
</g>
</svg>
