<?xml version="1.0" encoding="utf-8"?>
<!-- Generator: Adobe Illustrator 19.1.0, SVG Export Plug-In . SVG Version: 6.00 Build 0)  -->
<svg version="1.1" id="Layer_1" xmlns="http://www.w3.org/2000/svg" xmlns:xlink="http://www.w3.org/1999/xlink" x="0px" y="0px"
	 viewBox="0 0 841.9 491.3" style="enable-background:new 0 0 841.9 491.3;" xml:space="preserve">
<style type="text/css">
	.st0{clip-path:url(#SVGID_2_);}
	.st1{fill:#13697D;}
	.st2{fill:#212126;}
	.st3{font-family:'AkzidenzGroteskBE-Bold';}
	.st4{font-size:33.6105px;}
	.st5{fill:#FFFFFF;}
	.st6{fill:#02303A;}
	.st7{fill:#50748A;}
	.st8{fill-rule:evenodd;clip-rule:evenodd;fill:#FFFFFF;}
	.st9{fill-rule:evenodd;clip-rule:evenodd;fill:#02303A;}
	.st10{fill:#000F13;}
	.st11{fill:#CFCFCF;}
	.st12{fill:#999999;}
	.st13{fill:#00303C;}
	.st14{fill:#F5F5F5;}
	.st15{fill:#EBAA49;}
	.st16{fill:#D3ADAD;}
	.st17{fill:#FFD273;}
	.st18{fill:#1C1C26;}
	.st19{fill:#121219;}
	.st20{fill:#435363;}
</style>
<g>
	<defs>
		<rect id="SVGID_1_" x="0" y="0" width="843.1" height="491.3"/>
	</defs>
	<clipPath id="SVGID_2_">
		<use xlink:href="#SVGID_1_"  style="overflow:visible;"/>
	</clipPath>
	<g class="st0">
		<rect x="-11" y="-7.5" class="st1" width="878.4" height="513.7"/>
		<text transform="matrix(1 0 0 1 50.2601 60.4809)"><tspan x="0" y="0" class="st2 st3 st4">End </tspan><tspan x="71.4" y="0" class="st5 st3 st4">Long Build Times</tspan></text>
		<g>
			<g>
				<g>
					<path class="st6" d="M590.4,306.3c-8.3-9.7-15.8-22.4-17.7-35.5c-0.8-5.8-0.6-11.6,1.1-17.3c9.7-32.5,21.4-109.5-17.6-144.6
						c-18-16.1-51.6-17.9-63,10.4c-0.2,0.6-0.1,1.3,0.3,1.8l10.8,12.4c1,1.1,2.8,0.6,3.1-0.8c2-8.9,8.3-12.6,15-13.3
						c28.1-3.2,32.7,40.8,17.6,58.4c-4.7,5.5-13.5,8.5-20.4,10.1c-20.9,4.6-23.3,0.8-41-2.9c-39-8.1-77.9,42.1-97,60.4
						c-6.5,6.2-4.1,14.8,2.2,20.6c7.5,6.9,23.1,21.1,35.3,27.9c12.7,7,19.1,1,24.3-5.1c4.5-5.3,10.3-16.5,13.5-23.4
						c0.4-0.8,1.5-0.4,1.3,0.5c-1.9,8.1-6,22.2-12.4,30.9c-6.4,8.5-18.9,11.2-27.3,6.5c-8.5-4.6-16.4-9.9-32.6-24.3
						c-1.6-1.4-14.8,25.8-15.7,28.7c-3.5,11-4.6,22.7-4.4,34.2c0.5,26.2,11.3,53,22.9,76.1c1.3,2.6,4.6,4.8,6.1,5.4
						c7.5,0.2,15,0.3,22.5,0.4c2-0.3,3-0.5,3.7-0.5c1.4-1.4,2.4-3.3,2.6-5.7c-2-9.4-3.2-24.2,1.4-29.4c3.8-4.3,13.1-5.7,18.5,1.2
						c2.8,3.6,5.4,17.8,7.1,26.9c2.6,5.1,3.6,5.5,9.1,7c0,0,28.6,0,28.6,0c7.5,0,4-7.4,2.3-11.5c-10.2-25.6-10.5-37-9.1-30.2
						c-1.9-8.8-3.7-17.8-2.9-26.8c1.6-19.5,8.3-42.8,32.3-41.6c11,0.5,22.6,5.6,30.7,12.9c0.6,0.6,1.3,1.1,2,1.5
						c1.1,0.6,2.4,0.6,3.7,0.7c7,0.4,15.3,1.5,21.9-1.4c6.4-2.8,10.8-8.9,15.9-13.4c1.7-1,3.5-1.9,5.2-2.9
						C593.1,309,591.3,307.3,590.4,306.3z"/>
					<path class="st7" d="M560.5,249.3l-2.9-0.7c3.4-13.4,8.7-21.8,15.7-25.1c6.5-3,12-0.4,12.2-0.3l-1.3,2.7l0.7-1.4l-0.7,1.4
						c-0.2-0.1-4.5-2.1-9.7,0.4C568.4,229.1,563.5,237.1,560.5,249.3z"/>
					<g>
						<path class="st8" d="M501,233.4c-16.6-3.9-12.7-21.4-12.7-21.4s14.5,3.3,34,7.9C521.8,225.2,513.5,236.3,501,233.4z"/>
						<path class="st9" d="M513.7,219.1c1,4.6-1.9,9.2-6.5,10.2c-4.6,1-9.1-1.9-10-6.6s1.9-9.2,6.5-10.2
							C508.3,211.5,512.8,214.5,513.7,219.1z"/>
					</g>
				</g>
				<g>
					<g>
						<path class="st10" d="M119.4,199.2c-5-53.1,34-100.2,87.1-105.2c53.1-5,100.2,34,105.2,87.1c5,53.1-34,100.2-87.1,105.2
							C171.5,291.3,124.4,252.3,119.4,199.2z"/>
						<circle class="st11" cx="215.6" cy="190.2" r="77.9"/>
						<circle class="st5" cx="215.6" cy="190.2" r="72.8"/>
						<path class="st12" d="M269,198.7l19.4-10.4c0-1.6-0.1-3.2-0.3-4.8l-19,12l-6.2-2.5l-65.3,40.9l-39.5,1c1,1.2,2,2.5,3,3.6
							l32.8-2.4L173,249.2c1.2,0.9,2.4,1.7,3.7,2.5l40.8-26.3l2,13.3l-15,23.5c1.1,0.2,2.3,0.3,3.5,0.4l14.1-23.2l-2.7-15.1l43.4-28
							L269,198.7z"/>
					</g>
					<g>
						
							<rect x="221.1" y="145" transform="matrix(0.889 0.4579 -0.4579 0.889 105.3282 -84.2093)" class="st13" width="10.6" height="60.4"/>
					</g>
					<g>
						
							<rect x="171.9" y="167.1" transform="matrix(-0.4488 -0.8936 0.8936 -0.4488 148.8534 431.2284)" class="st13" width="71.1" height="5.3"/>
					</g>
				</g>
				<g>
					<rect x="522.8" y="313.4" class="st14" width="60.7" height="3.4"/>
					<rect x="524.6" y="316.3" class="st5" width="61.8" height="4.8"/>
					<path class="st5" d="M526.6,309.1c50.6,2.3,66.9-7.1,66.9-7.1l-1.5,4c0,0-6,2.5-24.7,5.2c9.7,0,21.4,0,21.4,0l-1.4,2.6h-60.7
						C526.6,313.9,526.6,311.4,526.6,309.1z"/>
					<g>
						<path class="st5" d="M542.6,307.6l-0.1-3.7c0.4,0,39-1.3,56.7-18.2l2.6,2.7C583.1,306.3,544.2,307.6,542.6,307.6z"/>
					</g>
				</g>
				<g>
					<rect x="615.5" y="309.1" class="st14" width="60.7" height="5.3"/>
					<rect x="616.3" y="288.9" class="st14" width="60.7" height="5.3"/>
					<rect x="615" y="230.9" class="st14" width="60.7" height="5.3"/>
					
						<rect x="629.5" y="177.2" transform="matrix(-0.977 -0.2131 0.2131 -0.977 1266.1107 496.3001)" class="st14" width="60.7" height="5.3"/>
					<rect x="619.7" y="276.4" class="st14" width="60.7" height="3.7"/>
					<rect x="622.4" y="250" class="st14" width="60.7" height="3.7"/>
					
						<rect x="624.1" y="203.3" transform="matrix(-0.9977 -6.767002e-002 6.767002e-002 -0.9977 1293.4363 454.0002)" class="st14" width="60.7" height="3.7"/>
					
						<rect x="648" y="147.7" transform="matrix(-0.9672 -0.2539 0.2539 -0.9672 1296.4806 466.3487)" class="st14" width="60.7" height="3.7"/>
					<rect x="617.3" y="313.6" class="st5" width="61.8" height="7.5"/>
					<rect x="619.3" y="293.9" class="st5" width="60.7" height="16"/>
					<rect x="617.8" y="279.5" class="st5" width="60.7" height="9.7"/>
					<rect x="616.1" y="236.2" class="st5" width="60.7" height="14"/>
					<rect x="618.7" y="253.1" class="st5" width="60.7" height="23.4"/>
					
						<rect x="619.6" y="206.2" transform="matrix(-0.9977 -6.767002e-002 6.767002e-002 -0.9977 1283.5841 479.2781)" class="st5" width="60.7" height="23.4"/>
					
						<rect x="624.7" y="182.6" transform="matrix(-0.9845 -0.1756 0.1756 -0.9845 1266.3556 495.257)" class="st5" width="60.7" height="18"/>
					
						<rect x="676.3" y="145.4" transform="matrix(-0.9218 -0.3877 0.3877 -0.9218 1300.9338 557.3012)" class="st5" width="60.7" height="4"/>
					
						<rect x="646.9" y="151.4" transform="matrix(-0.9672 -0.2539 0.2539 -0.9672 1290.2803 498.2143)" class="st5" width="60.7" height="28.8"/>
					<g>
						<path class="st5" d="M713.2,129.4c-3.2,0-6.2-0.1-8.9-0.3c-14.3-1.1-24.2-4.3-24.6-4.4l1.2-3.5c0.4,0.1,39.3,12.5,73.3-4.3
							l1.6,3.3C741.1,127.4,725.6,129.4,713.2,129.4z"/>
					</g>
					<g>
						<path class="st5" d="M723.2,142.3c-33.5,0-65.3-15.7-66.9-16.5l1.7-3.3c0.4,0.2,43.6,21.5,81.1,14.7l0.7,3.7
							C734.3,141.9,728.8,142.3,723.2,142.3z"/>
					</g>
					<g>
						<path class="st5" d="M626.6,120c-0.2,0-0.4,0-0.4,0l0.1-3.7l0,1.9l0-1.9c0.1,0,10.5,0.2,24.1-3.9
							c12.5-3.7,30.4-11.9,44.6-29.6l2.9,2.3c-14.9,18.5-33.5,27-46.6,30.9C638.5,119.8,628.7,120,626.6,120z"/>
					</g>
				</g>
				<g>
					<rect x="380.3" y="330.7" class="st15" width="11.3" height="93"/>
					<rect x="622.1" y="330.7" class="st15" width="11.3" height="93"/>
					<rect x="380.3" y="326.2" class="st15" width="253.2" height="29.8"/>
					<polygon class="st16" points="633.4,328.9 380.3,328.9 380.3,333.9 633.4,337.3 					"/>
					<rect x="371.8" y="321.2" class="st17" width="270.1" height="7.7"/>
				</g>
				<g>
					<g>
						
							<rect x="269.4" y="363.6" transform="matrix(-0.1763 -0.9843 0.9843 -0.1763 -43.6998 709.14)" class="st18" width="10.8" height="18.5"/>
						
							<rect x="249.6" y="366.5" transform="matrix(-0.1763 -0.9843 0.9843 -0.1763 -65.3956 696.7306)" class="st19" width="18.4" height="18.5"/>
						
							<rect x="258.8" y="380.5" transform="matrix(-0.1763 -0.9843 0.9843 -0.1763 -72.3917 711.4406)" class="st19" width="5.4" height="11"/>
						
							<rect x="214.2" y="374.8" transform="matrix(-0.1763 -0.9843 0.9843 -0.1763 -77.7354 689.6732)" class="st19" width="70.9" height="5.1"/>
						
							<rect x="209.9" y="354.7" transform="matrix(-0.1763 -0.9843 0.9843 -0.1763 -105.6505 649.9227)" class="st19" width="18.4" height="28.9"/>
						
							<rect x="286.5" y="364.6" transform="matrix(-0.1763 -0.9843 0.9843 -0.1763 -23.8804 720.4766)" class="st19" width="6.1" height="11.2"/>
						<g>
							
								<rect x="294.8" y="362.7" transform="matrix(-0.1763 -0.9843 0.9843 -0.1763 -9.4617 728.7244)" class="st19" width="10.7" height="11.2"/>
						</g>
						<path class="st19" d="M231.7,337.7c4.8-0.9,9.4,2.4,10.3,7.3l11.7,65.5c0.9,4.9-2.3,9.6-7.1,10.4c-4.8,0.9-9.4-2.4-10.3-7.3
							l-11.7-65.5C223.8,343.2,227,338.5,231.7,337.7z"/>
						<path class="st19" d="M185.5,332.4c10.8-1.9,21.2,5.3,23.1,16.1l7.8,43.5c1.9,10.8-5.3,21.2-16.1,23.1l-46.3,8.3
							c-10.8,1.9-21.2-5.3-23.1-16.1l-7.8-43.5c-1.9-10.8,5.3-21.2,16.1-23.1L185.5,332.4z"/>
						<g>
							<polygon class="st19" points="285,376.6 297.3,400.2 300.5,399.6 291.7,370.1 284,371.5 							"/>
							<circle class="st19" cx="305.2" cy="398.4" r="5.9"/>
						</g>
						<g>
							<polygon class="st19" points="283,365.9 286.4,339.4 289.6,338.9 291.6,369.6 283.9,371 							"/>
							<circle class="st19" cx="294.5" cy="338.4" r="5.9"/>
						</g>
					</g>
					<g>
						<polygon class="st20" points="208.9,349.9 196.2,354.7 192.6,353.2 131.3,392.4 139.2,384.8 192.7,351.3 196.4,352.7 
							208.3,346.8 						"/>
						<polygon class="st20" points="156.9,398.4 168.8,378.5 167,368.7 166,369.8 167.3,378.1 157.7,393 						"/>
						<polygon class="st20" points="135.7,378.1 155.1,376.4 156.9,375.2 130.1,375.9 						"/>
					</g>
				</g>
			</g>
		</g>
	</g>
</g>
</svg>
